<svg xmlns="http://www.w3.org/2000/svg" width="64" height="64" fill="none"><path fill="#fff" d="M0 0h64v64H0z"/><path fill="#4FC3F7" fill-rule="evenodd" d="M32 64c17.673 0 32-14.327 32-32C64 14.327 49.673 0 32 0 14.327 0 0 14.327 0 32c0 17.673 14.327 32 32 32Z" clip-rule="evenodd"/><path fill="#FFCC80" fill-rule="evenodd" d="M53.907 55.326A31.888 31.888 0 0 1 32 64a31.886 31.886 0 0 1-21.7-8.482c.05-.153.104-.307.158-.462 1.042-2.971 1.288-5.157 6.733-7.289 5.445-2.132 22.522-2.182 28.784-.239 6.26 1.944 6.91 4.988 7.79 7.39.049.132.096.269.142.408Z" clip-rule="evenodd"/><path fill="#3E2723" fill-rule="evenodd" d="M22.655 32.047s-8.815 5.08-4.393 13.622c4.423 8.542 5.733 9.867 2.922 14.765 6.733-2.454 6.602-9.981 6.602-9.981l-.013-11.272-5.118-7.134Z" clip-rule="evenodd"/><path fill="#FFCC80" fill-rule="evenodd" d="M20.625 23.209c1.33-6.046 5.919-10.503 11.375-10.503 5.473 0 10.074 4.485 11.388 10.56.16-.074.345-.103.557-.084 1.276.117 1.26 1.802 1.078 3.873-.179 2.044-.937 3.653-1.704 3.63-1.01 4.277-3.66 7.728-7.084 9.314v7.061A4.234 4.234 0 0 1 32 51.294a4.233 4.233 0 0 1-4.235-4.234V40c-3.43-1.589-6.083-5.05-7.09-9.339-.702-.208-1.358-1.722-1.523-3.605-.181-2.071-.198-3.756 1.078-3.873.144-.013.275-.004.395.027Z" clip-rule="evenodd"/><path fill="#EC407A" fill-rule="evenodd" d="M28.235 34.483s1.736-1.533 3.85-.894c1.484-.342 2.643-.258 3.68.869-.596.828-1.172 1.73-3.714 1.776-2.543.046-3.816-1.75-3.816-1.75Z" clip-rule="evenodd"/><path fill="#3E2723" fill-rule="evenodd" d="M19.744 23.31S18.405 8.78 31.84 9.075c13.435.293 12.301 14.182 12.301 14.182s-1.662-.512-1.866 2.66c-.49-.32-1.235-1.065-1.211-1.649-.474.06-10.655.62-11.005-5.663-.4 1.736.47 3.708-7.046 5.64a2.32 2.32 0 0 1-1.17 1.584c-.088-3.155-2.1-2.517-2.1-2.517Z" clip-rule="evenodd"/></svg>