<?xml version="1.0" encoding="iso-8859-1"?>
<!-- Generator: Adobe Illustrator 19.0.0, SVG Export Plug-In . SVG Version: 6.00 Build 0)  -->
<svg version="1.1" id="Layer_1" xmlns="http://www.w3.org/2000/svg" xmlns:xlink="http://www.w3.org/1999/xlink" x="0px" y="0px"
	 viewBox="0 0 512 512" style="enable-background:new 0 0 512 512;" xml:space="preserve">
<g>
	<g>
		<path d="M464.502,493.13H168.805V221.163l117.996-118.008h97.119v55.47l-10.532,3.511c-4.944,1.648-7.615,6.991-5.967,11.935
			c1.179,3.534,4.246,5.892,7.705,6.357l-1.739,0.579c-4.944,1.648-7.615,6.991-5.967,11.935c1.179,3.534,4.246,5.892,7.705,6.357
			l-1.739,0.579c-4.944,1.648-7.615,6.991-5.967,11.935c1.172,3.517,4.218,5.874,7.657,6.353l-20.559,20.559
			c-21.412,21.413-21.412,56.256,0,77.669c0,0,0,0,0.001,0c10.373,10.373,24.165,16.086,38.834,16.086
			c14.671,0,28.462-5.712,38.834-16.086c10.375-10.373,16.087-24.165,16.087-38.835c0-14.671-5.713-28.462-16.086-38.835
			l-28.916-28.916l10.047-3.35c4.944-1.648,7.615-6.991,5.967-11.935c-1.177-3.531-4.241-5.892-7.695-6.359l1.728-0.576
			c4.944-1.648,7.615-6.991,5.967-11.935c-1.177-3.531-4.241-5.892-7.695-6.359l1.728-0.576c4.944-1.648,7.615-6.991,5.967-11.935
			c-1.649-4.944-6.991-7.616-11.935-5.968l-4.564,1.521v-49.178h34.595c5.212,0,9.435-4.224,9.435-9.435V34.595
			c0-5.211-4.223-9.435-9.435-9.435h-268.58V9.435c0-5.211-4.223-9.435-9.435-9.435h-59.125c-5.212,0-9.435,4.224-9.435,9.435V25.16
			H54.957c-5.212,0-9.435,4.224-9.435,9.435V93.72c0,5.211,4.223,9.435,9.435,9.435H90.81V493.13H47.5
			c-5.212,0-9.435,4.224-9.435,9.435S42.288,512,47.5,512H464.5c5.212,0,9.435-4.224,9.435-9.435S469.712,493.13,464.502,493.13z
			 M418.847,252.064c6.809,6.809,10.56,15.862,10.56,25.492c0,9.63-3.75,18.682-10.561,25.492
			c-6.808,6.809-15.861,10.56-25.492,10.56c-9.629,0-18.684-3.75-25.493-10.56h0.001c-14.057-14.057-14.057-36.927,0-50.984
			l25.492-25.492L418.847,252.064z M168.805,44.029H427.95v40.256H168.805V44.029z M168.805,103.155h37.546l-37.546,37.552V103.155z
			 M168.805,167.395l64.229-64.24h27.082l-91.311,91.32V167.395z M90.81,84.285H64.392V44.029H90.81V84.285z M149.935,493.13
			h-40.255V18.87h40.255V493.13z"/>
	</g>
</g>
<g>
</g>
<g>
</g>
<g>
</g>
<g>
</g>
<g>
</g>
<g>
</g>
<g>
</g>
<g>
</g>
<g>
</g>
<g>
</g>
<g>
</g>
<g>
</g>
<g>
</g>
<g>
</g>
<g>
</g>
</svg>
