<svg id="svg" version="1.1" xmlns="http://www.w3.org/2000/svg" xmlns:xlink="http://www.w3.org/1999/xlink" width="400" height="90.78947368421052" viewBox="0, 0, 400,90.78947368421052"><g id="svgg"><path id="path0" d="M208.625 25.180 C 208.350 25.340,208.333 26.513,208.333 46.092 L 208.333 66.833 213.417 66.833 L 218.500 66.833 218.500 46.117 C 218.500 30.226,218.453 25.353,218.300 25.200 C 218.042 24.942,209.065 24.924,208.625 25.180 M226.542 25.110 C 226.377 25.177,226.333 29.514,226.333 46.014 L 226.333 66.833 231.417 66.833 L 236.500 66.833 236.500 46.079 L 236.500 25.325 236.072 25.163 C 235.642 24.999,226.936 24.951,226.542 25.110 M329.708 25.172 L 329.332 25.323 329.374 46.037 L 329.417 66.750 334.458 66.794 L 339.500 66.838 339.500 46.020 C 339.500 27.191,339.475 25.193,339.236 25.101 C 338.817 24.940,330.124 25.005,329.708 25.172 M347.533 25.200 C 347.380 25.353,347.333 30.226,347.333 46.117 L 347.333 66.833 352.500 66.833 L 357.667 66.833 357.667 62.756 C 357.667 58.076,357.444 58.722,359.633 57.042 C 361.272 55.783,361.433 55.834,362.654 58.000 C 362.835 58.321,363.080 58.770,363.200 58.998 C 363.319 59.226,363.548 59.544,363.708 59.706 C 363.869 59.868,364.000 60.076,364.000 60.168 C 364.000 60.261,364.258 60.704,364.574 61.153 C 364.889 61.602,365.345 62.332,365.586 62.776 C 365.828 63.220,366.240 63.921,366.503 64.333 C 366.766 64.746,367.216 65.477,367.503 65.958 L 368.024 66.833 373.762 66.833 C 379.975 66.833,379.871 66.850,379.167 65.955 C 378.983 65.721,378.833 65.460,378.833 65.375 C 378.833 65.289,378.683 65.083,378.500 64.917 C 378.317 64.751,378.167 64.477,378.167 64.308 C 378.167 64.138,378.103 64.000,378.025 64.000 C 377.870 64.000,376.833 62.402,376.833 62.164 C 376.833 62.083,376.736 61.957,376.617 61.883 C 376.498 61.810,376.184 61.375,375.920 60.917 C 375.656 60.458,375.191 59.728,374.887 59.293 C 374.582 58.859,374.333 58.462,374.333 58.412 C 374.333 58.361,374.195 58.117,374.026 57.868 C 373.857 57.620,373.501 57.079,373.234 56.667 C 372.968 56.254,372.693 55.842,372.623 55.750 C 372.266 55.283,371.667 54.302,371.667 54.185 C 371.667 54.112,371.517 53.916,371.333 53.750 C 371.150 53.584,371.000 53.363,371.000 53.258 C 371.000 53.153,370.887 52.921,370.748 52.742 C 370.610 52.563,370.256 52.042,369.963 51.583 C 369.669 51.125,369.381 50.712,369.323 50.667 C 368.476 50.002,368.698 49.210,370.292 47.222 C 371.780 45.366,371.865 45.263,372.586 44.450 C 372.814 44.193,373.000 43.930,373.001 43.866 C 373.001 43.802,373.278 43.450,373.616 43.083 C 373.954 42.717,375.016 41.442,375.977 40.250 C 376.937 39.058,377.788 38.040,377.867 37.987 C 378.012 37.889,378.667 36.741,378.667 36.584 C 378.667 36.538,376.235 36.500,373.263 36.500 L 367.860 36.500 367.222 37.160 C 366.871 37.522,366.457 37.991,366.302 38.201 C 365.762 38.934,363.775 41.419,363.513 41.688 C 363.369 41.837,363.100 42.171,362.917 42.429 C 362.550 42.946,359.966 46.271,359.628 46.661 C 359.397 46.927,359.244 47.168,358.768 48.020 C 358.595 48.330,358.406 48.621,358.348 48.667 C 358.290 48.712,358.108 48.961,357.943 49.219 C 357.168 50.437,356.994 49.012,357.418 44.917 C 357.596 43.202,357.661 40.278,357.663 33.896 L 357.667 25.208 357.146 25.104 C 356.132 24.901,347.748 24.985,347.533 25.200 M96.914 27.145 C 96.270 27.211,95.649 27.325,95.533 27.396 C 95.417 27.468,94.830 27.596,94.229 27.682 C 93.627 27.767,92.976 27.948,92.781 28.085 C 92.585 28.222,92.297 28.333,92.140 28.333 C 91.791 28.333,91.246 28.566,90.583 28.997 C 90.308 29.177,89.878 29.440,89.626 29.582 C 87.007 31.064,85.167 34.479,85.034 38.107 C 84.969 39.853,85.022 40.299,85.513 42.167 C 86.352 45.359,88.823 47.749,93.750 50.135 C 94.942 50.712,96.194 51.330,96.533 51.509 C 96.872 51.687,97.235 51.833,97.340 51.833 C 97.445 51.833,97.721 51.983,97.955 52.167 C 98.188 52.350,98.478 52.500,98.601 52.500 C 99.531 52.500,101.431 54.390,101.578 55.461 C 102.028 58.747,96.776 60.168,91.250 58.256 C 90.883 58.129,90.321 57.973,90.000 57.908 C 89.679 57.844,89.269 57.688,89.088 57.562 C 88.907 57.436,88.606 57.333,88.419 57.333 C 88.232 57.333,87.799 57.183,87.456 57.000 C 87.114 56.817,86.739 56.667,86.623 56.667 C 86.507 56.667,86.128 56.515,85.781 56.329 C 84.831 55.819,84.833 55.808,84.833 60.498 L 84.833 64.811 85.317 65.155 C 85.584 65.345,85.905 65.500,86.032 65.500 C 86.159 65.500,86.548 65.645,86.895 65.823 C 87.243 66.000,87.910 66.227,88.378 66.327 C 88.845 66.427,89.312 66.580,89.415 66.665 C 89.518 66.751,90.349 66.897,91.260 66.990 C 92.171 67.083,93.738 67.245,94.743 67.350 C 96.116 67.494,96.840 67.494,97.659 67.350 C 98.259 67.245,99.472 67.092,100.355 67.010 C 101.238 66.929,102.176 66.753,102.439 66.620 C 102.702 66.487,103.206 66.325,103.560 66.261 C 104.154 66.154,105.526 65.588,105.917 65.289 C 106.379 64.936,107.364 64.333,107.479 64.333 C 107.737 64.333,110.334 61.473,110.432 61.080 C 110.488 60.860,110.638 60.593,110.766 60.486 C 110.895 60.380,111.000 60.170,111.001 60.021 C 111.001 59.872,111.158 59.493,111.349 59.179 C 111.928 58.229,112.151 55.620,111.875 53.000 C 111.412 48.586,109.024 46.257,101.333 42.722 C 100.646 42.406,99.971 42.077,99.833 41.989 C 99.696 41.902,99.396 41.748,99.167 41.648 C 98.938 41.547,98.638 41.397,98.500 41.314 C 98.362 41.232,98.063 41.074,97.833 40.963 C 95.853 40.004,94.629 37.677,95.646 36.806 C 95.819 36.659,95.987 36.473,96.021 36.394 C 96.557 35.149,100.592 34.946,104.250 35.981 C 105.735 36.401,106.804 36.777,107.333 37.064 C 108.704 37.809,109.395 37.356,109.781 35.462 C 109.832 35.212,109.977 34.922,110.103 34.817 C 110.230 34.712,110.333 34.501,110.333 34.348 C 110.333 34.195,110.479 33.785,110.657 33.436 C 110.835 33.086,111.031 32.564,111.092 32.275 C 111.154 31.986,111.297 31.637,111.411 31.500 C 112.309 30.419,111.809 29.347,110.267 29.048 C 109.982 28.993,109.489 28.810,109.169 28.641 C 108.850 28.472,108.377 28.333,108.119 28.333 C 107.861 28.333,107.444 28.227,107.193 28.097 C 106.942 27.967,106.169 27.782,105.476 27.685 C 104.782 27.589,104.005 27.430,103.749 27.333 C 103.167 27.112,98.485 26.983,96.914 27.145 M259.872 27.805 C 259.709 27.909,259.671 28.849,259.705 31.928 L 259.750 35.917 264.381 36.000 C 268.254 36.070,269.038 36.124,269.170 36.333 C 269.267 36.486,269.329 42.482,269.331 51.711 L 269.333 66.838 274.458 66.794 L 279.583 66.750 279.626 51.537 L 279.668 36.324 280.095 36.162 C 280.333 36.072,282.475 36.000,284.930 36.000 L 289.339 36.000 289.295 31.875 L 289.250 27.750 274.667 27.710 C 266.646 27.689,259.988 27.731,259.872 27.805 M134.880 36.183 C 134.035 36.258,133.132 36.429,132.874 36.562 C 132.616 36.696,132.126 36.857,131.786 36.921 C 131.445 36.985,131.167 37.106,131.167 37.189 C 131.167 37.273,130.998 37.417,130.792 37.508 C 130.095 37.818,129.319 38.475,128.636 39.332 C 127.560 40.684,126.630 40.152,126.236 37.960 C 126.175 37.617,125.949 37.147,125.734 36.915 L 125.343 36.493 121.713 36.538 L 118.083 36.583 118.041 51.708 L 117.998 66.833 123.082 66.833 L 128.167 66.833 128.176 59.375 C 128.186 50.458,128.357 48.637,129.385 46.472 C 131.060 42.943,135.453 43.150,136.419 46.803 C 136.899 48.617,136.973 50.170,136.987 58.708 L 137.000 66.833 142.070 66.833 L 147.139 66.833 147.198 57.875 L 147.257 48.917 147.720 47.571 C 149.386 42.730,154.697 42.795,155.517 47.667 C 155.658 48.506,155.758 51.845,155.822 57.833 L 155.917 66.750 160.917 66.750 L 165.917 66.750 165.968 57.500 C 166.039 44.708,165.909 43.082,164.600 40.352 C 164.222 39.564,162.289 37.500,161.928 37.500 C 161.807 37.500,161.618 37.392,161.509 37.261 C 161.400 37.129,161.072 36.970,160.780 36.907 C 160.489 36.845,160.055 36.694,159.816 36.572 C 158.677 35.990,152.979 35.991,151.852 36.574 C 151.606 36.701,151.121 36.858,150.773 36.923 C 150.425 36.989,150.101 37.145,150.052 37.271 C 150.004 37.397,149.888 37.500,149.795 37.500 C 149.465 37.500,148.208 38.426,147.816 38.959 C 147.422 39.494,146.653 40.000,146.234 40.000 C 146.116 40.000,145.509 39.503,144.885 38.896 C 144.261 38.288,143.525 37.684,143.250 37.552 C 142.975 37.421,142.563 37.206,142.333 37.076 C 142.104 36.945,141.765 36.837,141.579 36.836 C 141.393 36.834,141.086 36.725,140.897 36.593 C 140.708 36.460,139.960 36.308,139.235 36.254 C 138.510 36.200,137.579 36.131,137.167 36.101 C 136.754 36.071,135.725 36.108,134.880 36.183 M185.083 36.184 C 183.708 36.258,182.246 36.406,181.833 36.513 C 181.421 36.620,180.596 36.804,180.000 36.921 C 178.805 37.158,177.609 37.541,176.572 38.020 C 176.200 38.192,175.809 38.333,175.703 38.333 C 175.255 38.333,175.147 38.981,175.487 39.624 C 175.669 39.968,175.976 40.625,176.169 41.083 C 176.532 41.943,176.669 42.253,177.402 43.865 C 177.639 44.386,177.833 44.892,177.833 44.990 C 177.833 45.273,178.541 45.195,179.250 44.833 C 179.610 44.650,180.019 44.498,180.160 44.495 C 180.301 44.492,180.562 44.379,180.740 44.245 C 180.918 44.110,181.199 44.000,181.365 44.000 C 181.530 44.000,182.134 43.835,182.708 43.632 C 186.590 42.263,190.333 43.673,190.333 46.506 C 190.333 47.619,190.379 47.605,185.500 47.917 C 183.071 48.073,180.965 48.263,180.821 48.340 C 180.677 48.417,180.062 48.567,179.454 48.672 C 178.845 48.778,178.260 48.970,178.154 49.099 C 178.047 49.228,177.791 49.333,177.585 49.333 C 177.380 49.333,177.021 49.483,176.788 49.667 C 176.555 49.850,176.287 50.000,176.193 50.000 C 175.789 50.000,173.916 51.730,173.310 52.662 C 171.706 55.130,171.487 59.733,172.848 62.366 C 173.023 62.705,173.167 63.074,173.167 63.186 C 173.167 63.613,175.721 66.103,176.310 66.249 C 176.552 66.310,176.862 66.459,177.000 66.580 C 177.137 66.701,178.102 66.964,179.144 67.165 L 181.037 67.529 183.474 67.164 C 184.814 66.963,186.060 66.693,186.242 66.566 C 186.425 66.438,186.697 66.333,186.846 66.333 C 186.996 66.333,187.320 66.146,187.568 65.917 C 187.815 65.688,188.124 65.500,188.254 65.500 C 188.384 65.500,189.055 64.938,189.745 64.250 C 191.261 62.739,191.826 62.720,192.251 64.167 C 192.318 64.396,192.471 64.696,192.590 64.833 C 192.710 64.971,192.858 65.287,192.920 65.535 C 192.982 65.783,193.138 66.074,193.266 66.180 C 193.395 66.287,193.500 66.479,193.500 66.607 C 193.500 66.801,194.099 66.832,197.042 66.795 L 200.583 66.750 200.580 55.583 C 200.576 45.366,200.552 44.362,200.288 43.771 C 200.130 43.416,200.000 42.992,200.000 42.828 C 200.000 42.177,198.304 39.463,197.586 38.966 C 197.399 38.837,197.017 38.542,196.226 37.915 C 195.938 37.687,195.586 37.500,195.444 37.500 C 195.302 37.500,195.145 37.433,195.095 37.352 C 194.749 36.793,189.921 35.903,187.917 36.028 C 187.733 36.040,186.458 36.110,185.083 36.184 M306.097 36.187 C 304.638 36.263,303.101 36.434,302.681 36.566 C 302.260 36.699,301.487 36.856,300.961 36.915 C 300.435 36.975,299.967 37.086,299.920 37.162 C 299.873 37.238,299.440 37.392,298.959 37.505 C 298.477 37.618,297.979 37.794,297.851 37.897 C 297.724 37.999,297.350 38.161,297.019 38.255 C 296.311 38.458,296.193 38.808,296.567 39.603 C 296.714 39.913,296.939 40.410,297.067 40.708 C 297.462 41.623,297.984 42.798,298.325 43.542 C 298.503 43.931,298.726 44.456,298.821 44.708 C 299.015 45.228,299.542 45.314,300.074 44.911 C 300.251 44.777,300.514 44.664,300.657 44.661 C 300.800 44.658,301.217 44.510,301.583 44.333 C 301.950 44.156,302.378 44.009,302.535 44.006 C 302.693 44.003,303.218 43.840,303.702 43.644 C 305.119 43.072,309.012 43.083,309.838 43.662 C 310.773 44.318,311.216 45.105,311.297 46.257 C 311.395 47.650,311.540 47.599,306.583 47.910 C 304.075 48.068,302.004 48.275,301.667 48.403 C 301.346 48.524,300.729 48.675,300.296 48.738 C 299.862 48.801,299.465 48.921,299.414 49.005 C 299.362 49.089,299.004 49.242,298.618 49.344 C 298.232 49.447,297.804 49.625,297.667 49.740 C 297.529 49.855,297.283 49.997,297.119 50.055 C 294.350 51.039,292.159 56.660,293.238 60.012 C 293.368 60.418,293.523 61.106,293.581 61.542 C 293.639 61.977,293.752 62.333,293.831 62.333 C 293.910 62.333,294.064 62.605,294.173 62.936 C 294.380 63.564,294.478 63.704,295.386 64.667 C 296.183 65.512,296.960 66.132,297.382 66.261 C 297.584 66.322,297.862 66.469,298.000 66.587 C 298.137 66.704,299.099 66.964,300.136 67.163 L 302.022 67.526 304.396 67.186 C 305.701 67.000,306.990 66.732,307.260 66.591 C 307.529 66.450,307.820 66.335,307.904 66.334 C 308.248 66.332,310.334 64.772,311.139 63.915 C 312.390 62.583,312.527 62.649,313.824 65.199 L 314.612 66.750 318.144 66.795 L 321.676 66.840 321.629 55.446 C 321.594 46.773,321.535 43.992,321.380 43.806 C 321.268 43.671,321.094 43.177,320.993 42.708 C 320.893 42.239,320.703 41.766,320.572 41.657 C 320.441 41.548,320.333 41.379,320.333 41.280 C 320.333 40.745,318.744 38.951,317.639 38.240 C 317.303 38.024,316.980 37.769,316.921 37.673 C 316.862 37.578,316.677 37.500,316.511 37.500 C 316.344 37.500,316.116 37.389,316.004 37.254 C 315.892 37.119,315.526 36.959,315.192 36.899 C 314.857 36.838,314.389 36.691,314.152 36.571 C 313.797 36.391,309.490 35.943,308.917 36.025 C 308.825 36.039,307.556 36.112,306.097 36.187 M241.705 52.208 L 241.750 56.250 248.989 56.293 C 254.670 56.328,256.257 56.292,256.362 56.127 C 256.435 56.011,256.496 54.173,256.497 52.042 L 256.500 48.167 249.080 48.167 L 241.661 48.167 241.705 52.208 M190.070 53.268 C 190.346 53.374,190.439 56.434,190.192 57.293 C 189.297 60.399,183.581 61.182,182.650 58.326 C 181.846 55.860,183.322 54.097,186.833 53.332 C 187.558 53.174,189.714 53.131,190.070 53.268 M311.327 53.489 C 311.537 53.881,311.544 55.064,311.344 56.446 C 310.975 58.999,308.342 60.642,305.620 60.018 C 302.458 59.293,302.946 54.738,306.294 53.736 C 308.540 53.063,311.034 52.941,311.327 53.489 " stroke="none" fill="#080808" fill-rule="evenodd"></path><path id="path1" d="M0.000 45.333 L 0.000 90.667 200.000 90.667 L 400.000 90.667 400.000 45.333 L 400.000 0.000 200.000 0.000 L 0.000 0.000 0.000 45.333 M218.833 25.000 C 219.297 25.464,219.367 66.443,218.905 66.905 C 218.636 67.173,208.760 67.320,208.097 67.066 C 207.668 66.901,207.696 25.096,208.125 24.847 C 208.752 24.481,218.454 24.620,218.833 25.000 M236.738 24.929 C 237.084 25.274,237.145 66.622,236.800 66.967 C 236.539 67.228,226.473 67.253,225.989 66.994 C 225.673 66.825,225.667 66.415,225.667 46.004 L 225.667 25.186 226.037 24.926 C 226.596 24.535,236.347 24.537,236.738 24.929 M339.796 24.926 L 340.167 25.186 340.167 45.976 C 340.167 61.924,340.120 66.813,339.967 66.967 C 339.681 67.253,329.319 67.253,329.033 66.967 C 328.688 66.622,328.749 25.274,329.095 24.929 C 329.487 24.537,339.238 24.535,339.796 24.926 M357.800 24.867 C 358.129 25.195,358.082 45.781,357.750 47.056 C 357.613 47.584,357.507 48.294,357.515 48.633 L 357.530 49.250 357.686 48.708 C 357.772 48.410,357.952 48.167,358.085 48.167 C 358.218 48.167,358.374 47.978,358.432 47.748 C 358.490 47.518,358.625 47.274,358.733 47.206 C 358.840 47.139,359.166 46.708,359.457 46.250 C 359.748 45.792,360.214 45.168,360.493 44.865 C 360.772 44.561,361.000 44.280,361.000 44.240 C 361.000 44.178,363.026 41.614,366.545 37.223 C 367.583 35.927,367.144 36.005,373.426 36.002 C 379.282 36.000,379.583 36.044,379.166 36.847 C 378.957 37.249,376.066 40.928,375.422 41.609 C 375.236 41.807,375.006 42.069,374.912 42.193 C 374.412 42.847,373.552 43.931,373.333 44.183 C 373.196 44.341,372.821 44.784,372.500 45.167 C 372.179 45.550,371.785 46.006,371.625 46.181 C 371.465 46.357,371.333 46.541,371.333 46.591 C 371.333 46.691,369.689 48.702,369.499 48.833 C 369.180 49.054,369.179 49.637,369.497 50.042 C 369.682 50.277,369.833 50.540,369.833 50.627 C 369.833 50.714,370.021 50.987,370.250 51.234 C 370.479 51.482,370.667 51.752,370.667 51.835 C 370.667 51.919,371.079 52.593,371.583 53.333 C 372.087 54.074,372.500 54.740,372.500 54.814 C 372.500 54.888,372.650 55.084,372.833 55.250 C 373.017 55.416,373.167 55.647,373.167 55.764 C 373.167 55.881,373.260 56.075,373.375 56.196 C 373.490 56.318,373.801 56.754,374.068 57.167 C 374.334 57.579,374.690 58.120,374.859 58.368 C 375.028 58.617,375.167 58.886,375.167 58.967 C 375.167 59.049,375.317 59.251,375.500 59.417 C 375.683 59.583,375.833 59.778,375.833 59.852 C 375.833 59.986,376.452 60.970,376.917 61.576 C 377.054 61.755,377.167 61.998,377.167 62.117 C 377.167 62.236,377.240 62.333,377.329 62.333 C 377.418 62.333,377.616 62.577,377.769 62.875 C 377.921 63.173,378.529 64.152,379.120 65.050 C 380.620 67.333,381.036 67.167,373.843 67.167 L 367.893 67.167 367.539 66.759 C 367.344 66.535,367.066 66.141,366.921 65.884 C 366.775 65.627,366.510 65.192,366.330 64.917 C 366.150 64.642,365.910 64.229,365.796 64.000 C 365.682 63.771,365.307 63.171,364.961 62.667 C 364.616 62.163,364.334 61.697,364.334 61.632 C 364.333 61.515,363.646 60.419,363.348 60.062 C 363.262 59.959,362.958 59.437,362.673 58.901 C 362.387 58.366,362.100 57.888,362.035 57.839 C 361.970 57.790,361.802 57.526,361.661 57.251 C 361.520 56.977,361.284 56.729,361.137 56.701 C 360.857 56.647,359.333 57.631,359.333 57.865 C 359.333 57.939,359.240 58.002,359.125 58.005 C 359.010 58.007,358.712 58.218,358.461 58.474 L 358.006 58.938 357.961 63.011 L 357.917 67.083 352.750 67.130 C 349.908 67.156,347.415 67.135,347.208 67.085 L 346.833 66.994 346.833 46.005 C 346.833 26.192,346.850 25.007,347.125 24.847 C 347.567 24.590,357.542 24.608,357.800 24.867 M105.381 27.182 C 105.929 27.357,106.573 27.500,106.813 27.501 C 107.054 27.502,107.459 27.611,107.715 27.745 C 107.971 27.878,108.459 28.036,108.799 28.096 C 109.139 28.155,109.568 28.298,109.752 28.414 C 109.937 28.529,110.350 28.677,110.669 28.744 C 112.059 29.033,112.686 29.772,112.251 30.606 C 112.114 30.869,112.001 31.196,112.000 31.333 C 111.999 31.471,111.849 31.808,111.667 32.083 C 111.485 32.358,111.335 32.715,111.334 32.876 C 111.334 33.036,111.183 33.448,111.000 33.790 C 110.817 34.132,110.666 34.525,110.666 34.664 C 110.665 34.803,110.515 35.142,110.333 35.417 C 110.151 35.692,110.002 36.080,110.001 36.280 C 110.000 36.479,109.897 36.745,109.772 36.871 C 109.647 36.996,109.494 37.257,109.432 37.451 C 109.234 38.076,108.889 38.242,108.423 37.936 C 108.197 37.788,107.912 37.667,107.791 37.667 C 107.670 37.667,107.293 37.525,106.954 37.352 C 106.614 37.179,106.059 36.986,105.719 36.922 C 105.379 36.858,104.949 36.699,104.763 36.570 C 104.578 36.440,104.190 36.333,103.901 36.333 C 103.613 36.333,102.907 36.183,102.333 36.000 C 100.854 35.527,98.130 35.527,97.417 36.000 C 97.142 36.182,96.785 36.332,96.625 36.332 C 96.465 36.333,96.332 36.427,96.330 36.542 C 96.328 36.656,96.179 36.938,96.000 37.167 C 95.571 37.716,95.584 38.043,96.070 38.812 C 96.470 39.446,97.650 40.500,97.960 40.500 C 98.049 40.500,98.301 40.640,98.519 40.810 C 98.738 40.981,99.104 41.178,99.333 41.247 C 99.563 41.316,99.862 41.468,100.000 41.583 C 100.138 41.699,100.438 41.849,100.667 41.917 C 100.896 41.984,101.196 42.135,101.333 42.251 C 101.471 42.368,101.822 42.514,102.113 42.575 C 102.405 42.637,102.729 42.791,102.833 42.917 C 102.938 43.042,103.238 43.192,103.500 43.250 C 103.762 43.308,104.066 43.462,104.176 43.594 C 104.285 43.726,104.505 43.833,104.665 43.833 C 104.824 43.833,105.146 43.983,105.379 44.167 C 105.612 44.350,105.884 44.500,105.985 44.500 C 106.085 44.500,106.303 44.631,106.469 44.792 C 106.635 44.952,107.041 45.223,107.371 45.393 C 108.070 45.755,108.854 46.381,109.476 47.074 C 109.718 47.344,110.075 47.719,110.269 47.908 C 110.462 48.096,110.671 48.412,110.733 48.610 C 110.795 48.808,110.956 49.061,111.090 49.172 C 111.224 49.283,111.333 49.505,111.333 49.665 C 111.333 49.824,111.471 50.134,111.639 50.353 C 111.920 50.717,112.049 51.253,112.526 54.047 C 112.692 55.014,112.630 55.637,112.118 58.176 C 111.997 58.777,111.771 59.450,111.616 59.671 C 111.460 59.893,111.333 60.196,111.333 60.345 C 111.333 60.494,111.183 60.789,111.000 61.000 C 110.817 61.211,110.667 61.459,110.667 61.550 C 110.667 61.641,110.407 61.986,110.089 62.316 C 109.771 62.646,109.268 63.207,108.971 63.561 C 108.457 64.175,107.576 64.834,106.667 65.287 C 106.186 65.525,105.754 65.795,105.188 66.208 C 104.968 66.369,104.592 66.500,104.353 66.501 C 104.113 66.502,103.699 66.615,103.434 66.754 C 102.948 67.007,101.302 67.417,99.750 67.672 C 97.997 67.960,93.020 67.855,91.583 67.500 C 90.850 67.319,89.987 67.167,89.667 67.163 C 89.346 67.159,88.783 67.010,88.417 66.833 C 88.050 66.656,87.553 66.509,87.312 66.506 C 87.071 66.503,86.788 66.396,86.682 66.269 C 86.576 66.141,86.173 65.956,85.787 65.858 C 85.400 65.759,84.877 65.485,84.625 65.249 L 84.167 64.820 84.169 60.452 C 84.171 58.049,84.238 55.979,84.319 55.851 C 84.513 55.545,85.901 55.692,86.312 56.064 C 86.475 56.212,86.717 56.333,86.849 56.333 C 86.981 56.333,87.368 56.483,87.710 56.667 C 88.052 56.850,88.501 57.002,88.708 57.004 C 88.914 57.006,89.410 57.156,89.810 57.337 C 90.209 57.518,90.715 57.667,90.934 57.667 C 91.153 57.667,91.791 57.826,92.352 58.020 C 93.822 58.528,98.996 58.587,99.757 58.103 C 101.855 56.770,101.665 54.350,99.386 53.394 C 99.095 53.272,98.814 53.104,98.763 53.021 C 98.712 52.938,98.463 52.819,98.210 52.755 C 97.957 52.692,97.638 52.544,97.500 52.425 C 97.362 52.306,96.969 52.119,96.625 52.008 C 96.281 51.898,96.000 51.747,96.000 51.672 C 96.000 51.598,95.745 51.489,95.433 51.431 C 95.122 51.372,94.775 51.214,94.663 51.079 C 94.551 50.944,94.328 50.833,94.169 50.833 C 94.009 50.833,93.688 50.683,93.455 50.500 C 93.221 50.317,92.921 50.167,92.788 50.167 C 92.654 50.167,92.360 50.021,92.134 49.844 C 91.908 49.666,91.522 49.470,91.276 49.408 C 91.030 49.347,90.774 49.211,90.706 49.106 C 90.544 48.857,89.556 48.167,89.360 48.167 C 88.913 48.167,86.000 44.889,86.000 44.386 C 86.000 44.288,85.889 44.116,85.754 44.004 C 85.619 43.892,85.458 43.526,85.396 43.192 C 85.334 42.857,85.163 42.399,85.017 42.174 C 84.624 41.572,84.623 35.599,85.015 34.993 C 85.161 34.768,85.327 34.342,85.385 34.048 C 85.442 33.753,85.754 33.135,86.078 32.674 C 86.402 32.214,86.667 31.788,86.667 31.728 C 86.667 31.529,88.848 29.518,89.177 29.413 C 89.355 29.357,89.500 29.250,89.500 29.176 C 89.500 29.101,89.744 28.941,90.042 28.819 C 90.340 28.697,90.682 28.500,90.804 28.382 C 90.925 28.264,91.151 28.167,91.306 28.167 C 91.461 28.167,91.868 28.017,92.210 27.833 C 92.552 27.650,92.964 27.497,93.124 27.493 C 93.285 27.489,93.717 27.369,94.083 27.227 C 95.694 26.605,103.476 26.573,105.381 27.182 M289.394 27.308 C 289.642 27.582,289.667 28.092,289.628 31.933 L 289.583 36.250 284.917 36.340 C 282.350 36.389,280.231 36.446,280.208 36.465 C 280.185 36.484,280.167 43.310,280.167 51.633 C 280.167 63.181,280.119 66.814,279.967 66.967 C 279.576 67.357,269.218 67.241,269.006 66.844 C 268.891 66.629,268.833 61.514,268.833 51.428 L 268.833 36.333 264.200 36.333 C 260.819 36.333,259.513 36.279,259.367 36.133 C 259.139 35.906,259.076 27.900,259.299 27.550 C 259.615 27.053,260.542 27.021,274.683 27.011 C 288.514 27.000,289.127 27.013,289.394 27.308 M43.406 33.283 C 44.561 33.869,50.000 38.873,50.000 39.349 C 50.000 39.423,50.169 39.665,50.375 39.889 C 51.330 40.922,54.308 44.867,54.674 45.583 C 55.655 47.501,58.408 50.685,62.234 54.328 C 68.188 59.995,67.920 59.499,66.532 62.300 C 65.095 65.198,63.381 66.978,60.642 68.418 C 58.567 69.509,58.211 69.388,55.000 66.503 C 51.848 63.671,51.074 63.250,48.424 62.921 C 47.340 62.787,46.394 62.712,46.323 62.756 C 45.693 63.146,40.899 62.229,39.417 61.436 C 39.142 61.289,38.804 61.168,38.667 61.167 C 38.529 61.166,38.079 60.936,37.667 60.657 C 37.254 60.377,36.410 59.889,35.792 59.572 C 35.173 59.255,34.667 58.930,34.667 58.851 C 34.667 58.771,34.535 58.663,34.375 58.610 C 34.032 58.498,32.868 57.821,31.891 57.164 C 31.510 56.908,31.022 56.645,30.807 56.580 C 30.592 56.514,30.304 56.363,30.167 56.243 C 30.029 56.124,28.819 55.467,27.478 54.784 C 26.137 54.100,24.274 53.101,23.338 52.562 C 22.401 52.024,21.286 51.394,20.859 51.163 C 19.643 50.505,17.069 48.550,16.418 47.790 C 14.224 45.226,16.573 42.371,20.170 43.232 C 21.264 43.494,24.815 44.778,25.101 45.015 C 25.211 45.106,25.515 45.245,25.776 45.323 C 26.036 45.401,26.372 45.515,26.520 45.576 C 26.971 45.760,27.041 45.171,26.686 44.175 C 26.505 43.666,26.312 42.976,26.257 42.642 C 26.118 41.788,25.959 41.709,23.995 41.508 C 23.035 41.410,22.022 41.255,21.744 41.164 C 21.466 41.073,20.191 40.979,18.911 40.955 C 13.837 40.863,10.601 37.297,13.917 35.453 C 14.137 35.330,15.894 35.258,19.083 35.241 C 26.688 35.199,32.344 34.658,37.333 33.496 C 40.314 32.801,42.319 32.731,43.406 33.283 M139.333 35.766 C 140.707 36.025,142.323 36.524,142.833 36.848 C 142.971 36.935,143.308 37.113,143.583 37.243 C 144.130 37.502,144.668 37.974,145.374 38.813 C 146.086 39.659,146.591 39.578,147.756 38.432 C 148.288 37.909,148.954 37.374,149.236 37.244 C 149.519 37.113,149.862 36.939,150.000 36.856 C 150.678 36.449,151.831 36.000,152.200 36.000 C 152.428 36.000,152.982 35.888,153.432 35.752 C 154.396 35.459,157.259 35.415,157.947 35.682 C 158.206 35.782,158.856 35.927,159.392 36.005 C 159.929 36.083,160.491 36.253,160.642 36.384 C 160.793 36.515,161.129 36.673,161.389 36.734 C 161.649 36.796,161.949 36.919,162.056 37.008 C 162.163 37.097,162.644 37.475,163.125 37.849 C 163.606 38.223,164.000 38.592,164.000 38.669 C 164.000 38.746,164.094 38.911,164.208 39.034 C 165.014 39.903,165.576 41.110,165.862 42.583 C 165.951 43.042,166.111 43.642,166.217 43.917 C 166.514 44.682,166.591 66.840,166.297 67.026 C 165.854 67.307,155.718 67.194,155.429 66.905 C 155.197 66.673,155.167 65.546,155.167 57.027 C 155.167 47.730,155.156 47.391,154.833 46.790 C 154.650 46.448,154.500 46.074,154.500 45.958 C 154.500 45.744,153.622 44.833,153.415 44.833 C 153.352 44.833,153.044 44.712,152.731 44.563 C 151.205 43.839,148.167 45.990,148.167 47.796 C 148.167 47.977,148.037 48.453,147.879 48.854 C 147.624 49.501,147.581 50.571,147.504 58.333 L 147.417 67.083 142.083 67.128 C 137.217 67.168,136.732 67.147,136.542 66.887 C 136.382 66.669,136.333 64.705,136.333 58.426 C 136.333 46.358,136.205 45.576,134.080 44.665 C 132.519 43.996,130.077 45.156,129.765 46.715 C 129.709 46.997,129.562 47.346,129.438 47.489 C 128.941 48.067,128.667 52.433,128.667 59.783 C 128.667 65.514,128.625 66.827,128.438 66.982 C 128.276 67.117,126.700 67.159,122.980 67.127 L 117.750 67.083 117.707 51.768 C 117.676 40.591,117.716 36.392,117.853 36.226 C 118.001 36.048,118.833 36.000,121.783 36.000 L 125.526 36.000 126.013 36.487 C 126.281 36.755,126.500 37.130,126.500 37.321 C 126.500 37.512,126.650 37.948,126.833 38.290 C 127.017 38.632,127.167 39.119,127.167 39.373 C 127.167 40.057,127.538 39.944,128.257 39.042 C 128.899 38.237,129.062 38.076,129.609 37.711 C 130.934 36.827,131.201 36.667,131.341 36.667 C 131.429 36.667,131.781 36.517,132.123 36.333 C 132.465 36.150,132.934 35.999,133.164 35.997 C 133.395 35.995,133.958 35.889,134.417 35.762 C 135.559 35.444,137.635 35.445,139.333 35.766 M191.265 35.748 C 191.715 35.885,192.347 35.997,192.669 35.998 C 192.991 35.999,193.516 36.140,193.836 36.311 C 194.155 36.482,194.660 36.676,194.958 36.741 C 195.256 36.806,195.500 36.929,195.500 37.013 C 195.500 37.098,195.600 37.167,195.723 37.167 C 196.730 37.167,200.167 41.017,200.167 42.145 C 200.167 42.299,200.287 42.598,200.434 42.807 C 200.898 43.470,201.011 46.499,200.963 57.000 L 200.917 67.083 197.176 67.128 L 193.434 67.173 193.057 66.712 C 192.849 66.458,192.676 66.129,192.673 65.981 C 192.669 65.833,192.527 65.533,192.356 65.314 C 192.186 65.096,191.988 64.733,191.918 64.508 C 191.847 64.283,191.693 64.003,191.576 63.886 C 191.459 63.769,191.334 63.585,191.298 63.477 C 191.241 63.307,190.333 64.040,190.333 64.256 C 190.333 64.324,189.789 64.850,189.047 65.500 C 188.891 65.637,188.633 65.825,188.475 65.917 C 188.317 66.008,187.772 66.327,187.263 66.625 C 186.755 66.923,186.166 67.167,185.955 67.167 C 185.744 67.167,185.127 67.323,184.583 67.514 C 183.290 67.969,178.925 67.926,178.083 67.451 C 177.808 67.296,177.425 67.168,177.231 67.168 C 177.037 67.167,176.688 67.017,176.455 66.833 C 176.221 66.650,175.960 66.500,175.874 66.500 C 175.788 66.500,175.565 66.369,175.378 66.208 C 175.191 66.048,174.764 65.692,174.430 65.417 C 174.096 65.142,173.656 64.656,173.453 64.338 C 172.544 62.913,172.188 62.223,172.178 61.867 C 172.172 61.656,172.048 61.255,171.904 60.975 C 171.520 60.234,171.519 55.437,171.901 54.697 C 172.047 54.414,172.167 54.040,172.167 53.864 C 172.167 53.689,172.317 53.354,172.500 53.121 C 172.683 52.888,172.833 52.622,172.833 52.530 C 172.833 52.437,173.002 52.161,173.208 51.915 C 173.554 51.504,173.815 51.250,174.967 50.208 C 175.195 50.002,175.472 49.833,175.582 49.833 C 175.692 49.833,175.955 49.683,176.167 49.500 C 176.378 49.317,176.625 49.167,176.716 49.167 C 176.806 49.167,177.188 49.024,177.565 48.849 C 178.569 48.383,180.650 47.833,181.417 47.830 C 181.783 47.829,182.571 47.724,183.167 47.598 C 183.762 47.472,185.544 47.314,187.125 47.247 L 190.000 47.124 190.000 46.620 C 190.000 45.615,189.212 44.426,188.209 43.918 C 187.239 43.427,184.498 43.351,183.956 43.800 C 183.837 43.900,183.272 44.056,182.702 44.148 C 182.132 44.240,181.499 44.432,181.296 44.574 C 181.092 44.717,180.755 44.833,180.546 44.833 C 180.337 44.833,179.886 44.983,179.544 45.167 C 177.920 46.037,177.805 45.921,175.829 41.417 C 175.668 41.050,175.373 40.394,175.174 39.959 C 174.778 39.096,174.775 38.357,175.167 38.155 C 176.145 37.652,176.874 37.333,177.047 37.332 C 177.159 37.332,177.464 37.220,177.726 37.083 C 177.987 36.947,178.651 36.763,179.201 36.674 C 179.750 36.586,180.305 36.426,180.433 36.320 C 180.561 36.214,181.435 36.063,182.375 35.986 C 183.314 35.908,184.346 35.775,184.667 35.689 C 185.665 35.424,190.333 35.466,191.265 35.748 M312.265 35.748 C 312.715 35.885,313.349 35.997,313.673 35.998 C 313.997 35.999,314.541 36.142,314.881 36.315 C 315.221 36.489,315.674 36.674,315.888 36.728 C 317.191 37.055,320.087 39.536,320.600 40.765 C 320.726 41.065,320.896 41.352,320.979 41.404 C 321.062 41.455,321.178 41.704,321.237 41.957 C 321.296 42.210,321.449 42.642,321.575 42.917 C 322.121 44.101,322.503 65.894,321.994 66.844 C 321.832 67.148,321.610 67.167,318.190 67.167 C 313.984 67.167,314.298 67.290,313.328 65.250 C 312.335 63.158,312.452 63.191,311.020 64.608 C 310.340 65.282,309.707 65.833,309.613 65.833 C 309.519 65.833,309.321 65.944,309.172 66.079 C 308.677 66.527,307.322 67.167,306.866 67.168 C 306.619 67.168,306.192 67.294,305.917 67.447 C 305.177 67.859,300.445 67.979,299.644 67.606 C 299.336 67.463,298.754 67.273,298.351 67.185 C 297.948 67.097,297.571 66.948,297.513 66.854 C 297.455 66.760,297.244 66.623,297.045 66.549 C 296.452 66.330,294.862 64.952,294.632 64.458 C 294.515 64.206,294.366 64.000,294.301 64.000 C 294.133 64.000,293.391 62.475,293.252 61.845 C 293.188 61.551,293.030 61.110,292.902 60.864 C 292.562 60.212,292.572 55.435,292.915 54.778 C 293.050 54.518,293.240 54.012,293.337 53.653 C 293.434 53.294,293.577 53.000,293.655 53.000 C 293.733 53.000,293.842 52.823,293.896 52.607 C 294.023 52.100,296.034 50.067,296.722 49.750 C 297.012 49.616,297.362 49.435,297.500 49.347 C 299.190 48.267,303.477 47.438,308.458 47.228 L 311.000 47.120 311.000 46.461 C 311.000 46.055,310.872 45.640,310.667 45.379 C 310.483 45.146,310.333 44.866,310.333 44.757 C 310.333 43.743,307.041 43.163,305.020 43.821 C 304.435 44.011,303.759 44.167,303.517 44.167 C 303.276 44.167,302.799 44.317,302.456 44.500 C 302.114 44.683,301.703 44.836,301.542 44.839 C 301.382 44.842,300.950 44.990,300.583 45.167 C 299.629 45.628,298.722 45.609,298.575 45.125 C 298.512 44.919,298.363 44.637,298.243 44.500 C 298.124 44.362,297.973 44.025,297.907 43.750 C 297.842 43.475,297.695 43.137,297.581 43.000 C 297.466 42.862,297.319 42.563,297.254 42.333 C 297.120 41.861,296.592 40.636,296.237 39.974 C 295.890 39.328,295.923 38.179,296.292 38.070 C 296.452 38.022,296.861 37.837,297.200 37.658 C 297.539 37.480,297.953 37.333,298.121 37.333 C 298.289 37.333,298.587 37.221,298.784 37.083 C 298.980 36.945,299.578 36.764,300.112 36.681 C 300.646 36.598,301.383 36.414,301.750 36.272 C 302.117 36.131,302.867 36.008,303.417 36.000 C 303.967 35.992,304.829 35.883,305.333 35.757 C 306.646 35.429,311.195 35.424,312.265 35.748 M256.884 48.072 C 257.280 48.372,257.253 55.912,256.853 56.393 C 256.644 56.645,255.936 56.666,249.020 56.627 L 241.417 56.583 241.372 52.420 C 241.347 50.130,241.364 48.161,241.408 48.045 C 241.532 47.722,256.457 47.748,256.884 48.072 M187.750 53.755 C 187.108 53.878,186.275 53.984,185.897 53.990 C 185.477 53.996,185.048 54.129,184.788 54.333 C 184.555 54.517,184.312 54.667,184.249 54.667 C 183.117 54.667,182.580 58.124,183.560 59.106 C 184.221 59.768,186.866 59.927,187.601 59.349 C 187.845 59.157,188.120 59.000,188.212 59.000 C 189.057 59.000,190.023 56.830,189.965 55.062 L 189.917 53.583 189.417 53.557 C 189.142 53.542,188.392 53.631,187.750 53.755 M308.750 53.758 C 308.108 53.880,307.340 53.984,307.042 53.990 C 304.688 54.034,302.981 57.588,304.583 59.108 C 305.279 59.768,307.905 59.923,308.680 59.350 C 308.940 59.158,309.218 59.000,309.297 59.000 C 310.089 59.000,311.000 56.909,311.000 55.091 L 311.000 53.500 310.458 53.519 C 310.160 53.529,309.392 53.637,308.750 53.758 " stroke="none" fill="#fbfbfb" fill-rule="evenodd"></path><path id="path2" d="M39.917 32.995 C 39.367 33.067,38.204 33.293,37.333 33.496 C 32.344 34.658,26.688 35.199,19.083 35.241 C 15.894 35.258,14.137 35.330,13.917 35.453 C 10.465 37.372,14.175 40.864,19.594 40.796 C 20.822 40.780,21.822 40.851,22.207 40.981 C 22.550 41.097,22.962 41.161,23.124 41.125 C 23.975 40.930,21.695 40.603,19.330 40.582 C 17.297 40.563,16.655 40.502,16.330 40.296 C 16.103 40.152,15.746 39.984,15.536 39.921 C 15.028 39.769,14.305 39.037,14.527 38.900 C 14.622 38.841,15.198 38.839,15.808 38.895 C 16.418 38.951,17.704 39.038,18.667 39.088 C 19.629 39.137,20.942 39.250,21.583 39.337 C 22.225 39.425,23.837 39.572,25.167 39.664 C 26.496 39.756,28.671 40.022,30.000 40.255 C 31.329 40.489,33.579 40.818,35.000 40.988 C 36.421 41.158,37.803 41.383,38.070 41.488 C 38.338 41.594,38.658 41.642,38.781 41.595 C 39.397 41.358,41.833 44.924,41.833 46.063 C 41.833 48.173,38.574 49.429,35.083 48.664 C 34.167 48.463,33.042 48.234,32.583 48.155 C 31.558 47.979,28.122 46.876,27.748 46.603 C 27.520 46.436,27.508 46.332,27.674 45.967 C 27.835 45.613,27.824 45.433,27.617 45.017 C 27.476 44.734,27.308 44.259,27.244 43.960 C 27.180 43.661,27.027 43.229,26.903 43.000 C 26.779 42.771,26.566 42.302,26.430 41.958 C 26.211 41.402,26.123 41.336,25.634 41.358 L 25.083 41.383 25.583 41.457 C 26.195 41.547,26.281 41.678,26.425 42.742 C 26.487 43.205,26.607 43.714,26.690 43.873 C 26.774 44.032,26.905 44.496,26.981 44.905 C 27.191 46.028,27.083 46.032,24.750 44.983 C 24.383 44.818,23.633 44.521,23.083 44.322 C 22.533 44.124,21.835 43.857,21.531 43.729 C 17.626 42.080,14.279 44.461,16.355 47.412 C 16.673 47.864,17.379 48.556,17.925 48.951 C 19.568 50.138,21.371 51.333,21.520 51.333 C 21.597 51.333,22.055 51.580,22.538 51.882 C 23.021 52.184,23.604 52.523,23.833 52.635 C 24.063 52.748,24.550 53.022,24.917 53.245 C 25.283 53.467,25.771 53.733,26.000 53.835 C 26.639 54.119,27.991 54.811,28.917 55.329 C 29.375 55.585,30.350 56.109,31.083 56.494 C 31.817 56.879,32.533 57.298,32.674 57.426 C 32.816 57.553,33.304 57.853,33.758 58.093 C 34.212 58.333,34.733 58.658,34.917 58.816 C 35.100 58.974,35.438 59.193,35.667 59.303 C 35.896 59.413,36.346 59.663,36.667 59.858 C 37.840 60.572,38.639 60.992,39.270 61.227 C 39.626 61.359,40.442 61.666,41.083 61.908 C 42.128 62.303,42.604 62.366,45.643 62.508 C 50.851 62.753,51.436 63.017,56.083 67.227 C 58.228 69.169,58.375 69.223,59.944 68.635 C 62.840 67.550,64.920 65.550,66.532 62.300 C 67.920 59.499,68.188 59.995,62.234 54.328 C 58.408 50.685,55.655 47.501,54.674 45.583 C 54.308 44.867,51.330 40.922,50.375 39.889 C 50.169 39.665,50.000 39.423,50.000 39.349 C 50.000 38.873,44.561 33.869,43.406 33.283 C 42.756 32.953,41.203 32.825,39.917 32.995 M23.877 41.286 C 24.131 41.325,24.506 41.324,24.711 41.284 C 24.916 41.244,24.708 41.213,24.250 41.214 C 23.792 41.216,23.624 41.248,23.877 41.286 M17.227 45.107 C 17.528 47.296,19.974 49.603,23.480 51.002 C 24.248 51.308,25.485 51.931,26.229 52.385 C 28.807 53.956,31.722 55.476,33.963 56.416 C 34.969 56.838,36.345 57.526,37.021 57.945 C 40.892 60.345,42.368 60.819,47.583 61.335 C 51.052 61.679,52.128 61.902,53.417 62.545 C 55.357 63.512,59.121 66.333,59.864 67.377 L 60.213 67.867 59.732 68.261 C 58.833 68.996,58.035 68.701,56.250 66.973 C 54.347 65.131,51.507 63.060,50.651 62.889 C 50.389 62.836,50.088 62.690,49.983 62.563 C 49.833 62.382,49.113 62.334,46.605 62.336 C 43.237 62.338,42.060 62.143,40.467 61.319 C 40.128 61.144,39.736 61.000,39.597 61.000 C 39.236 61.000,35.385 58.951,34.974 58.541 C 34.860 58.427,34.669 58.333,34.550 58.333 C 34.431 58.333,34.333 58.255,34.333 58.158 C 34.333 58.062,34.052 57.866,33.708 57.723 C 33.365 57.580,33.046 57.415,33.000 57.356 C 32.791 57.088,31.538 56.333,31.303 56.333 C 31.159 56.333,30.950 56.224,30.839 56.090 C 30.728 55.956,30.486 55.798,30.302 55.740 C 30.118 55.682,29.824 55.491,29.650 55.317 C 29.476 55.143,29.214 55.000,29.068 55.000 C 28.922 55.000,28.612 54.850,28.379 54.667 C 28.146 54.483,27.824 54.333,27.665 54.333 C 27.505 54.333,27.288 54.230,27.183 54.103 C 27.078 53.977,26.763 53.828,26.483 53.772 C 26.202 53.715,25.781 53.519,25.547 53.335 C 25.313 53.151,25.027 53.000,24.912 53.000 C 24.797 53.000,24.659 52.887,24.606 52.750 C 24.554 52.612,24.357 52.500,24.170 52.500 C 23.983 52.500,23.702 52.350,23.545 52.167 C 23.388 51.983,23.167 51.833,23.055 51.833 C 22.942 51.833,22.648 51.646,22.401 51.417 C 22.154 51.188,21.783 51.000,21.577 51.000 C 21.371 51.000,21.159 50.887,21.106 50.750 C 21.054 50.612,20.896 50.500,20.755 50.500 C 20.615 50.500,20.367 50.369,20.205 50.208 C 20.042 50.048,19.350 49.542,18.667 49.083 C 16.088 47.354,15.354 45.942,16.458 44.836 C 17.080 44.213,17.106 44.222,17.227 45.107 M22.167 44.500 C 22.167 44.698,21.877 44.698,21.417 44.500 C 21.137 44.380,21.171 44.355,21.625 44.345 C 21.923 44.339,22.167 44.408,22.167 44.500 M24.014 45.154 C 23.885 45.236,23.631 45.275,23.450 45.240 C 22.855 45.126,22.933 45.000,23.597 45.003 C 24.047 45.004,24.177 45.052,24.014 45.154 " stroke="none" fill="#f4b60c" fill-rule="evenodd"></path><path id="path3" d="M14.476 38.910 C 14.325 39.065,15.080 39.785,15.536 39.921 C 15.746 39.984,16.101 40.151,16.327 40.294 C 16.648 40.497,17.317 40.560,19.410 40.584 C 21.332 40.606,22.294 40.688,22.833 40.875 C 23.246 41.018,24.171 41.187,24.890 41.250 L 26.197 41.365 26.437 41.974 C 26.569 42.309,26.779 42.771,26.903 43.000 C 27.027 43.229,27.180 43.661,27.244 43.960 C 27.308 44.259,27.476 44.734,27.617 45.017 C 27.824 45.433,27.835 45.613,27.674 45.967 C 27.508 46.332,27.520 46.436,27.748 46.603 C 28.122 46.876,31.558 47.979,32.583 48.155 C 33.042 48.234,34.167 48.463,35.083 48.664 C 38.574 49.429,41.833 48.173,41.833 46.063 C 41.833 44.924,39.397 41.358,38.781 41.595 C 38.658 41.642,38.338 41.594,38.070 41.488 C 37.803 41.383,36.421 41.158,35.000 40.988 C 33.579 40.818,31.329 40.489,30.000 40.255 C 28.671 40.022,26.496 39.756,25.167 39.664 C 23.837 39.572,22.225 39.425,21.583 39.338 C 20.942 39.250,19.667 39.139,18.750 39.091 C 17.833 39.042,16.521 38.957,15.833 38.901 C 15.146 38.846,14.535 38.850,14.476 38.910 M16.458 44.836 C 15.354 45.942,16.088 47.354,18.667 49.083 C 19.350 49.542,20.042 50.048,20.205 50.208 C 20.367 50.369,20.615 50.500,20.755 50.500 C 20.896 50.500,21.054 50.612,21.106 50.750 C 21.159 50.887,21.371 51.000,21.577 51.000 C 21.783 51.000,22.154 51.188,22.401 51.417 C 22.648 51.646,22.942 51.833,23.055 51.833 C 23.167 51.833,23.388 51.983,23.545 52.167 C 23.702 52.350,23.983 52.500,24.170 52.500 C 24.357 52.500,24.554 52.612,24.606 52.750 C 24.659 52.887,24.797 53.000,24.912 53.000 C 25.027 53.000,25.313 53.151,25.547 53.335 C 25.781 53.519,26.202 53.715,26.483 53.772 C 26.763 53.828,27.078 53.977,27.183 54.103 C 27.288 54.230,27.505 54.333,27.665 54.333 C 27.824 54.333,28.146 54.483,28.379 54.667 C 28.612 54.850,28.922 55.000,29.068 55.000 C 29.214 55.000,29.476 55.143,29.650 55.317 C 29.824 55.491,30.118 55.682,30.302 55.740 C 30.486 55.798,30.728 55.956,30.839 56.090 C 30.950 56.224,31.159 56.333,31.303 56.333 C 31.538 56.333,32.791 57.088,33.000 57.356 C 33.046 57.415,33.365 57.580,33.708 57.723 C 34.052 57.866,34.333 58.062,34.333 58.158 C 34.333 58.255,34.431 58.333,34.550 58.333 C 34.669 58.333,34.860 58.427,34.974 58.541 C 35.385 58.951,39.236 61.000,39.597 61.000 C 39.736 61.000,40.128 61.144,40.467 61.319 C 42.060 62.143,43.237 62.338,46.605 62.336 C 49.113 62.334,49.833 62.382,49.983 62.563 C 50.088 62.690,50.389 62.836,50.651 62.889 C 51.507 63.060,54.347 65.131,56.250 66.973 C 58.035 68.701,58.833 68.996,59.732 68.261 L 60.213 67.867 59.864 67.377 C 59.121 66.333,55.357 63.512,53.417 62.545 C 52.128 61.902,51.052 61.679,47.583 61.335 C 42.368 60.819,40.892 60.345,37.021 57.945 C 36.345 57.526,34.969 56.838,33.963 56.416 C 31.722 55.476,28.807 53.956,26.229 52.385 C 25.485 51.931,24.248 51.308,23.480 51.002 C 19.974 49.603,17.528 47.296,17.227 45.107 C 17.106 44.222,17.080 44.213,16.458 44.836 M21.417 44.500 C 21.877 44.698,22.167 44.698,22.167 44.500 C 22.167 44.408,21.923 44.339,21.625 44.345 C 21.171 44.355,21.137 44.380,21.417 44.500 M23.033 45.089 C 23.207 45.262,23.782 45.301,24.014 45.154 C 24.177 45.052,24.047 45.004,23.597 45.003 C 23.238 45.001,22.984 45.040,23.033 45.089 " stroke="none" fill="#c26404" fill-rule="evenodd"></path><path id="path4" d="M208.125 24.847 C 207.696 25.096,207.668 66.901,208.097 67.066 C 208.760 67.320,218.636 67.173,218.905 66.905 C 219.367 66.443,219.297 25.464,218.833 25.000 C 218.454 24.620,208.752 24.481,208.125 24.847 M226.037 24.926 L 225.667 25.186 225.667 46.004 C 225.667 66.415,225.673 66.825,225.989 66.994 C 226.473 67.253,236.539 67.228,236.800 66.967 C 237.145 66.622,237.084 25.274,236.738 24.929 C 236.347 24.537,226.596 24.535,226.037 24.926 M329.095 24.929 C 328.749 25.274,328.688 66.622,329.033 66.967 C 329.319 67.253,339.681 67.253,339.967 66.967 C 340.120 66.813,340.167 61.924,340.167 45.976 L 340.167 25.186 339.796 24.926 C 339.238 24.535,329.487 24.537,329.095 24.929 M347.125 24.847 C 346.850 25.007,346.833 26.192,346.833 46.005 L 346.833 66.994 347.208 67.085 C 347.415 67.135,349.908 67.156,352.750 67.130 L 357.917 67.083 357.961 63.011 L 358.006 58.938 358.461 58.474 C 358.712 58.218,359.010 58.007,359.125 58.005 C 359.240 58.002,359.333 57.939,359.333 57.865 C 359.333 57.631,360.857 56.647,361.137 56.701 C 361.284 56.729,361.520 56.977,361.661 57.251 C 361.802 57.526,361.970 57.790,362.035 57.839 C 362.100 57.888,362.387 58.366,362.673 58.901 C 362.958 59.437,363.262 59.959,363.348 60.062 C 363.646 60.419,364.333 61.515,364.334 61.632 C 364.334 61.697,364.616 62.163,364.961 62.667 C 365.307 63.171,365.682 63.771,365.796 64.000 C 365.910 64.229,366.150 64.642,366.330 64.917 C 366.510 65.192,366.775 65.627,366.921 65.884 C 367.066 66.141,367.344 66.535,367.539 66.759 L 367.893 67.167 373.843 67.167 C 381.036 67.167,380.620 67.333,379.120 65.050 C 378.529 64.152,377.921 63.173,377.769 62.875 C 377.616 62.577,377.418 62.333,377.329 62.333 C 377.240 62.333,377.167 62.236,377.167 62.117 C 377.167 61.998,377.054 61.755,376.917 61.576 C 376.452 60.970,375.833 59.986,375.833 59.852 C 375.833 59.778,375.683 59.583,375.500 59.417 C 375.317 59.251,375.167 59.049,375.167 58.967 C 375.167 58.886,375.028 58.617,374.859 58.368 C 374.690 58.120,374.334 57.579,374.068 57.167 C 373.801 56.754,373.490 56.318,373.375 56.196 C 373.260 56.075,373.167 55.881,373.167 55.764 C 373.167 55.647,373.017 55.416,372.833 55.250 C 372.650 55.084,372.500 54.888,372.500 54.814 C 372.500 54.740,372.087 54.074,371.583 53.333 C 371.079 52.593,370.667 51.919,370.667 51.835 C 370.667 51.752,370.479 51.482,370.250 51.234 C 370.021 50.987,369.833 50.714,369.833 50.627 C 369.833 50.540,369.682 50.277,369.497 50.042 C 369.179 49.637,369.180 49.054,369.499 48.833 C 369.689 48.702,371.333 46.691,371.333 46.591 C 371.333 46.541,371.465 46.357,371.625 46.181 C 371.785 46.006,372.179 45.550,372.500 45.167 C 372.821 44.784,373.196 44.341,373.333 44.183 C 373.552 43.931,374.412 42.847,374.912 42.193 C 375.006 42.069,375.236 41.807,375.422 41.609 C 376.066 40.928,378.957 37.249,379.166 36.847 C 379.583 36.044,379.282 36.000,373.426 36.002 C 367.144 36.005,367.583 35.927,366.545 37.223 C 363.026 41.614,361.000 44.178,361.000 44.240 C 361.000 44.280,360.772 44.561,360.493 44.865 C 360.214 45.168,359.748 45.792,359.457 46.250 C 359.166 46.708,358.840 47.139,358.733 47.206 C 358.625 47.274,358.490 47.518,358.432 47.748 C 358.374 47.978,358.218 48.167,358.085 48.167 C 357.952 48.167,357.772 48.410,357.686 48.708 L 357.530 49.250 357.515 48.633 C 357.507 48.294,357.613 47.584,357.750 47.056 C 358.082 45.781,358.129 25.195,357.800 24.867 C 357.542 24.608,347.567 24.590,347.125 24.847 M218.300 25.200 C 218.453 25.353,218.500 30.226,218.500 46.117 L 218.500 66.833 213.417 66.833 L 208.333 66.833 208.333 46.092 C 208.333 26.513,208.350 25.340,208.625 25.180 C 209.065 24.924,218.042 24.942,218.300 25.200 M236.072 25.163 L 236.500 25.325 236.500 46.079 L 236.500 66.833 231.417 66.833 L 226.333 66.833 226.333 46.014 C 226.333 29.514,226.377 25.177,226.542 25.110 C 226.936 24.951,235.642 24.999,236.072 25.163 M339.236 25.101 C 339.475 25.193,339.500 27.191,339.500 46.020 L 339.500 66.838 334.458 66.794 L 329.417 66.750 329.374 46.037 L 329.332 25.323 329.708 25.172 C 330.124 25.005,338.817 24.940,339.236 25.101 M357.146 25.104 L 357.667 25.208 357.663 33.896 C 357.661 40.278,357.596 43.202,357.418 44.917 C 356.994 49.012,357.168 50.437,357.943 49.219 C 358.108 48.961,358.290 48.712,358.348 48.667 C 358.406 48.621,358.595 48.330,358.768 48.020 C 359.244 47.168,359.397 46.927,359.628 46.661 C 359.966 46.271,362.550 42.946,362.917 42.429 C 363.100 42.171,363.369 41.837,363.513 41.688 C 363.775 41.419,365.762 38.934,366.302 38.201 C 366.457 37.991,366.871 37.522,367.222 37.160 L 367.860 36.500 373.263 36.500 C 376.235 36.500,378.667 36.538,378.667 36.584 C 378.667 36.741,378.012 37.889,377.867 37.987 C 377.788 38.040,376.937 39.058,375.977 40.250 C 375.016 41.442,373.954 42.717,373.616 43.083 C 373.278 43.450,373.001 43.802,373.001 43.866 C 373.000 43.930,372.814 44.193,372.586 44.450 C 368.998 48.496,368.286 49.853,369.323 50.667 C 369.381 50.712,369.669 51.125,369.963 51.583 C 370.256 52.042,370.610 52.563,370.748 52.742 C 370.887 52.921,371.000 53.153,371.000 53.258 C 371.000 53.363,371.150 53.584,371.333 53.750 C 371.517 53.916,371.667 54.112,371.667 54.185 C 371.667 54.302,372.266 55.283,372.623 55.750 C 372.693 55.842,372.968 56.254,373.234 56.667 C 373.501 57.079,373.857 57.620,374.026 57.868 C 374.195 58.117,374.333 58.361,374.333 58.412 C 374.333 58.462,374.582 58.859,374.887 59.293 C 375.191 59.728,375.656 60.458,375.920 60.917 C 376.184 61.375,376.498 61.810,376.617 61.883 C 376.736 61.957,376.833 62.083,376.833 62.164 C 376.833 62.402,377.870 64.000,378.025 64.000 C 378.103 64.000,378.167 64.138,378.167 64.308 C 378.167 64.477,378.317 64.751,378.500 64.917 C 378.683 65.083,378.833 65.289,378.833 65.375 C 378.833 65.460,378.983 65.721,379.167 65.955 C 379.871 66.850,379.975 66.833,373.762 66.833 L 368.024 66.833 367.503 65.958 C 367.216 65.477,366.766 64.746,366.503 64.333 C 366.240 63.921,365.828 63.220,365.586 62.776 C 365.345 62.332,364.889 61.602,364.574 61.153 C 364.258 60.704,364.000 60.261,364.000 60.168 C 364.000 60.076,363.869 59.868,363.708 59.706 C 363.548 59.544,363.319 59.226,363.200 58.998 C 361.527 55.805,361.362 55.714,359.633 57.042 C 357.444 58.722,357.667 58.076,357.667 62.756 L 357.667 66.833 352.500 66.833 L 347.333 66.833 347.333 46.117 C 347.333 30.226,347.380 25.353,347.533 25.200 C 347.748 24.985,356.132 24.901,357.146 25.104 M96.417 26.834 C 95.500 26.908,94.450 27.086,94.083 27.227 C 93.717 27.369,93.285 27.489,93.124 27.493 C 92.964 27.497,92.552 27.650,92.210 27.833 C 91.868 28.017,91.461 28.167,91.306 28.167 C 91.151 28.167,90.925 28.264,90.804 28.382 C 90.682 28.500,90.340 28.697,90.042 28.819 C 89.744 28.941,89.500 29.101,89.500 29.176 C 89.500 29.250,89.355 29.357,89.177 29.413 C 88.848 29.518,86.667 31.529,86.667 31.728 C 86.667 31.788,86.402 32.214,86.078 32.674 C 85.754 33.135,85.442 33.753,85.385 34.048 C 85.327 34.342,85.161 34.768,85.015 34.993 C 84.623 35.599,84.624 41.572,85.017 42.174 C 85.163 42.399,85.334 42.857,85.396 43.192 C 85.458 43.526,85.619 43.892,85.754 44.004 C 85.889 44.116,86.000 44.288,86.000 44.386 C 86.000 44.889,88.913 48.167,89.360 48.167 C 89.556 48.167,90.544 48.857,90.706 49.106 C 90.774 49.211,91.030 49.347,91.276 49.408 C 91.522 49.470,91.908 49.666,92.134 49.844 C 92.360 50.021,92.654 50.167,92.788 50.167 C 92.921 50.167,93.221 50.317,93.455 50.500 C 93.688 50.683,94.009 50.833,94.169 50.833 C 94.328 50.833,94.551 50.944,94.663 51.079 C 94.775 51.214,95.122 51.372,95.433 51.431 C 95.745 51.489,96.000 51.598,96.000 51.672 C 96.000 51.747,96.281 51.898,96.625 52.008 C 96.969 52.119,97.362 52.306,97.500 52.425 C 97.638 52.544,97.957 52.692,98.210 52.755 C 98.463 52.819,98.712 52.938,98.763 53.021 C 98.814 53.104,99.095 53.272,99.386 53.394 C 101.665 54.350,101.855 56.770,99.757 58.103 C 98.996 58.587,93.822 58.528,92.352 58.020 C 91.791 57.826,91.153 57.667,90.934 57.667 C 90.715 57.667,90.209 57.518,89.810 57.337 C 89.410 57.156,88.914 57.006,88.708 57.004 C 88.501 57.002,88.052 56.850,87.710 56.667 C 87.368 56.483,86.981 56.333,86.849 56.333 C 86.717 56.333,86.475 56.212,86.312 56.064 C 85.901 55.692,84.513 55.545,84.319 55.851 C 84.238 55.979,84.171 58.049,84.169 60.452 L 84.167 64.820 84.625 65.249 C 84.877 65.485,85.400 65.759,85.787 65.858 C 86.173 65.956,86.576 66.141,86.682 66.269 C 86.788 66.396,87.071 66.503,87.312 66.506 C 87.553 66.509,88.050 66.656,88.417 66.833 C 88.783 67.010,89.346 67.159,89.667 67.163 C 89.987 67.167,90.850 67.319,91.583 67.500 C 93.020 67.855,97.997 67.960,99.750 67.672 C 101.302 67.417,102.948 67.007,103.434 66.754 C 103.699 66.615,104.113 66.502,104.353 66.501 C 104.592 66.500,104.968 66.369,105.188 66.208 C 105.754 65.795,106.186 65.525,106.667 65.287 C 107.576 64.834,108.457 64.175,108.971 63.561 C 109.268 63.207,109.771 62.646,110.089 62.316 C 110.407 61.986,110.667 61.641,110.667 61.550 C 110.667 61.459,110.817 61.211,111.000 61.000 C 111.183 60.789,111.333 60.494,111.333 60.345 C 111.333 60.196,111.460 59.893,111.616 59.671 C 111.771 59.450,111.997 58.777,112.118 58.176 C 112.630 55.637,112.692 55.014,112.526 54.047 C 112.049 51.253,111.920 50.717,111.639 50.353 C 111.471 50.134,111.333 49.824,111.333 49.665 C 111.333 49.505,111.224 49.283,111.090 49.172 C 110.956 49.061,110.795 48.808,110.733 48.610 C 110.671 48.412,110.462 48.096,110.269 47.908 C 110.075 47.719,109.718 47.344,109.476 47.074 C 108.854 46.381,108.070 45.755,107.371 45.393 C 107.041 45.223,106.635 44.952,106.469 44.792 C 106.303 44.631,106.085 44.500,105.985 44.500 C 105.884 44.500,105.612 44.350,105.379 44.167 C 105.146 43.983,104.824 43.833,104.665 43.833 C 104.505 43.833,104.285 43.726,104.176 43.594 C 104.066 43.462,103.762 43.308,103.500 43.250 C 103.238 43.192,102.938 43.042,102.833 42.917 C 102.729 42.791,102.405 42.637,102.113 42.575 C 101.822 42.514,101.471 42.368,101.333 42.251 C 101.196 42.135,100.896 41.984,100.667 41.917 C 100.438 41.849,100.138 41.699,100.000 41.583 C 99.862 41.468,99.563 41.316,99.333 41.247 C 99.104 41.178,98.738 40.981,98.519 40.810 C 98.301 40.640,98.049 40.500,97.960 40.500 C 97.650 40.500,96.470 39.446,96.070 38.812 C 95.584 38.043,95.571 37.716,96.000 37.167 C 96.179 36.938,96.328 36.656,96.330 36.542 C 96.332 36.427,96.465 36.333,96.625 36.332 C 96.785 36.332,97.142 36.182,97.417 36.000 C 98.130 35.527,100.854 35.527,102.333 36.000 C 102.907 36.183,103.613 36.333,103.901 36.333 C 104.190 36.333,104.578 36.440,104.763 36.570 C 104.949 36.699,105.379 36.858,105.719 36.922 C 106.059 36.986,106.614 37.179,106.954 37.352 C 107.293 37.525,107.670 37.667,107.791 37.667 C 107.912 37.667,108.197 37.788,108.423 37.936 C 108.889 38.242,109.234 38.076,109.432 37.451 C 109.494 37.257,109.647 36.996,109.772 36.871 C 109.897 36.745,110.000 36.479,110.001 36.280 C 110.002 36.080,110.151 35.692,110.333 35.417 C 110.515 35.142,110.665 34.803,110.666 34.664 C 110.666 34.525,110.817 34.132,111.000 33.790 C 111.183 33.448,111.334 33.036,111.334 32.876 C 111.335 32.715,111.485 32.358,111.667 32.083 C 111.849 31.808,111.999 31.471,112.000 31.333 C 112.001 31.196,112.114 30.869,112.251 30.606 C 112.686 29.772,112.059 29.033,110.669 28.744 C 110.350 28.677,109.937 28.529,109.752 28.414 C 109.568 28.298,109.139 28.155,108.799 28.096 C 108.459 28.036,107.971 27.878,107.715 27.745 C 107.459 27.611,107.054 27.502,106.813 27.501 C 106.573 27.500,105.929 27.357,105.381 27.182 C 104.202 26.805,99.164 26.609,96.417 26.834 M103.749 27.333 C 104.005 27.430,104.782 27.589,105.476 27.685 C 106.169 27.782,106.942 27.967,107.193 28.097 C 107.444 28.227,107.861 28.333,108.119 28.333 C 108.377 28.333,108.850 28.472,109.169 28.641 C 109.489 28.810,109.982 28.993,110.267 29.048 C 111.809 29.347,112.309 30.419,111.411 31.500 C 111.297 31.637,111.154 31.986,111.092 32.275 C 111.031 32.564,110.835 33.086,110.657 33.436 C 110.479 33.785,110.333 34.195,110.333 34.348 C 110.333 34.501,110.230 34.712,110.103 34.817 C 109.977 34.922,109.832 35.212,109.781 35.462 C 109.395 37.356,108.704 37.809,107.333 37.064 C 104.442 35.494,98.159 34.770,96.667 35.834 C 96.346 36.063,96.055 36.315,96.021 36.394 C 95.987 36.473,95.819 36.659,95.646 36.806 C 94.629 37.677,95.853 40.004,97.833 40.963 C 98.063 41.074,98.362 41.232,98.500 41.314 C 98.638 41.397,98.938 41.547,99.167 41.648 C 99.396 41.748,99.696 41.902,99.833 41.989 C 99.971 42.077,100.646 42.406,101.333 42.722 C 109.024 46.257,111.412 48.586,111.875 53.000 C 112.151 55.620,111.928 58.229,111.349 59.179 C 111.158 59.493,111.001 59.872,111.001 60.021 C 111.000 60.170,110.895 60.380,110.766 60.486 C 110.638 60.593,110.488 60.860,110.432 61.080 C 110.334 61.473,107.737 64.333,107.479 64.333 C 107.364 64.333,106.379 64.936,105.917 65.289 C 105.526 65.588,104.154 66.154,103.560 66.261 C 103.206 66.325,102.702 66.487,102.439 66.620 C 102.176 66.753,101.238 66.929,100.355 67.010 C 99.472 67.092,98.259 67.245,97.659 67.350 C 96.840 67.494,96.116 67.494,94.743 67.350 C 93.738 67.245,92.171 67.083,91.260 66.990 C 90.349 66.897,89.518 66.751,89.415 66.665 C 89.312 66.580,88.845 66.427,88.378 66.327 C 87.910 66.227,87.243 66.000,86.895 65.823 C 86.548 65.645,86.159 65.500,86.032 65.500 C 85.905 65.500,85.584 65.345,85.317 65.155 L 84.833 64.811 84.833 60.498 C 84.833 55.808,84.831 55.819,85.781 56.329 C 86.128 56.515,86.507 56.667,86.623 56.667 C 86.739 56.667,87.114 56.817,87.456 57.000 C 87.799 57.183,88.232 57.333,88.419 57.333 C 88.606 57.333,88.907 57.436,89.088 57.562 C 89.269 57.688,89.679 57.844,90.000 57.908 C 90.321 57.973,90.883 58.129,91.250 58.256 C 96.776 60.168,102.028 58.747,101.578 55.461 C 101.431 54.390,99.531 52.500,98.601 52.500 C 98.478 52.500,98.188 52.350,97.955 52.167 C 97.721 51.983,97.445 51.833,97.340 51.833 C 97.235 51.833,96.872 51.687,96.533 51.509 C 96.194 51.330,94.942 50.712,93.750 50.135 C 88.823 47.749,86.352 45.359,85.513 42.167 C 85.022 40.299,84.969 39.853,85.034 38.107 C 85.167 34.479,87.007 31.064,89.626 29.582 C 89.878 29.440,90.308 29.177,90.583 28.997 C 91.246 28.566,91.791 28.333,92.140 28.333 C 92.297 28.333,92.585 28.222,92.781 28.085 C 92.976 27.948,93.627 27.767,94.229 27.682 C 94.830 27.596,95.417 27.468,95.533 27.396 C 96.162 27.007,102.759 26.957,103.749 27.333 M259.838 27.186 C 259.611 27.276,259.369 27.440,259.299 27.550 C 259.076 27.900,259.139 35.906,259.367 36.133 C 259.513 36.279,260.819 36.333,264.200 36.333 L 268.833 36.333 268.833 51.428 C 268.833 61.514,268.891 66.629,269.006 66.844 C 269.218 67.241,279.576 67.357,279.967 66.967 C 280.119 66.814,280.167 63.181,280.167 51.633 C 280.167 43.310,280.185 36.484,280.208 36.465 C 280.231 36.446,282.350 36.389,284.917 36.340 L 289.583 36.250 289.628 31.933 C 289.667 28.092,289.642 27.582,289.394 27.308 C 289.073 26.954,260.713 26.836,259.838 27.186 M289.295 31.875 L 289.339 36.000 284.930 36.000 C 282.475 36.000,280.333 36.072,280.095 36.162 L 279.668 36.324 279.626 51.537 L 279.583 66.750 274.458 66.794 L 269.333 66.838 269.331 51.711 C 269.329 42.482,269.267 36.486,269.170 36.333 C 269.038 36.124,268.254 36.070,264.381 36.000 L 259.750 35.917 259.705 31.928 C 259.671 28.849,259.709 27.909,259.872 27.805 C 259.988 27.731,266.646 27.689,274.667 27.710 L 289.250 27.750 289.295 31.875 M134.417 35.762 C 133.958 35.889,133.395 35.995,133.164 35.997 C 132.934 35.999,132.465 36.150,132.123 36.333 C 131.781 36.517,131.429 36.667,131.341 36.667 C 131.201 36.667,130.934 36.827,129.609 37.711 C 129.062 38.076,128.899 38.237,128.257 39.042 C 127.538 39.944,127.167 40.057,127.167 39.373 C 127.167 39.119,127.017 38.632,126.833 38.290 C 126.650 37.948,126.500 37.512,126.500 37.321 C 126.500 37.130,126.281 36.755,126.013 36.487 L 125.526 36.000 121.783 36.000 C 118.833 36.000,118.001 36.048,117.853 36.226 C 117.716 36.392,117.676 40.591,117.707 51.768 L 117.750 67.083 122.980 67.127 C 126.700 67.159,128.276 67.117,128.438 66.982 C 128.625 66.827,128.667 65.514,128.667 59.783 C 128.667 52.433,128.941 48.067,129.438 47.489 C 129.562 47.346,129.709 46.997,129.765 46.715 C 130.077 45.156,132.519 43.996,134.080 44.665 C 136.205 45.576,136.333 46.358,136.333 58.426 C 136.333 64.705,136.382 66.669,136.542 66.887 C 136.732 67.147,137.217 67.168,142.083 67.128 L 147.417 67.083 147.504 58.333 C 147.581 50.571,147.624 49.501,147.879 48.854 C 148.037 48.453,148.167 47.977,148.167 47.796 C 148.167 45.990,151.205 43.839,152.731 44.563 C 153.044 44.712,153.352 44.833,153.415 44.833 C 153.622 44.833,154.500 45.744,154.500 45.958 C 154.500 46.074,154.650 46.448,154.833 46.790 C 155.156 47.391,155.167 47.730,155.167 57.027 C 155.167 65.546,155.197 66.673,155.429 66.905 C 155.718 67.194,165.854 67.307,166.297 67.026 C 166.591 66.840,166.514 44.682,166.217 43.917 C 166.111 43.642,165.951 43.042,165.862 42.583 C 165.576 41.110,165.014 39.903,164.208 39.034 C 164.094 38.911,164.000 38.746,164.000 38.669 C 164.000 38.592,163.606 38.223,163.125 37.849 C 162.644 37.475,162.163 37.097,162.056 37.008 C 161.949 36.919,161.649 36.796,161.389 36.734 C 161.129 36.673,160.793 36.515,160.642 36.384 C 160.491 36.253,159.929 36.083,159.392 36.005 C 158.856 35.927,158.206 35.782,157.947 35.682 C 157.259 35.415,154.396 35.459,153.432 35.752 C 152.982 35.888,152.428 36.000,152.200 36.000 C 151.831 36.000,150.678 36.449,150.000 36.856 C 149.862 36.939,149.519 37.113,149.236 37.244 C 148.954 37.374,148.288 37.909,147.756 38.432 C 146.591 39.578,146.086 39.659,145.374 38.813 C 144.668 37.974,144.130 37.502,143.583 37.243 C 143.308 37.113,142.971 36.935,142.833 36.848 C 141.177 35.797,136.471 35.190,134.417 35.762 M184.667 35.689 C 184.346 35.775,183.314 35.908,182.375 35.986 C 181.435 36.063,180.561 36.214,180.433 36.320 C 180.305 36.426,179.750 36.586,179.201 36.674 C 178.651 36.763,177.987 36.947,177.726 37.083 C 177.464 37.220,177.159 37.332,177.047 37.332 C 176.874 37.333,176.145 37.652,175.167 38.155 C 174.775 38.357,174.778 39.096,175.174 39.959 C 175.373 40.394,175.668 41.050,175.829 41.417 C 177.805 45.921,177.920 46.037,179.544 45.167 C 179.886 44.983,180.337 44.833,180.546 44.833 C 180.755 44.833,181.092 44.717,181.296 44.574 C 181.499 44.432,182.132 44.240,182.702 44.148 C 183.272 44.056,183.837 43.900,183.956 43.800 C 184.498 43.351,187.239 43.427,188.209 43.918 C 189.212 44.426,190.000 45.615,190.000 46.620 L 190.000 47.124 187.125 47.247 C 185.544 47.314,183.762 47.472,183.167 47.598 C 182.571 47.724,181.783 47.829,181.417 47.830 C 180.650 47.833,178.569 48.383,177.565 48.849 C 177.188 49.024,176.806 49.167,176.716 49.167 C 176.625 49.167,176.378 49.317,176.167 49.500 C 175.955 49.683,175.692 49.833,175.582 49.833 C 175.472 49.833,175.195 50.002,174.967 50.208 C 173.815 51.250,173.554 51.504,173.208 51.915 C 173.002 52.161,172.833 52.437,172.833 52.530 C 172.833 52.622,172.683 52.888,172.500 53.121 C 172.317 53.354,172.167 53.689,172.167 53.864 C 172.167 54.040,172.047 54.414,171.901 54.697 C 171.519 55.437,171.520 60.234,171.904 60.975 C 172.048 61.255,172.172 61.656,172.178 61.867 C 172.188 62.223,172.544 62.913,173.453 64.338 C 173.656 64.656,174.096 65.142,174.430 65.417 C 174.764 65.692,175.191 66.048,175.378 66.208 C 175.565 66.369,175.788 66.500,175.874 66.500 C 175.960 66.500,176.221 66.650,176.455 66.833 C 176.688 67.017,177.037 67.167,177.231 67.168 C 177.425 67.168,177.808 67.296,178.083 67.451 C 178.925 67.926,183.290 67.969,184.583 67.514 C 185.127 67.323,185.744 67.167,185.955 67.167 C 186.166 67.167,186.755 66.923,187.263 66.625 C 187.772 66.327,188.317 66.008,188.475 65.917 C 188.633 65.825,188.891 65.637,189.047 65.500 C 189.789 64.850,190.333 64.324,190.333 64.256 C 190.333 64.040,191.241 63.307,191.298 63.477 C 191.334 63.585,191.459 63.769,191.576 63.886 C 191.693 64.003,191.847 64.283,191.918 64.508 C 191.988 64.733,192.186 65.096,192.356 65.314 C 192.527 65.533,192.669 65.833,192.673 65.981 C 192.676 66.129,192.849 66.458,193.057 66.712 L 193.434 67.173 197.176 67.128 L 200.917 67.083 200.963 57.000 C 201.011 46.499,200.898 43.470,200.434 42.807 C 200.287 42.598,200.167 42.299,200.167 42.145 C 200.167 41.017,196.730 37.167,195.723 37.167 C 195.600 37.167,195.500 37.098,195.500 37.013 C 195.500 36.929,195.256 36.806,194.958 36.741 C 194.660 36.676,194.155 36.482,193.836 36.311 C 193.516 36.140,192.991 35.999,192.669 35.998 C 192.347 35.997,191.715 35.885,191.265 35.748 C 190.333 35.466,185.665 35.424,184.667 35.689 M305.333 35.757 C 304.829 35.883,303.967 35.992,303.417 36.000 C 302.867 36.008,302.117 36.131,301.750 36.272 C 301.383 36.414,300.646 36.598,300.112 36.681 C 299.578 36.764,298.980 36.945,298.784 37.083 C 298.587 37.221,298.289 37.333,298.121 37.333 C 297.953 37.333,297.539 37.480,297.200 37.658 C 296.861 37.837,296.452 38.022,296.292 38.070 C 295.923 38.179,295.890 39.328,296.237 39.974 C 296.592 40.636,297.120 41.861,297.254 42.333 C 297.319 42.563,297.466 42.862,297.581 43.000 C 297.695 43.137,297.842 43.475,297.907 43.750 C 297.973 44.025,298.124 44.362,298.243 44.500 C 298.363 44.637,298.512 44.919,298.575 45.125 C 298.722 45.609,299.629 45.628,300.583 45.167 C 300.950 44.990,301.382 44.842,301.542 44.839 C 301.703 44.836,302.114 44.683,302.456 44.500 C 302.799 44.317,303.276 44.167,303.517 44.167 C 303.759 44.167,304.435 44.011,305.020 43.821 C 307.041 43.163,310.333 43.743,310.333 44.757 C 310.333 44.866,310.483 45.146,310.667 45.379 C 310.872 45.640,311.000 46.055,311.000 46.461 L 311.000 47.120 308.458 47.228 C 303.477 47.438,299.190 48.267,297.500 49.347 C 297.362 49.435,297.012 49.616,296.722 49.750 C 296.034 50.067,294.023 52.100,293.896 52.607 C 293.842 52.823,293.733 53.000,293.655 53.000 C 293.577 53.000,293.434 53.294,293.337 53.653 C 293.240 54.012,293.050 54.518,292.915 54.778 C 292.572 55.435,292.562 60.212,292.902 60.864 C 293.030 61.110,293.188 61.551,293.252 61.845 C 293.391 62.475,294.133 64.000,294.301 64.000 C 294.366 64.000,294.515 64.206,294.632 64.458 C 294.862 64.952,296.452 66.330,297.045 66.549 C 297.244 66.623,297.455 66.760,297.513 66.854 C 297.571 66.948,297.948 67.097,298.351 67.185 C 298.754 67.273,299.336 67.463,299.644 67.606 C 300.445 67.979,305.177 67.859,305.917 67.447 C 306.192 67.294,306.619 67.168,306.866 67.168 C 307.322 67.167,308.677 66.527,309.172 66.079 C 309.321 65.944,309.519 65.833,309.613 65.833 C 309.707 65.833,310.340 65.282,311.020 64.608 C 312.452 63.191,312.335 63.158,313.328 65.250 C 314.298 67.290,313.984 67.167,318.190 67.167 C 321.610 67.167,321.832 67.148,321.994 66.844 C 322.503 65.894,322.121 44.101,321.575 42.917 C 321.449 42.642,321.296 42.210,321.237 41.957 C 321.178 41.704,321.062 41.455,320.979 41.404 C 320.896 41.352,320.726 41.065,320.600 40.765 C 320.087 39.536,317.191 37.055,315.888 36.728 C 315.674 36.674,315.221 36.489,314.881 36.315 C 314.541 36.142,313.997 35.999,313.673 35.998 C 313.349 35.997,312.715 35.885,312.265 35.748 C 311.195 35.424,306.646 35.429,305.333 35.757 M139.235 36.254 C 139.960 36.308,140.708 36.460,140.897 36.593 C 141.086 36.725,141.393 36.834,141.579 36.836 C 141.765 36.837,142.104 36.945,142.333 37.076 C 142.563 37.206,142.975 37.421,143.250 37.552 C 143.525 37.684,144.261 38.288,144.885 38.896 C 145.509 39.503,146.116 40.000,146.234 40.000 C 146.653 40.000,147.422 39.494,147.816 38.959 C 148.208 38.426,149.465 37.500,149.795 37.500 C 149.888 37.500,150.004 37.397,150.052 37.271 C 150.101 37.145,150.425 36.989,150.773 36.923 C 151.121 36.858,151.606 36.701,151.852 36.574 C 152.979 35.991,158.677 35.990,159.816 36.572 C 160.055 36.694,160.489 36.845,160.780 36.907 C 161.072 36.970,161.400 37.129,161.509 37.261 C 161.618 37.392,161.807 37.500,161.928 37.500 C 162.289 37.500,164.222 39.564,164.600 40.352 C 165.909 43.082,166.039 44.708,165.968 57.500 L 165.917 66.750 160.917 66.750 L 155.917 66.750 155.822 57.833 C 155.758 51.845,155.658 48.506,155.517 47.667 C 154.697 42.795,149.386 42.730,147.720 47.571 L 147.257 48.917 147.198 57.875 L 147.139 66.833 142.070 66.833 L 137.000 66.833 136.987 58.708 C 136.973 50.170,136.899 48.617,136.419 46.803 C 135.453 43.150,131.060 42.943,129.385 46.472 C 128.357 48.637,128.186 50.458,128.176 59.375 L 128.167 66.833 123.082 66.833 L 117.998 66.833 118.041 51.708 L 118.083 36.583 121.713 36.538 L 125.343 36.493 125.734 36.915 C 125.949 37.147,126.175 37.617,126.236 37.960 C 126.630 40.152,127.560 40.684,128.636 39.332 C 129.319 38.475,130.095 37.818,130.792 37.508 C 130.998 37.417,131.167 37.273,131.167 37.189 C 131.167 37.106,131.445 36.985,131.786 36.921 C 132.126 36.857,132.616 36.696,132.874 36.562 C 133.392 36.294,135.992 36.015,137.167 36.101 C 137.579 36.131,138.510 36.200,139.235 36.254 M190.306 36.167 C 192.277 36.321,194.851 36.957,195.095 37.352 C 195.145 37.433,195.302 37.500,195.444 37.500 C 195.586 37.500,195.938 37.687,196.226 37.915 C 197.017 38.542,197.399 38.837,197.586 38.966 C 198.304 39.463,200.000 42.177,200.000 42.828 C 200.000 42.992,200.130 43.416,200.288 43.771 C 200.552 44.362,200.576 45.366,200.580 55.583 L 200.583 66.750 197.042 66.795 C 194.099 66.832,193.500 66.801,193.500 66.607 C 193.500 66.479,193.395 66.287,193.266 66.180 C 193.138 66.074,192.982 65.783,192.920 65.535 C 192.858 65.287,192.710 64.971,192.590 64.833 C 192.471 64.696,192.318 64.396,192.251 64.167 C 191.826 62.720,191.261 62.739,189.745 64.250 C 189.055 64.938,188.384 65.500,188.254 65.500 C 188.124 65.500,187.815 65.688,187.568 65.917 C 187.320 66.146,186.996 66.333,186.846 66.333 C 186.697 66.333,186.425 66.438,186.242 66.566 C 186.060 66.693,184.814 66.963,183.474 67.164 L 181.037 67.529 179.144 67.165 C 178.102 66.964,177.137 66.701,177.000 66.580 C 176.862 66.459,176.552 66.310,176.310 66.249 C 175.721 66.103,173.167 63.613,173.167 63.186 C 173.167 63.074,173.023 62.705,172.848 62.366 C 171.487 59.733,171.706 55.130,173.310 52.662 C 173.916 51.730,175.789 50.000,176.193 50.000 C 176.287 50.000,176.555 49.850,176.788 49.667 C 177.021 49.483,177.380 49.333,177.585 49.333 C 177.791 49.333,178.047 49.228,178.154 49.099 C 178.260 48.970,178.845 48.778,179.454 48.672 C 180.062 48.567,180.677 48.417,180.821 48.340 C 180.965 48.263,183.071 48.073,185.500 47.917 C 190.379 47.605,190.333 47.619,190.333 46.506 C 190.333 43.673,186.590 42.263,182.708 43.632 C 182.134 43.835,181.530 44.000,181.365 44.000 C 181.199 44.000,180.918 44.110,180.740 44.245 C 180.562 44.379,180.301 44.492,180.160 44.495 C 180.019 44.498,179.610 44.650,179.250 44.833 C 178.541 45.195,177.833 45.273,177.833 44.990 C 177.833 44.892,177.639 44.386,177.402 43.865 C 176.669 42.253,176.532 41.943,176.169 41.083 C 175.976 40.625,175.669 39.968,175.487 39.624 C 175.147 38.981,175.255 38.333,175.703 38.333 C 175.809 38.333,176.200 38.192,176.572 38.020 C 177.609 37.541,178.805 37.158,180.000 36.921 C 180.596 36.804,181.421 36.620,181.833 36.513 C 182.246 36.406,183.708 36.258,185.083 36.184 C 186.458 36.110,187.733 36.040,187.917 36.028 C 188.100 36.017,189.175 36.080,190.306 36.167 M311.402 36.177 C 312.677 36.273,313.914 36.450,314.152 36.571 C 314.389 36.691,314.857 36.838,315.192 36.899 C 315.526 36.959,315.892 37.119,316.004 37.254 C 316.116 37.389,316.344 37.500,316.511 37.500 C 316.677 37.500,316.862 37.578,316.921 37.673 C 316.980 37.769,317.303 38.024,317.639 38.240 C 318.744 38.951,320.333 40.745,320.333 41.280 C 320.333 41.379,320.441 41.548,320.572 41.657 C 320.703 41.766,320.893 42.239,320.993 42.708 C 321.094 43.177,321.268 43.671,321.380 43.806 C 321.535 43.992,321.594 46.773,321.629 55.446 L 321.676 66.840 318.144 66.795 L 314.612 66.750 313.824 65.199 C 312.527 62.649,312.390 62.583,311.139 63.915 C 310.334 64.772,308.248 66.332,307.904 66.334 C 307.820 66.335,307.529 66.450,307.260 66.591 C 306.990 66.732,305.701 67.000,304.396 67.186 L 302.022 67.526 300.136 67.163 C 299.099 66.964,298.137 66.704,298.000 66.587 C 297.862 66.469,297.584 66.322,297.382 66.261 C 296.960 66.132,296.183 65.512,295.386 64.667 C 294.478 63.704,294.380 63.564,294.173 62.936 C 294.064 62.605,293.910 62.333,293.831 62.333 C 293.752 62.333,293.639 61.977,293.581 61.542 C 293.523 61.106,293.368 60.418,293.238 60.012 C 292.159 56.660,294.350 51.039,297.119 50.055 C 297.283 49.997,297.529 49.855,297.667 49.740 C 297.804 49.625,298.232 49.447,298.618 49.344 C 299.004 49.242,299.362 49.089,299.414 49.005 C 299.465 48.921,299.862 48.801,300.296 48.738 C 300.729 48.675,301.346 48.524,301.667 48.403 C 302.004 48.275,304.075 48.068,306.583 47.910 C 311.540 47.599,311.395 47.650,311.297 46.257 C 311.216 45.105,310.773 44.318,309.838 43.662 C 309.012 43.083,305.119 43.072,303.702 43.644 C 303.218 43.840,302.693 44.003,302.535 44.006 C 302.378 44.009,301.950 44.156,301.583 44.333 C 301.217 44.510,300.800 44.658,300.657 44.661 C 300.514 44.664,300.251 44.777,300.074 44.911 C 299.542 45.314,299.015 45.228,298.821 44.708 C 298.726 44.456,298.503 43.931,298.325 43.542 C 297.984 42.798,297.462 41.623,297.067 40.708 C 296.939 40.410,296.714 39.913,296.567 39.603 C 296.193 38.808,296.311 38.458,297.019 38.255 C 297.350 38.161,297.724 37.999,297.851 37.897 C 297.979 37.794,298.477 37.618,298.959 37.505 C 299.440 37.392,299.873 37.238,299.920 37.162 C 299.967 37.086,300.435 36.975,300.961 36.915 C 301.487 36.856,302.260 36.699,302.681 36.566 C 303.101 36.434,304.638 36.263,306.097 36.187 C 307.556 36.112,308.825 36.039,308.917 36.025 C 309.008 36.012,310.127 36.080,311.402 36.177 M13.667 39.138 C 13.667 39.350,14.764 40.082,15.750 40.528 C 16.465 40.851,16.914 40.911,18.911 40.951 C 20.191 40.977,21.466 41.073,21.744 41.164 C 22.022 41.255,23.033 41.410,23.989 41.508 C 25.921 41.705,25.963 41.719,26.168 42.225 C 26.305 42.565,26.313 42.566,26.320 42.250 C 26.335 41.640,26.092 41.527,24.357 41.336 C 23.410 41.232,22.436 41.066,22.193 40.968 C 21.949 40.869,20.813 40.795,19.667 40.802 C 16.910 40.820,15.133 40.353,14.021 39.317 C 13.826 39.136,13.667 39.055,13.667 39.138 M18.377 43.120 C 18.631 43.158,19.006 43.157,19.211 43.117 C 19.416 43.078,19.208 43.046,18.750 43.048 C 18.292 43.049,18.124 43.081,18.377 43.120 M16.253 44.164 C 15.897 44.529,15.638 44.852,15.677 44.883 C 15.717 44.913,16.041 44.614,16.397 44.219 C 17.209 43.316,17.116 43.280,16.253 44.164 M21.500 43.750 C 21.729 43.881,22.029 43.988,22.167 43.988 C 22.304 43.987,22.164 43.877,21.856 43.743 C 21.146 43.435,20.956 43.439,21.500 43.750 M23.333 44.417 C 23.563 44.548,23.863 44.655,24.000 44.654 C 24.137 44.654,23.998 44.544,23.689 44.410 C 22.979 44.102,22.789 44.106,23.333 44.417 M24.796 45.001 C 25.503 45.432,25.735 45.432,25.083 45.000 C 24.808 44.818,24.508 44.669,24.417 44.668 C 24.325 44.668,24.496 44.818,24.796 45.001 M26.211 45.579 C 26.670 45.845,27.458 45.700,27.021 45.430 C 26.918 45.366,26.833 45.401,26.833 45.508 C 26.833 45.615,26.721 45.657,26.583 45.601 C 25.950 45.345,25.790 45.335,26.211 45.579 M15.677 46.517 C 15.659 46.964,16.616 48.128,17.687 48.961 C 19.085 50.048,20.989 51.333,21.203 51.333 C 21.300 51.333,20.825 50.959,20.148 50.501 C 17.127 48.458,16.376 47.775,15.838 46.583 C 15.725 46.332,15.685 46.316,15.677 46.517 M241.408 48.045 C 241.364 48.161,241.347 50.130,241.372 52.420 L 241.417 56.583 249.020 56.627 C 255.936 56.666,256.644 56.645,256.853 56.393 C 257.253 55.912,257.280 48.372,256.884 48.072 C 256.457 47.748,241.532 47.722,241.408 48.045 M256.497 52.042 C 256.496 54.173,256.435 56.011,256.362 56.127 C 256.257 56.292,254.670 56.328,248.989 56.293 L 241.750 56.250 241.705 52.208 L 241.661 48.167 249.080 48.167 L 256.500 48.167 256.497 52.042 M21.572 51.482 C 21.622 51.563,22.423 52.060,23.352 52.586 C 25.766 53.952,29.868 56.025,29.736 55.810 C 29.674 55.711,29.315 55.483,28.937 55.304 C 28.559 55.125,27.763 54.725,27.168 54.415 C 26.574 54.105,25.974 53.808,25.835 53.755 C 25.697 53.702,25.283 53.474,24.917 53.249 C 24.550 53.024,24.063 52.748,23.833 52.635 C 23.604 52.523,23.021 52.184,22.538 51.882 C 21.633 51.316,21.414 51.225,21.572 51.482 M186.833 53.332 C 183.322 54.097,181.846 55.860,182.650 58.326 C 183.581 61.182,189.297 60.399,190.192 57.293 C 190.439 56.434,190.346 53.374,190.070 53.268 C 189.714 53.131,187.558 53.174,186.833 53.332 M307.833 53.327 C 304.896 53.944,303.511 55.232,303.502 57.354 C 303.484 61.648,310.713 60.810,311.344 56.446 C 311.544 55.064,311.537 53.881,311.327 53.489 C 311.142 53.143,309.152 53.051,307.833 53.327 M189.965 55.062 C 190.023 56.830,189.057 59.000,188.212 59.000 C 188.120 59.000,187.845 59.157,187.601 59.349 C 186.866 59.927,184.221 59.768,183.560 59.106 C 182.580 58.124,183.117 54.667,184.249 54.667 C 184.312 54.667,184.555 54.517,184.788 54.333 C 185.048 54.129,185.477 53.996,185.897 53.990 C 186.275 53.984,187.108 53.878,187.750 53.755 C 188.392 53.631,189.142 53.542,189.417 53.557 L 189.917 53.583 189.965 55.062 M311.000 55.091 C 311.000 56.909,310.089 59.000,309.297 59.000 C 309.218 59.000,308.940 59.158,308.680 59.350 C 307.905 59.923,305.279 59.768,304.583 59.108 C 302.981 57.588,304.688 54.034,307.042 53.990 C 307.340 53.984,308.108 53.880,308.750 53.758 C 309.392 53.637,310.160 53.529,310.458 53.519 L 311.000 53.500 311.000 55.091 M30.173 56.232 C 30.307 56.360,30.604 56.516,30.833 56.578 C 31.185 56.675,31.165 56.638,30.704 56.346 C 30.078 55.949,29.815 55.892,30.173 56.232 M31.333 56.752 C 31.333 56.798,31.727 57.079,32.208 57.377 C 33.648 58.265,34.069 58.504,34.375 58.607 C 34.535 58.661,34.667 58.771,34.667 58.850 C 34.667 58.929,35.059 59.193,35.539 59.437 C 36.107 59.724,36.335 59.786,36.191 59.612 C 36.069 59.466,35.808 59.297,35.610 59.237 C 35.412 59.177,35.100 58.994,34.917 58.830 C 34.733 58.666,34.203 58.319,33.738 58.058 C 33.274 57.797,32.582 57.377,32.200 57.125 C 31.507 56.667,31.333 56.592,31.333 56.752 M37.451 60.518 C 38.019 60.893,38.565 61.173,38.663 61.140 C 38.762 61.107,38.559 60.934,38.213 60.756 C 37.867 60.577,37.384 60.296,37.141 60.132 C 36.898 59.968,36.635 59.834,36.558 59.835 C 36.480 59.836,36.882 60.143,37.451 60.518 M39.417 61.436 C 40.275 61.896,42.139 62.501,42.622 62.477 C 43.072 62.455,43.073 62.453,42.667 62.379 C 42.073 62.272,40.349 61.683,39.808 61.404 C 39.556 61.273,39.252 61.167,39.133 61.168 C 39.014 61.168,39.142 61.289,39.417 61.436 M43.171 62.550 C 43.219 62.604,44.269 62.687,45.504 62.735 C 49.871 62.906,50.761 63.131,52.667 64.544 C 53.171 64.918,53.440 65.060,53.264 64.860 C 52.703 64.220,51.164 63.302,50.107 62.977 C 49.124 62.674,42.939 62.294,43.171 62.550 M54.900 66.382 C 56.110 67.540,57.886 69.000,58.086 69.000 C 58.147 69.000,57.796 68.673,57.306 68.274 C 56.815 67.874,56.137 67.293,55.797 66.982 C 54.487 65.782,53.778 65.308,54.900 66.382 M59.583 68.756 C 59.308 68.882,59.196 68.986,59.333 68.987 C 59.471 68.987,59.771 68.881,60.000 68.750 C 60.527 68.449,60.245 68.453,59.583 68.756 " stroke="none" fill="#919191" fill-rule="evenodd"></path></g></svg>