<?xml version="1.0" standalone="no"?>
<!DOCTYPE svg PUBLIC "-//W3C//DTD SVG 20010904//EN"
 "http://www.w3.org/TR/2001/REC-SVG-20010904/DTD/svg10.dtd">
<svg version="1.0" xmlns="http://www.w3.org/2000/svg"
 width="744.000000pt" height="180.000000pt" viewBox="0 0 744.000000 180.000000"
 preserveAspectRatio="xMidYMid meet">

<g transform="translate(0.000000,180.000000) scale(0.100000,-0.100000)"
fill="#000000" stroke="none">
<path d="M0 900 l0 -900 3720 0 3720 0 0 900 0 900 -3720 0 -3720 0 0 -900z
m1261 502 c67 -43 200 -197 293 -342 16 -25 87 -102 158 -171 70 -69 128 -133
128 -141 0 -26 -31 -91 -62 -131 -27 -34 -92 -77 -116 -77 -5 0 -28 17 -50 38
-76 71 -143 104 -235 113 -117 12 -187 27 -227 48 -19 10 -105 54 -190 98 -85
44 -189 98 -230 119 -74 38 -180 128 -180 153 0 6 11 23 26 37 31 32 50 29
178 -21 49 -19 91 -33 93 -32 2 2 -4 21 -12 41 -9 21 -15 42 -13 46 2 5 34 -5
71 -21 38 -16 81 -29 96 -29 36 0 43 -8 30 -32 -10 -18 -19 -20 -71 -16 -86 6
-51 -16 48 -31 101 -15 135 -14 162 5 28 19 28 39 -1 89 -18 31 -29 40 -52 42
-30 2 -154 22 -255 41 -87 17 -221 32 -278 32 -43 0 -58 5 -77 25 -61 60 -19
85 145 85 161 0 321 15 435 39 121 26 134 26 186 -7z m2899 -572 l0 -330 -80
0 -80 0 0 330 0 330 80 0 80 0 0 -330z m280 0 l0 -330 -80 0 -80 0 0 330 0
330 80 0 80 0 0 -330z m2060 0 l0 -330 -85 0 -85 0 0 330 0 330 85 0 85 0 0
-330z m278 140 l-3 -190 20 27 c11 15 46 60 78 100 l57 73 90 0 c50 0 90 -2
90 -5 0 -3 -36 -49 -80 -102 -43 -53 -76 -101 -73 -107 4 -6 42 -66 85 -134
43 -67 78 -125 78 -127 0 -3 -42 -5 -93 -5 l-92 0 -49 80 c-27 44 -53 80 -59
80 -6 0 -19 -7 -29 -17 -14 -12 -18 -31 -18 -80 l0 -63 -85 0 -85 0 0 330 0
330 86 0 86 0 -4 -190z m-4330 135 c28 -9 52 -21 52 -27 0 -7 -10 -38 -22 -69
l-22 -57 -55 19 c-57 20 -117 24 -139 10 -8 -4 -12 -19 -10 -32 2 -19 22 -34
90 -69 131 -68 161 -104 161 -195 0 -91 -51 -152 -151 -181 -64 -19 -170 -15
-237 9 l-40 14 -3 76 c-2 43 -1 77 1 77 3 0 25 -9 51 -21 26 -11 77 -23 114
-26 59 -5 69 -3 85 15 28 31 7 58 -71 93 -128 58 -172 108 -172 197 0 96 44
152 139 179 55 15 155 10 229 -12z m-1378 -9 c0 -22 -29 -41 -42 -28 -9 9 -7
17 7 32 18 20 35 18 35 -4z m4640 -46 l0 -70 -75 0 -75 0 0 -240 0 -240 -85 0
-85 0 0 240 0 240 -75 0 -75 0 0 70 0 70 235 0 235 0 0 -70z m-2759 -71 c19
-7 44 -21 57 -33 19 -17 26 -18 40 -8 51 37 106 54 156 48 58 -6 92 -28 121
-77 18 -30 20 -56 24 -221 l3 -188 -85 0 -86 0 -3 161 c-3 153 -4 162 -25 179
-28 23 -59 16 -81 -18 -14 -21 -18 -56 -20 -174 l-4 -148 -84 0 -84 0 0 156
c0 88 -4 164 -10 175 -11 19 -54 26 -77 11 -25 -16 -33 -68 -33 -203 l0 -139
-85 0 -85 0 0 240 0 240 64 0 c63 0 64 -1 75 -32 l11 -32 29 28 c45 43 116 57
182 35z m849 -15 c75 -44 88 -90 89 -316 l1 -148 -60 0 c-56 0 -60 2 -75 30
l-16 31 -29 -25 c-40 -33 -94 -49 -147 -43 -87 10 -137 73 -130 166 3 47 9 59
40 87 40 37 89 54 162 55 69 1 85 8 74 36 -12 32 -53 39 -114 19 -28 -9 -56
-16 -62 -16 -9 0 -53 87 -53 104 0 5 82 32 120 40 55 10 168 -1 200 -20z
m2336 -1 c25 -12 46 -35 61 -63 21 -40 23 -55 23 -222 l0 -178 -59 0 c-56 0
-59 1 -71 30 -15 36 -21 37 -46 9 -43 -49 -140 -64 -204 -31 -46 23 -71 69
-72 131 0 101 54 147 192 160 44 5 83 11 86 14 3 3 3 15 -1 26 -9 30 -49 36
-116 17 -32 -9 -61 -16 -64 -16 -7 0 -44 81 -45 96 0 6 12 17 28 23 84 35 225
37 288 4z m-1156 -233 l0 -71 -117 3 -118 3 -3 68 -3 67 121 0 120 0 0 -70z"/>
<path d="M3633 700 c-27 -11 -40 -54 -23 -75 31 -37 110 6 110 60 0 22 -4 25
-32 24 -18 0 -43 -4 -55 -9z"/>
<path d="M5962 694 c-26 -18 -30 -69 -6 -78 47 -18 94 13 94 64 0 27 -3 30
-33 30 -18 0 -43 -7 -55 -16z"/>
</g>
</svg>
