<svg id="svg" version="1.1" xmlns="http://www.w3.org/2000/svg" xmlns:xlink="http://www.w3.org/1999/xlink" width="400" height="93.66391184573003" viewBox="0, 0, 400,93.66391184573003"><g id="svgg"><path id="path0" d="M207.268 28.097 C 207.212 28.242,207.167 36.306,207.167 46.016 L 207.167 63.672 211.542 63.628 L 215.917 63.583 215.964 46.250 C 215.990 36.717,215.968 28.673,215.915 28.375 L 215.818 27.833 211.594 27.833 C 207.895 27.833,207.356 27.866,207.268 28.097 M222.781 27.942 C 222.718 28.004,222.667 36.068,222.667 45.861 L 222.667 63.667 227.001 63.667 L 231.335 63.667 231.292 45.792 L 231.250 27.917 227.072 27.872 C 224.774 27.848,222.843 27.879,222.781 27.942 M335.838 28.157 C 335.721 28.377,335.679 34.123,335.708 46.032 L 335.750 63.583 340.208 63.628 L 344.667 63.672 344.667 45.953 C 344.667 32.393,344.620 28.186,344.467 28.033 C 344.078 27.645,336.051 27.760,335.838 28.157 M351.367 28.033 C 351.214 28.186,351.167 32.393,351.167 45.950 L 351.167 63.667 355.667 63.667 L 360.167 63.667 360.167 60.185 C 360.167 56.222,360.053 56.568,361.779 55.272 C 363.365 54.082,363.122 53.915,365.455 57.798 C 365.659 58.138,365.879 58.529,365.943 58.667 C 366.007 58.804,366.106 58.954,366.163 59.000 C 366.219 59.046,366.637 59.709,367.091 60.473 C 367.545 61.237,368.046 62.062,368.203 62.306 C 368.361 62.550,368.607 62.956,368.749 63.208 L 369.009 63.667 374.004 63.667 C 378.585 63.667,379.396 63.598,378.844 63.256 C 378.758 63.203,378.439 62.742,378.135 62.232 C 377.832 61.722,377.508 61.180,377.416 61.027 C 377.185 60.646,375.431 57.962,374.645 56.786 C 374.290 56.256,374.000 55.785,374.000 55.738 C 374.000 55.691,373.858 55.450,373.684 55.202 C 373.510 54.953,372.786 53.850,372.076 52.750 C 371.366 51.650,370.533 50.362,370.226 49.888 C 369.509 48.784,369.525 48.604,370.435 47.500 C 370.851 46.996,371.761 45.871,372.459 45.000 C 373.156 44.129,373.773 43.379,373.831 43.333 C 373.888 43.288,374.379 42.688,374.922 42.000 C 375.465 41.313,376.074 40.563,376.275 40.333 C 376.475 40.104,377.017 39.429,377.479 38.833 L 378.318 37.750 377.861 37.653 C 377.610 37.600,375.473 37.565,373.112 37.575 L 368.819 37.594 368.243 38.223 C 367.926 38.569,367.667 38.894,367.667 38.944 C 367.667 39.026,366.403 40.614,366.164 40.833 C 366.114 40.879,365.516 41.629,364.835 42.500 C 364.154 43.371,363.537 44.158,363.464 44.250 C 363.390 44.342,363.013 44.829,362.626 45.333 C 362.238 45.837,361.845 46.338,361.752 46.447 C 361.659 46.555,361.250 47.175,360.843 47.825 C 359.681 49.679,359.531 49.333,359.892 45.633 C 360.245 42.021,360.302 28.369,359.967 28.033 C 359.682 27.749,351.651 27.749,351.367 28.033 M111.848 29.687 C 110.802 29.769,109.489 29.983,108.931 30.162 C 107.145 30.734,106.423 31.020,106.154 31.263 C 106.009 31.393,105.821 31.500,105.736 31.500 C 105.055 31.500,102.007 35.054,102.002 35.855 C 102.001 36.004,101.888 36.395,101.750 36.724 C 101.412 37.533,101.402 41.233,101.736 42.122 C 101.865 42.467,102.021 42.972,102.081 43.244 C 102.141 43.515,102.410 44.063,102.679 44.460 C 102.947 44.858,103.167 45.219,103.167 45.262 C 103.167 45.371,104.972 47.167,105.081 47.167 C 105.130 47.167,105.526 47.415,105.960 47.718 C 106.395 48.021,107.087 48.438,107.500 48.643 C 107.912 48.848,108.362 49.084,108.500 49.167 C 108.638 49.250,109.500 49.664,110.417 50.087 C 115.596 52.477,116.428 53.381,115.364 55.464 C 114.745 56.676,111.372 57.278,108.583 56.674 C 105.728 56.056,104.686 55.733,102.529 54.794 C 101.214 54.222,101.256 54.112,101.205 58.269 L 101.160 61.950 101.872 62.292 C 103.149 62.905,103.839 63.167,104.181 63.167 C 104.365 63.167,104.719 63.269,104.967 63.395 C 105.631 63.731,110.057 64.221,111.511 64.119 C 114.076 63.939,116.016 63.667,116.492 63.421 C 116.762 63.281,117.156 63.162,117.367 63.157 C 118.017 63.140,120.601 61.670,121.517 60.794 C 122.213 60.130,123.333 58.765,123.333 58.582 C 123.333 58.509,123.559 57.971,123.835 57.387 C 124.882 55.172,124.793 50.978,123.661 49.167 C 123.575 49.029,123.394 48.671,123.259 48.371 C 122.854 47.470,121.151 45.943,119.583 45.074 C 118.835 44.659,116.785 43.627,114.609 42.571 C 110.156 40.409,109.036 38.558,111.316 37.127 C 112.135 36.613,115.642 36.575,117.333 37.062 C 119.040 37.554,120.205 37.954,120.791 38.250 C 121.848 38.784,122.042 38.579,123.077 35.833 C 123.233 35.421,123.466 34.871,123.597 34.611 C 123.727 34.352,123.836 34.052,123.839 33.945 C 123.842 33.838,123.990 33.450,124.167 33.083 C 124.563 32.262,124.572 32.100,124.231 31.817 C 123.444 31.165,118.894 29.913,116.750 29.760 C 115.925 29.701,114.912 29.627,114.500 29.595 C 114.087 29.564,112.894 29.605,111.848 29.687 M276.006 30.321 C 275.786 30.733,275.776 36.327,275.995 36.903 L 276.156 37.327 280.120 37.372 L 284.083 37.417 284.167 50.500 L 284.250 63.583 288.625 63.628 L 293.000 63.672 293.003 50.711 C 293.004 43.582,293.064 37.658,293.135 37.545 C 293.231 37.394,294.319 37.328,297.258 37.295 L 301.250 37.250 301.250 33.667 L 301.250 30.083 288.715 30.041 C 276.455 29.999,276.176 30.005,276.006 30.321 M144.000 37.415 C 141.809 37.749,140.345 38.418,139.374 39.528 C 138.526 40.498,138.153 40.833,137.921 40.833 C 137.603 40.833,137.167 40.369,137.166 40.030 C 137.164 39.483,136.355 37.766,136.054 37.668 C 135.329 37.435,129.992 37.576,129.830 37.833 C 129.734 37.985,129.671 43.101,129.669 50.878 L 129.667 63.672 134.125 63.628 L 138.583 63.583 138.672 55.750 C 138.769 47.303,138.695 48.044,139.640 46.000 C 140.565 43.999,143.281 43.374,144.594 44.860 C 145.827 46.256,146.000 47.712,146.000 56.698 L 146.000 63.672 150.375 63.628 L 154.750 63.583 154.844 55.833 C 154.924 49.322,154.982 47.943,155.211 47.204 C 156.389 43.402,160.398 42.884,161.711 46.364 C 162.026 47.196,162.050 47.748,162.120 55.458 L 162.194 63.667 166.514 63.667 L 170.833 63.667 170.823 54.125 C 170.812 43.449,170.810 43.427,169.778 41.167 C 168.224 37.765,162.866 36.235,158.250 37.874 C 157.700 38.069,157.212 38.271,157.167 38.323 C 157.121 38.375,156.760 38.637,156.365 38.905 C 155.970 39.173,155.360 39.679,155.010 40.030 C 154.166 40.873,153.977 40.842,152.779 39.667 C 152.219 39.117,151.670 38.667,151.559 38.667 C 151.448 38.667,151.258 38.569,151.137 38.450 C 150.778 38.098,148.993 37.529,147.917 37.424 C 145.708 37.208,145.363 37.207,144.000 37.415 M186.750 37.415 C 185.375 37.527,183.762 37.750,183.167 37.909 C 181.383 38.386,180.008 38.852,179.908 39.014 C 179.856 39.098,179.677 39.167,179.511 39.167 C 178.942 39.167,178.767 39.592,179.048 40.290 C 179.294 40.899,180.107 42.737,180.578 43.750 C 180.706 44.025,180.858 44.419,180.916 44.625 C 181.043 45.072,181.884 45.140,182.407 44.745 C 182.585 44.610,182.847 44.500,182.990 44.499 C 183.133 44.498,183.444 44.396,183.682 44.272 C 183.920 44.148,184.407 43.994,184.766 43.929 C 185.124 43.863,185.738 43.703,186.131 43.572 C 188.368 42.825,190.697 43.482,191.436 45.070 C 192.352 47.038,192.031 47.331,188.946 47.342 C 182.508 47.365,178.393 48.952,176.826 52.016 C 175.820 53.983,175.753 57.571,176.686 59.602 C 176.859 59.978,177.000 60.339,177.000 60.403 C 177.000 60.955,178.931 62.764,180.167 63.369 C 182.177 64.355,186.429 64.321,188.562 63.301 C 189.888 62.667,190.145 62.488,191.277 61.414 C 192.700 60.064,192.729 60.071,193.721 62.043 L 194.539 63.667 197.520 63.667 L 200.500 63.667 200.501 54.042 C 200.502 45.619,200.468 44.313,200.231 43.583 C 198.996 39.774,196.363 37.809,191.868 37.344 C 189.926 37.143,190.109 37.141,186.750 37.415 M315.833 37.358 C 313.238 37.536,309.282 38.425,308.602 38.982 C 308.500 39.066,308.230 39.161,308.002 39.192 C 307.440 39.270,307.388 39.719,307.831 40.650 C 308.193 41.411,308.403 41.879,308.884 43.000 C 309.891 45.349,309.750 45.270,311.583 44.525 C 312.225 44.264,313.050 43.996,313.417 43.930 C 313.783 43.864,314.405 43.703,314.797 43.572 C 317.540 42.656,320.040 43.742,320.271 45.949 C 320.411 47.293,320.451 47.277,316.750 47.380 C 313.756 47.463,312.381 47.651,310.750 48.199 C 310.475 48.292,310.065 48.409,309.839 48.460 C 303.646 49.857,302.832 60.500,308.704 63.307 C 312.285 65.018,317.314 64.099,320.119 61.221 C 321.224 60.087,321.477 60.182,322.421 62.083 L 323.207 63.667 326.270 63.667 L 329.333 63.667 329.326 54.875 C 329.317 43.832,329.142 42.656,327.181 40.417 C 325.341 38.315,321.775 37.010,318.368 37.191 C 318.120 37.204,316.979 37.279,315.833 37.358 M248.426 47.870 C 247.992 48.490,248.046 54.091,248.489 54.327 C 249.078 54.643,260.943 54.557,261.066 54.236 C 261.197 53.895,261.193 48.366,261.062 47.875 L 260.961 47.500 254.823 47.500 L 248.686 47.500 248.426 47.870 M191.798 53.453 C 191.860 55.209,190.856 57.333,189.963 57.333 C 189.860 57.333,189.645 57.452,189.484 57.598 C 188.554 58.439,185.959 57.859,185.298 56.661 C 184.581 55.364,185.621 52.700,186.855 52.673 C 187.004 52.669,187.216 52.558,187.327 52.424 C 187.537 52.171,188.705 52.047,190.667 52.070 L 191.750 52.083 191.798 53.453 M320.300 52.200 C 320.753 52.653,320.400 55.345,319.770 56.242 C 318.855 57.547,317.047 58.216,315.442 57.843 C 313.091 57.298,313.128 53.738,315.496 52.629 C 316.633 52.097,319.905 51.805,320.300 52.200 " stroke="none" fill="#060606" fill-rule="evenodd"></path><path id="path1" d="M0.000 46.750 L 0.000 93.500 200.000 93.500 L 400.000 93.500 400.000 46.750 L 400.000 0.000 200.000 0.000 L 0.000 0.000 0.000 46.750 M54.462 13.137 C 56.209 13.801,60.850 17.825,63.333 20.829 C 63.746 21.328,64.363 22.039,64.704 22.410 C 65.045 22.780,65.720 23.630,66.204 24.298 C 66.688 24.966,67.682 26.278,68.415 27.214 C 70.041 29.295,70.330 29.710,71.375 31.474 C 71.828 32.239,72.341 33.008,72.516 33.182 C 72.690 33.357,72.835 33.556,72.836 33.625 C 72.837 33.694,73.044 33.980,73.294 34.262 C 73.545 34.543,74.713 35.856,75.889 37.179 C 77.066 38.501,78.341 39.864,78.723 40.208 C 79.104 40.552,79.979 41.368,80.667 42.022 C 81.354 42.675,82.843 44.082,83.975 45.147 C 88.784 49.672,88.413 49.266,88.394 49.973 C 88.385 50.325,88.259 50.831,88.114 51.098 C 87.968 51.365,87.763 51.771,87.657 52.000 C 87.551 52.229,87.401 52.529,87.324 52.667 C 87.107 53.052,86.538 54.202,86.335 54.667 C 86.073 55.266,85.719 55.862,85.556 55.981 C 85.479 56.037,85.198 56.404,84.933 56.795 C 83.852 58.388,79.610 61.822,77.979 62.423 C 75.690 63.267,75.568 63.227,72.858 60.729 C 66.213 54.605,65.510 54.292,57.917 54.084 C 54.972 54.004,53.277 53.758,52.036 53.232 C 51.735 53.104,51.409 53.000,51.311 53.000 C 50.807 53.000,45.834 50.501,44.658 49.657 C 44.005 49.189,43.589 48.933,43.000 48.638 C 42.771 48.523,42.283 48.240,41.917 48.009 C 40.908 47.375,40.628 47.210,40.083 46.927 C 39.808 46.784,39.382 46.536,39.137 46.375 C 38.753 46.124,36.758 44.936,36.000 44.507 C 35.862 44.429,34.137 43.554,32.167 42.563 C 27.780 40.358,22.923 37.514,20.741 35.875 C 20.344 35.577,19.970 35.333,19.909 35.333 C 19.704 35.333,18.132 33.836,17.584 33.119 C 14.826 29.506,18.444 25.639,23.250 27.063 C 25.347 27.684,27.457 28.433,28.750 29.014 C 30.209 29.670,32.245 30.313,32.396 30.166 C 32.479 30.086,32.396 29.642,32.204 29.137 C 31.692 27.795,31.333 26.448,31.333 25.866 C 31.333 25.220,31.078 25.077,29.667 24.934 C 28.661 24.832,27.821 24.683,25.250 24.148 C 24.697 24.033,22.947 23.933,21.333 23.924 C 17.821 23.904,16.471 23.506,14.241 21.833 C 12.965 20.876,12.283 18.653,12.959 17.655 C 14.111 15.957,14.854 15.735,18.493 15.999 C 21.449 16.213,27.816 16.060,32.083 15.671 C 33.000 15.588,34.688 15.469,35.833 15.406 C 36.979 15.344,38.817 15.152,39.917 14.980 C 41.017 14.807,42.442 14.585,43.083 14.486 C 43.725 14.387,45.112 14.092,46.167 13.831 C 50.409 12.780,52.962 12.567,54.462 13.137 M216.284 27.833 C 216.584 28.426,216.599 63.501,216.300 63.800 C 216.088 64.012,207.461 64.103,206.930 63.899 C 206.502 63.735,206.530 27.891,206.958 27.564 C 207.188 27.388,208.188 27.349,211.662 27.379 L 216.074 27.417 216.284 27.833 M231.571 27.595 C 231.917 27.941,231.978 63.455,231.633 63.800 C 231.373 64.060,222.804 64.085,222.322 63.827 C 221.807 63.551,221.817 28.183,222.333 27.667 C 222.791 27.209,231.121 27.144,231.571 27.595 M344.792 27.471 C 344.958 27.577,344.993 31.345,344.959 45.760 L 344.917 63.917 340.261 63.961 C 336.648 63.995,335.576 63.958,335.472 63.794 C 335.265 63.468,335.298 28.044,335.506 27.656 C 335.689 27.314,344.275 27.143,344.792 27.471 M360.321 27.569 C 360.467 27.744,360.510 30.335,360.491 37.662 C 360.477 43.084,360.510 47.566,360.566 47.621 C 360.621 47.677,360.667 47.611,360.667 47.475 C 360.667 47.338,360.948 46.846,361.292 46.380 C 361.635 45.914,362.029 45.364,362.167 45.157 C 362.304 44.950,362.660 44.524,362.958 44.210 C 363.256 43.895,363.500 43.602,363.500 43.557 C 363.500 43.417,365.359 41.086,365.517 41.028 C 365.599 40.997,365.667 40.903,365.667 40.819 C 365.667 40.672,365.791 40.506,366.500 39.708 C 366.683 39.502,366.833 39.293,366.833 39.244 C 366.833 39.195,367.040 38.947,367.292 38.691 C 367.544 38.436,367.832 38.082,367.933 37.905 C 368.321 37.224,368.717 37.172,373.553 37.169 C 379.542 37.166,379.521 37.156,377.796 39.162 C 377.680 39.296,377.288 39.784,376.926 40.245 C 376.563 40.706,376.187 41.169,376.091 41.275 C 375.995 41.380,375.692 41.750,375.417 42.096 C 375.142 42.443,374.803 42.845,374.664 42.990 C 374.526 43.136,374.229 43.516,374.005 43.836 C 373.634 44.367,373.170 44.924,372.494 45.653 C 372.353 45.804,372.016 46.226,371.744 46.589 C 371.025 47.551,371.039 47.533,370.515 48.156 L 370.034 48.728 370.434 49.322 C 370.654 49.649,370.907 50.085,370.996 50.292 C 371.085 50.498,371.235 50.667,371.329 50.667 C 371.423 50.667,371.500 50.766,371.500 50.887 C 371.500 51.009,371.762 51.477,372.083 51.928 C 372.404 52.380,372.667 52.843,372.667 52.958 C 372.667 53.073,372.744 53.167,372.837 53.167 C 372.931 53.167,373.082 53.335,373.173 53.542 C 373.263 53.748,373.637 54.367,374.004 54.917 C 374.372 55.467,374.717 56.048,374.772 56.208 C 374.827 56.369,374.933 56.500,375.008 56.500 C 375.083 56.500,375.192 56.650,375.250 56.832 C 375.308 57.015,375.449 57.259,375.563 57.374 C 375.743 57.554,376.013 57.972,376.920 59.469 C 377.014 59.624,377.312 60.087,377.583 60.500 C 378.277 61.554,378.462 61.863,378.655 62.292 C 378.749 62.498,378.895 62.667,378.980 62.667 C 379.245 62.667,379.494 63.606,379.285 63.815 C 379.157 63.943,377.491 64.000,373.913 64.000 L 368.726 64.000 368.280 63.318 C 368.034 62.943,367.833 62.578,367.833 62.505 C 367.833 62.433,367.721 62.281,367.583 62.167 C 367.446 62.053,367.333 61.826,367.333 61.664 C 367.333 61.502,367.221 61.326,367.083 61.273 C 366.946 61.220,366.833 61.099,366.833 61.004 C 366.833 60.908,366.571 60.456,366.250 60.000 C 365.929 59.544,365.667 59.061,365.667 58.927 C 365.667 58.793,365.573 58.623,365.458 58.550 C 365.232 58.405,364.948 57.989,364.627 57.333 C 364.515 57.104,364.377 56.879,364.321 56.833 C 364.193 56.730,363.712 55.850,363.568 55.458 C 363.376 54.934,362.681 55.127,361.569 56.012 L 360.507 56.857 360.462 60.387 L 360.417 63.917 355.667 63.917 L 350.917 63.917 350.874 45.851 C 350.843 32.640,350.882 27.725,351.020 27.560 C 351.302 27.220,360.039 27.228,360.321 27.569 M117.183 29.270 C 117.312 29.373,117.959 29.495,118.623 29.540 C 119.286 29.585,119.923 29.698,120.039 29.792 C 120.155 29.886,120.587 30.018,121.000 30.085 C 121.412 30.153,121.898 30.312,122.079 30.438 C 122.260 30.564,122.573 30.667,122.775 30.667 C 122.977 30.667,123.255 30.779,123.393 30.917 C 123.530 31.054,123.824 31.167,124.046 31.167 C 124.721 31.167,125.102 31.736,124.865 32.393 C 124.756 32.694,124.667 33.057,124.667 33.200 C 124.667 33.342,124.554 33.553,124.417 33.667 C 124.279 33.781,124.167 34.038,124.167 34.239 C 124.167 34.439,124.057 34.749,123.922 34.926 C 123.787 35.104,123.675 35.382,123.672 35.542 C 123.669 35.703,123.517 36.114,123.333 36.456 C 123.150 36.799,123.000 37.167,123.000 37.276 C 123.000 37.384,122.875 37.723,122.722 38.028 C 122.569 38.334,122.393 38.696,122.330 38.833 C 122.171 39.181,121.597 39.234,121.340 38.925 C 121.222 38.783,120.908 38.667,120.641 38.667 C 120.364 38.667,120.115 38.560,120.060 38.417 C 120.003 38.267,119.752 38.167,119.436 38.167 C 119.145 38.167,118.750 38.057,118.558 37.922 C 118.366 37.787,117.881 37.629,117.479 37.571 C 117.078 37.512,116.429 37.359,116.036 37.232 C 111.889 35.886,108.801 39.064,112.446 40.927 C 112.794 41.105,113.178 41.344,113.301 41.458 C 113.424 41.573,113.671 41.667,113.850 41.667 C 114.030 41.667,114.220 41.779,114.273 41.917 C 114.326 42.054,114.539 42.167,114.747 42.167 C 114.956 42.167,115.219 42.279,115.333 42.417 C 115.447 42.554,115.626 42.667,115.731 42.667 C 115.836 42.667,116.201 42.817,116.544 43.000 C 116.886 43.183,117.281 43.333,117.421 43.333 C 117.562 43.333,117.720 43.446,117.773 43.583 C 117.826 43.721,117.992 43.837,118.143 43.841 C 118.293 43.845,118.717 44.033,119.083 44.258 C 119.450 44.484,119.994 44.782,120.292 44.920 C 120.590 45.058,120.833 45.245,120.833 45.336 C 120.833 45.426,120.915 45.500,121.015 45.500 C 121.178 45.500,121.707 45.926,122.480 46.680 C 122.991 47.177,123.517 47.855,123.674 48.219 C 123.761 48.419,123.902 48.696,123.988 48.833 C 124.073 48.971,124.185 49.196,124.237 49.333 C 124.289 49.471,124.399 49.696,124.481 49.833 C 124.895 50.521,125.296 54.281,125.012 54.811 C 124.912 54.998,124.782 55.611,124.723 56.174 C 124.658 56.795,124.528 57.230,124.391 57.283 C 124.268 57.330,124.167 57.543,124.167 57.756 C 124.167 57.969,124.054 58.255,123.917 58.393 C 123.779 58.530,123.667 58.745,123.667 58.869 C 123.667 58.994,123.292 59.495,122.833 59.984 C 122.375 60.472,122.000 60.924,122.000 60.988 C 122.000 61.138,121.061 61.833,120.858 61.833 C 120.772 61.833,120.659 61.946,120.606 62.083 C 120.554 62.221,120.362 62.333,120.180 62.333 C 119.999 62.333,119.790 62.427,119.717 62.542 C 119.516 62.856,118.237 63.499,117.800 63.506 C 117.589 63.509,117.229 63.619,117.000 63.750 C 116.771 63.881,116.386 63.991,116.144 63.994 C 115.902 63.997,115.490 64.112,115.227 64.249 C 114.845 64.448,114.002 64.498,111.000 64.498 C 107.998 64.498,107.155 64.448,106.773 64.249 C 106.510 64.112,105.985 64.000,105.606 63.999 C 105.227 63.998,104.702 63.886,104.439 63.749 C 104.177 63.612,103.802 63.500,103.606 63.499 C 103.410 63.499,103.004 63.349,102.704 63.166 C 102.404 62.983,102.045 62.833,101.906 62.833 C 101.767 62.833,101.431 62.669,101.160 62.469 L 100.667 62.104 100.667 58.232 C 100.667 56.103,100.712 54.242,100.768 54.097 C 100.897 53.760,101.724 53.751,102.000 54.083 C 102.114 54.221,102.388 54.333,102.609 54.333 C 102.830 54.333,103.054 54.446,103.106 54.583 C 103.159 54.721,103.405 54.833,103.653 54.833 C 103.900 54.833,104.249 54.943,104.426 55.078 C 104.604 55.213,104.938 55.328,105.167 55.334 C 105.396 55.340,105.883 55.490,106.250 55.667 C 106.617 55.844,107.254 55.994,107.667 56.000 C 108.079 56.007,108.604 56.119,108.833 56.250 C 109.948 56.887,113.569 56.509,114.608 55.646 C 115.803 54.654,114.562 51.833,112.931 51.833 C 112.808 51.833,112.614 51.721,112.500 51.583 C 112.386 51.446,112.161 51.333,112.000 51.333 C 111.839 51.333,111.614 51.221,111.500 51.083 C 111.386 50.946,111.189 50.833,111.062 50.833 C 110.936 50.833,110.552 50.683,110.210 50.500 C 109.868 50.317,109.503 50.167,109.398 50.167 C 109.293 50.167,109.114 50.054,109.000 49.917 C 108.886 49.779,108.661 49.667,108.500 49.667 C 108.339 49.667,108.114 49.554,108.000 49.417 C 107.886 49.279,107.696 49.167,107.577 49.167 C 107.345 49.167,105.768 48.200,105.292 47.766 C 105.131 47.620,104.935 47.500,104.855 47.500 C 104.556 47.500,102.333 45.034,102.333 44.702 C 102.333 44.614,102.221 44.447,102.083 44.333 C 101.946 44.219,101.833 44.004,101.832 43.855 C 101.832 43.705,101.709 43.358,101.560 43.083 C 100.869 41.808,100.864 36.809,101.554 35.825 C 101.708 35.605,101.833 35.253,101.833 35.041 C 101.833 34.829,101.946 34.613,102.083 34.560 C 102.221 34.508,102.333 34.375,102.333 34.266 C 102.333 33.719,104.918 31.167,105.473 31.167 C 105.557 31.167,105.719 31.054,105.833 30.917 C 105.947 30.779,106.172 30.667,106.333 30.667 C 106.494 30.667,106.713 30.562,106.819 30.434 C 106.925 30.306,107.269 30.153,107.582 30.095 C 107.896 30.036,108.362 29.878,108.618 29.745 C 108.874 29.611,109.383 29.500,109.750 29.499 C 110.117 29.497,110.717 29.384,111.083 29.247 C 111.898 28.945,116.800 28.964,117.183 29.270 M301.500 29.663 C 301.800 29.852,301.961 36.894,301.675 37.333 C 301.540 37.542,300.845 37.592,297.506 37.633 L 293.500 37.684 293.500 50.642 C 293.500 60.498,293.452 63.648,293.300 63.800 C 293.088 64.012,284.461 64.103,283.930 63.899 C 283.693 63.808,283.667 62.492,283.667 50.732 L 283.667 37.667 279.928 37.667 C 277.871 37.667,275.996 37.594,275.761 37.504 L 275.333 37.342 275.333 33.582 C 275.333 29.839,275.335 29.822,275.708 29.672 C 276.220 29.466,301.175 29.458,301.500 29.663 M147.750 36.836 C 150.151 37.396,150.582 37.545,151.792 38.234 C 151.999 38.352,152.497 38.797,152.901 39.224 C 153.870 40.251,154.231 40.242,155.317 39.167 C 155.781 38.708,156.270 38.333,156.405 38.333 C 156.540 38.333,156.710 38.237,156.783 38.120 C 156.939 37.871,157.842 37.481,159.250 37.054 C 160.413 36.700,164.116 36.618,164.516 36.936 C 164.645 37.038,165.078 37.171,165.479 37.233 C 165.881 37.294,166.366 37.454,166.558 37.589 C 166.750 37.723,167.043 37.833,167.209 37.833 C 167.375 37.833,167.554 37.946,167.606 38.083 C 167.659 38.221,167.784 38.333,167.883 38.333 C 168.098 38.333,169.833 40.092,169.833 40.309 C 169.833 40.392,169.941 40.549,170.073 40.658 C 170.204 40.767,170.363 41.095,170.425 41.387 C 170.488 41.678,170.623 42.021,170.726 42.148 C 170.829 42.276,170.962 42.838,171.023 43.398 C 171.083 43.958,171.213 44.717,171.312 45.083 C 171.604 46.166,171.566 63.571,171.271 63.816 C 171.110 63.950,169.707 63.992,166.480 63.961 L 161.917 63.917 161.821 56.500 C 161.723 48.927,161.523 46.411,160.967 45.745 C 159.392 43.857,157.039 44.291,155.874 46.685 C 155.660 47.125,155.500 47.766,155.500 48.186 C 155.500 48.589,155.413 49.181,155.307 49.501 C 155.180 49.883,155.080 52.460,155.015 57.000 L 154.917 63.917 150.354 63.961 C 147.127 63.992,145.724 63.950,145.562 63.816 C 145.374 63.660,145.332 62.156,145.328 55.355 C 145.322 47.528,145.305 47.048,145.000 46.417 C 144.823 46.050,144.675 45.694,144.672 45.625 C 144.601 44.049,140.000 44.662,140.000 46.247 C 140.000 46.386,139.930 46.500,139.844 46.500 C 139.757 46.500,139.640 46.856,139.583 47.292 C 139.526 47.727,139.391 48.271,139.282 48.500 C 139.142 48.794,139.059 51.121,139.000 56.417 L 138.917 63.917 134.167 63.917 L 129.417 63.917 129.374 50.705 L 129.331 37.493 129.760 37.330 C 130.317 37.118,135.849 37.118,136.406 37.329 C 136.702 37.442,136.833 37.616,136.833 37.895 C 136.833 38.116,136.946 38.341,137.083 38.394 C 137.221 38.446,137.333 38.676,137.333 38.905 C 137.333 39.133,137.465 39.583,137.625 39.906 C 137.908 40.475,138.167 40.677,138.167 40.328 C 138.167 40.102,139.725 38.508,140.207 38.240 C 141.173 37.704,141.978 37.355,142.667 37.174 C 143.079 37.066,143.642 36.915,143.917 36.839 C 144.604 36.649,146.939 36.648,147.750 36.836 M192.703 36.899 C 193.095 37.027,193.717 37.180,194.083 37.240 C 194.687 37.337,195.501 37.644,196.167 38.025 C 196.304 38.104,196.529 38.217,196.667 38.277 C 197.035 38.436,198.366 39.520,198.750 39.973 C 198.933 40.190,199.215 40.489,199.375 40.637 C 199.535 40.786,199.667 41.032,199.667 41.183 C 199.667 41.335,199.779 41.553,199.917 41.667 C 200.054 41.781,200.167 41.998,200.167 42.150 C 200.167 42.302,200.273 42.578,200.404 42.764 C 201.038 43.670,201.574 63.059,200.984 63.770 C 200.501 64.351,193.833 64.025,193.833 63.420 C 193.833 63.290,193.549 62.635,193.201 61.963 L 192.569 60.741 191.825 61.507 C 190.594 62.776,188.672 63.997,187.891 64.005 C 187.630 64.008,187.271 64.121,187.093 64.255 C 186.616 64.616,181.634 64.612,181.333 64.250 C 181.219 64.112,180.950 64.000,180.735 64.000 C 179.727 64.000,177.456 62.204,176.831 60.912 C 176.633 60.503,176.403 60.126,176.319 60.074 C 176.235 60.023,176.167 59.774,176.167 59.522 C 176.167 59.270,176.057 58.918,175.922 58.740 C 175.567 58.272,175.559 53.706,175.911 53.240 C 176.046 53.062,176.158 52.716,176.161 52.470 C 176.164 52.225,176.263 51.925,176.381 51.804 C 176.499 51.682,176.756 51.321,176.953 50.999 C 177.329 50.384,178.423 49.333,178.688 49.333 C 178.774 49.333,178.885 49.225,178.936 49.094 C 178.986 48.962,179.247 48.806,179.514 48.747 C 179.781 48.688,180.000 48.577,180.000 48.500 C 180.000 48.423,180.244 48.307,180.542 48.242 C 180.840 48.177,181.231 48.021,181.412 47.895 C 181.593 47.770,182.005 47.664,182.329 47.661 C 182.652 47.658,183.062 47.546,183.240 47.411 C 183.466 47.240,183.994 47.167,184.991 47.167 C 185.776 47.167,186.681 47.091,187.001 46.999 C 187.321 46.907,188.333 46.788,189.250 46.735 C 190.167 46.682,191.001 46.613,191.104 46.583 C 191.351 46.509,190.981 44.799,190.698 44.705 C 190.589 44.669,190.500 44.533,190.500 44.403 C 190.500 44.273,190.369 44.166,190.208 44.166 C 190.048 44.165,189.702 44.053,189.439 43.916 C 188.828 43.597,187.707 43.597,186.942 43.917 C 186.613 44.054,186.013 44.167,185.609 44.167 C 185.189 44.167,184.793 44.265,184.684 44.396 C 184.579 44.522,184.190 44.674,183.818 44.733 C 183.447 44.792,182.976 44.951,182.771 45.085 C 181.981 45.603,180.782 45.488,180.579 44.875 C 180.480 44.577,180.310 44.243,180.200 44.133 C 180.090 44.023,180.000 43.770,180.000 43.570 C 180.000 43.371,179.887 43.114,179.750 43.000 C 179.612 42.886,179.500 42.623,179.500 42.417 C 179.500 42.210,179.387 41.947,179.250 41.833 C 179.112 41.719,179.000 41.513,179.000 41.374 C 179.000 41.236,178.845 40.872,178.655 40.565 C 178.174 39.786,178.278 39.136,178.917 38.921 C 179.192 38.828,179.516 38.658,179.637 38.543 C 179.758 38.428,180.030 38.333,180.241 38.333 C 180.453 38.333,180.719 38.221,180.833 38.083 C 180.947 37.946,181.302 37.833,181.620 37.833 C 181.939 37.833,182.436 37.724,182.725 37.590 C 183.014 37.456,183.850 37.274,184.583 37.185 C 185.317 37.097,186.179 36.952,186.500 36.863 C 187.439 36.602,191.870 36.628,192.703 36.899 M321.369 36.899 C 321.762 37.027,322.383 37.180,322.750 37.240 C 323.353 37.337,324.162 37.642,324.833 38.025 C 324.971 38.103,325.252 38.240,325.458 38.330 C 325.665 38.419,325.833 38.569,325.833 38.663 C 325.833 38.756,325.941 38.833,326.073 38.833 C 326.536 38.833,328.341 40.863,328.585 41.659 C 328.654 41.884,328.813 42.170,328.939 42.296 C 329.064 42.421,329.167 42.746,329.167 43.018 C 329.167 43.289,329.280 43.684,329.418 43.895 C 329.636 44.228,329.664 45.578,329.626 54.098 L 329.583 63.917 326.250 63.954 L 322.917 63.991 322.542 63.401 C 322.335 63.076,322.167 62.712,322.167 62.592 C 322.167 62.472,322.059 62.285,321.927 62.175 C 321.795 62.065,321.663 61.820,321.635 61.630 C 321.514 60.818,321.077 60.889,320.065 61.885 C 319.534 62.406,319.007 62.833,318.892 62.833 C 318.777 62.833,318.623 62.931,318.550 63.051 C 318.335 63.402,317.033 64.000,316.483 64.000 C 316.204 64.000,315.864 64.112,315.726 64.250 C 315.366 64.610,310.404 64.606,309.926 64.245 C 309.749 64.110,309.397 64.000,309.145 64.000 C 308.893 64.000,308.639 63.924,308.582 63.831 C 308.524 63.738,308.220 63.554,307.905 63.423 C 307.591 63.291,307.333 63.105,307.333 63.009 C 307.333 62.912,307.262 62.833,307.175 62.833 C 306.956 62.833,306.167 62.083,306.167 61.874 C 306.167 61.779,306.072 61.666,305.956 61.622 C 305.841 61.577,305.574 61.176,305.363 60.729 C 305.152 60.282,304.893 59.767,304.788 59.583 C 304.007 58.217,304.164 53.658,305.053 51.890 C 305.523 50.958,306.922 49.333,307.257 49.333 C 307.371 49.333,307.508 49.221,307.560 49.083 C 307.613 48.946,307.799 48.833,307.974 48.833 C 308.149 48.833,308.382 48.726,308.491 48.594 C 308.600 48.462,308.928 48.303,309.220 48.239 C 309.511 48.176,309.898 48.021,310.079 47.895 C 310.260 47.770,310.645 47.667,310.935 47.667 C 311.225 47.667,311.677 47.555,311.939 47.418 C 312.233 47.264,312.878 47.168,313.617 47.168 C 314.277 47.167,315.189 47.087,315.644 46.989 C 316.099 46.892,317.247 46.760,318.194 46.698 L 319.917 46.583 319.967 46.063 C 319.995 45.776,319.919 45.439,319.799 45.313 C 319.678 45.186,319.447 44.877,319.286 44.625 C 319.124 44.373,318.858 44.167,318.695 44.167 C 318.531 44.167,318.251 44.057,318.074 43.922 C 317.649 43.601,316.171 43.597,315.561 43.916 C 315.298 44.053,314.736 44.165,314.312 44.166 C 313.862 44.166,313.462 44.262,313.351 44.396 C 313.246 44.522,312.852 44.674,312.476 44.735 C 312.099 44.795,311.634 44.954,311.442 45.089 C 311.250 45.223,310.958 45.333,310.794 45.333 C 310.630 45.333,310.352 45.423,310.176 45.533 C 309.781 45.780,309.279 45.261,308.976 44.292 C 308.869 43.948,308.723 43.667,308.654 43.667 C 308.584 43.667,308.473 43.423,308.409 43.125 C 308.344 42.827,308.188 42.435,308.062 42.255 C 307.936 42.074,307.833 41.817,307.833 41.684 C 307.833 41.552,307.734 41.325,307.612 41.180 C 307.400 40.928,307.000 39.741,307.000 39.364 C 307.000 39.123,308.593 38.333,309.079 38.333 C 309.291 38.333,309.508 38.221,309.560 38.083 C 309.622 37.922,309.881 37.833,310.286 37.832 C 310.633 37.832,311.126 37.722,311.382 37.589 C 311.638 37.455,312.425 37.296,313.132 37.234 C 313.838 37.173,314.492 37.064,314.583 36.993 C 315.054 36.626,320.307 36.553,321.369 36.899 M261.399 47.430 C 261.667 48.130,261.504 54.458,261.208 54.823 C 260.826 55.295,248.294 55.305,247.996 54.833 C 247.819 54.553,247.771 47.452,247.944 47.278 C 248.215 47.007,261.293 47.155,261.399 47.430 M187.833 52.764 C 187.604 52.891,187.280 52.996,187.112 52.998 C 186.755 53.000,185.833 53.871,185.833 54.205 C 185.833 54.332,185.723 54.582,185.589 54.760 C 185.105 55.399,185.539 56.738,186.389 57.228 C 186.895 57.520,188.745 57.611,188.905 57.352 C 188.956 57.270,189.184 57.157,189.412 57.099 C 190.491 56.829,191.293 55.396,191.451 53.458 L 191.530 52.500 189.890 52.516 C 188.831 52.527,188.102 52.615,187.833 52.764 M316.500 52.764 C 316.271 52.891,315.953 52.996,315.795 52.998 C 315.088 53.004,314.328 54.086,314.220 55.241 L 314.119 56.332 314.738 56.916 C 316.661 58.729,320.000 56.768,320.000 53.826 L 320.000 52.500 318.458 52.516 C 317.484 52.527,316.763 52.618,316.500 52.764 " stroke="none" fill="#fbfbfb" fill-rule="evenodd"></path><path id="path2" d="M49.333 13.118 C 48.646 13.249,47.221 13.570,46.167 13.831 C 45.112 14.092,43.725 14.387,43.083 14.486 C 42.442 14.585,41.017 14.807,39.917 14.980 C 38.817 15.152,36.979 15.344,35.833 15.406 C 34.688 15.469,33.000 15.588,32.083 15.671 C 27.816 16.060,21.449 16.213,18.493 15.999 C 14.854 15.735,14.111 15.957,12.959 17.655 C 12.283 18.653,12.965 20.876,14.241 21.833 C 16.471 23.506,17.821 23.904,21.333 23.924 C 22.947 23.933,24.697 24.033,25.250 24.148 C 27.821 24.683,28.661 24.832,29.667 24.934 C 31.078 25.077,31.333 25.220,31.333 25.866 C 31.333 26.448,31.692 27.795,32.204 29.137 C 32.396 29.642,32.479 30.086,32.396 30.166 C 32.245 30.313,30.209 29.670,28.750 29.014 C 27.457 28.433,25.347 27.684,23.250 27.063 C 18.444 25.639,14.826 29.506,17.584 33.119 C 18.132 33.836,19.704 35.333,19.909 35.333 C 19.970 35.333,20.344 35.577,20.741 35.875 C 22.923 37.514,27.780 40.358,32.167 42.563 C 34.137 43.554,35.862 44.429,36.000 44.507 C 36.758 44.936,38.753 46.124,39.137 46.375 C 39.382 46.536,39.808 46.784,40.083 46.927 C 40.628 47.210,40.908 47.375,41.917 48.009 C 42.283 48.240,42.771 48.523,43.000 48.638 C 43.589 48.933,44.005 49.189,44.658 49.657 C 45.834 50.501,50.807 53.000,51.311 53.000 C 51.409 53.000,51.735 53.104,52.036 53.232 C 53.277 53.758,54.972 54.004,57.917 54.084 C 65.510 54.292,66.213 54.605,72.858 60.729 C 75.568 63.227,75.690 63.267,77.979 62.423 C 79.610 61.822,83.852 58.388,84.933 56.795 C 85.198 56.404,85.479 56.037,85.556 55.981 C 85.719 55.862,86.073 55.266,86.335 54.667 C 86.538 54.202,87.107 53.052,87.324 52.667 C 87.401 52.529,87.551 52.229,87.657 52.000 C 87.763 51.771,87.968 51.365,88.114 51.098 C 88.259 50.831,88.385 50.325,88.394 49.973 C 88.413 49.266,88.784 49.672,83.975 45.147 C 82.843 44.082,81.354 42.675,80.667 42.022 C 79.979 41.368,79.104 40.552,78.723 40.208 C 78.341 39.864,77.066 38.501,75.889 37.179 C 74.713 35.856,73.545 34.543,73.294 34.262 C 73.044 33.980,72.837 33.694,72.836 33.625 C 72.835 33.556,72.690 33.357,72.516 33.182 C 72.341 33.008,71.828 32.239,71.375 31.474 C 70.330 29.710,70.041 29.295,68.415 27.214 C 67.682 26.278,66.688 24.966,66.204 24.298 C 65.720 23.630,65.045 22.780,64.704 22.410 C 64.363 22.039,63.746 21.328,63.333 20.829 C 60.850 17.825,56.209 13.801,54.462 13.137 C 53.492 12.768,51.216 12.760,49.333 13.118 M15.770 20.739 C 17.038 20.962,17.885 21.033,21.833 21.249 C 22.704 21.297,24.167 21.446,25.083 21.581 C 26.000 21.715,28.175 21.900,29.917 21.991 C 32.837 22.144,35.220 22.429,39.083 23.088 C 39.908 23.228,40.996 23.412,41.500 23.496 C 42.004 23.580,43.463 23.734,44.742 23.838 C 46.418 23.975,47.243 24.117,47.698 24.349 C 48.159 24.584,48.506 24.643,48.984 24.567 C 49.600 24.468,49.655 24.495,49.928 25.023 C 50.088 25.331,50.427 25.846,50.681 26.167 C 51.459 27.146,53.000 30.340,53.000 30.973 C 53.000 33.672,48.543 35.808,44.694 34.953 C 39.027 33.695,34.746 32.520,31.167 31.243 C 30.479 30.998,29.579 30.701,29.167 30.583 C 28.150 30.292,26.582 29.750,24.583 28.998 C 20.254 27.369,18.260 28.564,19.901 31.803 C 20.823 33.622,23.617 35.714,27.497 37.493 C 28.846 38.111,30.703 39.078,31.624 39.641 C 32.545 40.203,33.438 40.714,33.608 40.776 C 33.778 40.837,34.104 41.016,34.333 41.172 C 34.964 41.603,39.769 44.062,41.000 44.584 C 43.318 45.568,45.204 46.522,47.349 47.797 C 52.801 51.038,53.521 51.243,62.333 52.079 C 67.731 52.591,71.075 54.164,76.160 58.583 C 78.814 60.890,79.148 61.793,77.459 62.087 C 77.116 62.147,76.793 62.264,76.741 62.348 C 76.357 62.969,75.088 62.234,72.644 59.973 C 71.786 59.180,70.633 58.167,70.083 57.723 C 69.533 57.280,69.008 56.833,68.917 56.732 C 68.825 56.630,68.315 56.255,67.784 55.898 C 65.036 54.053,64.376 53.880,59.615 53.751 C 55.587 53.643,53.714 53.397,51.917 52.742 C 51.275 52.508,50.561 52.256,50.331 52.181 C 49.392 51.878,45.018 49.521,44.547 49.065 C 44.436 48.957,43.986 48.696,43.547 48.485 C 43.109 48.274,42.457 47.891,42.100 47.634 C 41.742 47.377,41.390 47.167,41.317 47.167 C 41.243 47.167,40.850 46.942,40.443 46.667 C 40.035 46.392,39.656 46.167,39.599 46.167 C 39.543 46.167,39.104 45.889,38.623 45.550 C 37.721 44.912,35.647 43.763,34.333 43.174 C 33.921 42.989,33.471 42.764,33.333 42.675 C 33.196 42.587,32.671 42.320,32.167 42.084 C 31.662 41.847,31.101 41.570,30.919 41.467 C 30.736 41.365,29.836 40.892,28.919 40.416 C 27.183 39.516,25.144 38.351,25.000 38.177 C 24.930 38.092,23.437 37.147,22.475 36.579 C 18.793 34.405,17.072 32.415,17.204 30.487 C 17.267 29.563,17.367 29.363,18.167 28.571 C 18.988 27.759,19.116 27.667,19.431 27.661 C 19.606 27.658,19.896 27.546,20.074 27.411 C 20.487 27.098,21.134 27.100,21.891 27.417 C 22.220 27.554,22.815 27.667,23.213 27.667 C 23.611 27.667,24.082 27.777,24.260 27.911 C 24.438 28.046,24.733 28.159,24.917 28.162 C 25.100 28.166,25.441 28.268,25.674 28.390 C 25.907 28.512,26.343 28.660,26.642 28.720 C 26.941 28.780,27.300 28.942,27.438 29.081 C 27.577 29.220,27.863 29.333,28.075 29.333 C 28.286 29.333,28.553 29.446,28.667 29.583 C 28.781 29.721,29.015 29.833,29.188 29.833 C 29.360 29.833,29.781 29.983,30.123 30.167 C 30.465 30.350,30.828 30.500,30.930 30.500 C 31.032 30.500,31.351 30.618,31.639 30.761 C 32.528 31.205,33.074 31.033,33.135 30.290 C 33.172 29.842,33.113 29.636,32.927 29.564 C 32.767 29.503,32.667 29.261,32.667 28.936 C 32.667 28.645,32.565 28.260,32.441 28.079 C 32.316 27.898,32.120 27.243,32.005 26.623 C 31.762 25.322,31.332 24.667,30.720 24.667 C 30.229 24.667,27.964 24.297,25.583 23.828 C 24.306 23.577,23.333 23.508,21.417 23.533 C 17.668 23.582,13.531 21.896,14.279 20.625 C 14.369 20.472,14.173 20.458,15.770 20.739 M206.958 27.564 C 206.530 27.891,206.502 63.735,206.930 63.899 C 207.337 64.055,207.450 64.009,207.125 63.820 C 206.778 63.618,206.661 28.466,207.006 27.822 C 207.170 27.516,207.399 27.500,211.593 27.500 L 216.008 27.500 216.171 27.928 C 216.505 28.807,216.380 63.623,216.042 63.820 C 215.881 63.913,215.829 63.992,215.925 63.995 C 216.495 64.011,216.500 63.868,216.498 45.925 C 216.496 32.013,216.450 28.161,216.284 27.833 L 216.074 27.417 211.662 27.379 C 208.188 27.349,207.188 27.388,206.958 27.564 M224.792 27.458 C 226.006 27.486,227.994 27.486,229.208 27.458 C 230.423 27.429,229.429 27.406,227.000 27.406 C 224.571 27.406,223.577 27.429,224.792 27.458 M335.609 27.458 C 335.566 27.527,336.893 27.564,338.557 27.541 C 344.207 27.461,344.763 27.403,340.218 27.368 C 337.726 27.349,335.651 27.390,335.609 27.458 M351.033 27.533 C 350.923 27.643,350.833 27.808,350.833 27.899 C 350.833 27.989,350.927 27.937,351.042 27.783 C 351.226 27.534,351.759 27.497,355.750 27.457 L 360.250 27.411 355.742 27.372 C 352.413 27.343,351.181 27.386,351.033 27.533 M222.173 27.822 C 221.971 28.200,221.924 63.600,222.125 63.724 C 222.194 63.767,222.231 55.840,222.207 46.109 C 222.180 35.145,222.224 28.242,222.323 27.958 C 222.508 27.428,222.424 27.353,222.173 27.822 M231.627 45.538 C 231.662 59.843,231.628 63.599,231.461 63.814 C 231.273 64.053,231.282 64.058,231.542 63.855 C 231.849 63.613,232.010 28.202,231.706 27.724 C 231.638 27.618,231.603 35.634,231.627 45.538 M335.414 45.750 C 335.414 55.650,335.434 59.675,335.458 54.696 C 335.483 49.716,335.483 41.616,335.458 36.696 C 335.434 31.775,335.414 35.850,335.414 45.750 M111.190 29.184 C 110.381 29.427,110.617 29.506,111.556 29.306 C 112.444 29.116,116.559 29.195,117.083 29.411 C 117.364 29.527,117.382 29.512,117.200 29.316 C 116.933 29.029,112.063 28.922,111.190 29.184 M109.294 29.618 C 109.501 29.658,109.801 29.656,109.960 29.615 C 110.120 29.573,109.950 29.540,109.583 29.542 C 109.217 29.544,109.086 29.578,109.294 29.618 M118.292 29.618 C 118.498 29.657,118.835 29.657,119.042 29.618 C 119.248 29.578,119.079 29.545,118.667 29.545 C 118.254 29.545,118.085 29.578,118.292 29.618 M288.568 29.625 C 297.575 29.656,301.283 29.722,301.443 29.855 C 301.583 29.972,301.667 29.978,301.667 29.872 C 301.667 29.522,300.842 29.501,288.528 29.541 L 275.917 29.581 288.568 29.625 M275.444 29.778 C 275.290 29.932,275.304 37.295,275.458 37.391 C 275.527 37.434,275.562 35.818,275.535 33.801 C 275.501 31.199,275.544 30.065,275.681 29.900 C 275.871 29.670,275.661 29.562,275.444 29.778 M121.740 30.422 C 121.918 30.557,122.139 30.667,122.230 30.667 C 122.322 30.667,122.251 30.557,122.074 30.422 C 121.896 30.287,121.675 30.177,121.583 30.177 C 121.492 30.177,121.562 30.287,121.740 30.422 M301.737 33.667 C 301.737 35.637,301.762 36.444,301.791 35.458 C 301.821 34.473,301.821 32.860,301.791 31.875 C 301.762 30.890,301.737 31.696,301.737 33.667 M104.684 31.598 C 104.372 31.819,104.189 32.000,104.276 32.000 C 104.364 32.000,104.689 31.813,105.000 31.583 C 105.723 31.050,105.436 31.063,104.684 31.598 M124.223 31.284 C 124.391 31.328,124.632 31.600,124.758 31.890 C 124.937 32.302,124.988 32.341,124.993 32.067 C 125.001 31.672,124.510 31.157,124.154 31.186 C 124.017 31.197,124.046 31.239,124.223 31.284 M101.524 35.857 C 101.406 36.045,101.347 36.236,101.392 36.281 C 101.436 36.325,101.560 36.199,101.667 36.000 C 101.919 35.529,101.802 35.412,101.524 35.857 M123.292 36.156 C 122.888 37.013,122.925 37.219,123.342 36.440 C 123.530 36.089,123.661 35.742,123.634 35.669 C 123.606 35.596,123.452 35.815,123.292 36.156 M101.205 37.000 C 101.205 37.321,101.240 37.452,101.282 37.292 C 101.323 37.131,101.323 36.869,101.282 36.708 C 101.240 36.548,101.205 36.679,101.205 37.000 M143.867 36.831 C 143.564 36.903,143.264 37.020,143.200 37.091 C 143.136 37.162,143.233 37.162,143.417 37.090 C 143.600 37.019,144.575 36.906,145.583 36.839 L 147.417 36.718 145.917 36.709 C 145.092 36.705,144.169 36.759,143.867 36.831 M160.033 36.831 C 159.731 36.903,159.431 37.019,159.367 37.089 C 159.302 37.159,159.438 37.159,159.667 37.091 C 159.896 37.022,160.946 36.910,162.000 36.843 L 163.917 36.722 162.250 36.711 C 161.333 36.705,160.336 36.759,160.033 36.831 M186.533 36.831 C 186.231 36.903,185.931 37.020,185.867 37.091 C 185.802 37.162,185.900 37.158,186.083 37.082 C 186.267 37.006,187.729 36.895,189.333 36.835 L 192.250 36.726 189.667 36.713 C 188.246 36.707,186.836 36.759,186.533 36.831 M315.250 36.788 C 314.975 36.827,314.675 36.939,314.583 37.037 C 314.466 37.163,314.516 37.175,314.750 37.080 C 314.933 37.005,316.396 36.895,318.000 36.835 L 320.917 36.726 318.333 36.721 C 316.912 36.719,315.525 36.749,315.250 36.788 M147.833 37.000 C 148.476 37.206,148.818 37.206,148.500 37.000 C 148.362 36.911,148.063 36.845,147.833 36.852 L 147.417 36.867 147.833 37.000 M131.550 37.291 C 132.449 37.321,133.874 37.321,134.717 37.291 C 135.560 37.261,134.825 37.236,133.083 37.236 C 131.342 37.236,130.652 37.261,131.550 37.291 M184.458 37.284 C 184.665 37.324,185.002 37.324,185.208 37.284 C 185.415 37.245,185.246 37.212,184.833 37.212 C 184.421 37.212,184.252 37.245,184.458 37.284 M313.127 37.285 C 313.334 37.324,313.634 37.323,313.794 37.281 C 313.953 37.239,313.783 37.207,313.417 37.209 C 313.050 37.211,312.920 37.245,313.127 37.285 M371.219 37.291 C 372.576 37.319,374.751 37.319,376.052 37.291 C 377.353 37.263,376.242 37.240,373.583 37.240 C 370.925 37.240,369.861 37.263,371.219 37.291 M150.167 37.583 C 150.714 37.896,150.985 37.900,150.574 37.589 C 150.396 37.454,150.137 37.344,150.000 37.345 C 149.855 37.345,149.925 37.445,150.167 37.583 M157.667 37.583 C 157.438 37.714,157.325 37.822,157.417 37.822 C 157.508 37.822,157.771 37.714,158.000 37.583 C 158.229 37.452,158.342 37.345,158.250 37.345 C 158.158 37.345,157.896 37.452,157.667 37.583 M277.884 37.625 C 278.967 37.654,280.692 37.654,281.718 37.624 C 282.744 37.595,281.858 37.571,279.750 37.571 C 277.642 37.572,276.802 37.595,277.884 37.625 M295.551 37.625 C 296.633 37.654,298.358 37.654,299.384 37.624 C 300.410 37.595,299.525 37.571,297.417 37.571 C 295.308 37.572,294.469 37.595,295.551 37.625 M118.574 37.907 C 118.751 38.050,119.014 38.161,119.157 38.154 C 119.381 38.142,119.383 38.128,119.167 38.048 C 119.029 37.997,118.767 37.886,118.583 37.802 C 118.255 37.651,118.255 37.652,118.574 37.907 M293.413 50.667 C 293.413 57.862,293.433 60.806,293.458 57.208 C 293.483 53.610,293.483 47.723,293.458 44.125 C 293.433 40.527,293.413 43.471,293.413 50.667 M180.833 38.083 C 180.569 38.401,180.817 38.398,181.240 38.078 C 181.499 37.882,181.512 37.833,181.302 37.833 C 181.158 37.833,180.947 37.946,180.833 38.083 M309.576 38.011 C 309.400 38.297,309.558 38.325,309.907 38.070 C 310.177 37.872,310.186 37.833,309.958 37.833 C 309.809 37.833,309.637 37.913,309.576 38.011 M179.671 38.493 C 179.275 38.744,179.545 38.797,180.000 38.558 C 180.230 38.437,180.304 38.338,180.167 38.338 C 180.029 38.338,179.806 38.408,179.671 38.493 M308.240 38.578 C 307.819 38.896,308.002 38.900,308.606 38.584 C 308.869 38.447,308.966 38.335,308.824 38.334 C 308.681 38.334,308.418 38.443,308.240 38.578 M122.213 38.745 C 122.089 38.967,121.977 38.983,121.589 38.836 C 121.173 38.677,121.142 38.686,121.329 38.911 C 121.445 39.052,121.672 39.167,121.833 39.167 C 122.146 39.167,122.609 38.720,122.456 38.567 C 122.405 38.516,122.296 38.597,122.213 38.745 M100.935 39.070 C 100.879 39.291,100.904 39.647,100.990 39.861 C 101.120 40.187,101.147 40.121,101.156 39.458 C 101.168 38.587,101.090 38.451,100.935 39.070 M326.401 39.142 C 326.754 39.540,326.833 39.576,326.833 39.339 C 326.833 39.251,326.665 39.090,326.458 38.982 C 326.085 38.786,326.085 38.787,326.401 39.142 M178.398 39.238 C 178.348 39.369,178.335 39.650,178.369 39.863 C 178.415 40.148,178.453 40.085,178.515 39.625 C 178.603 38.978,178.557 38.825,178.398 39.238 M327.000 39.593 C 327.000 39.775,327.791 40.667,327.952 40.667 C 328.011 40.667,327.877 40.460,327.657 40.208 C 327.436 39.956,327.198 39.679,327.127 39.592 C 327.047 39.492,327.000 39.493,327.000 39.593 M376.417 40.667 C 376.153 40.942,376.008 41.163,376.094 41.157 C 376.241 41.149,377.100 40.167,376.961 40.167 C 376.925 40.167,376.680 40.392,376.417 40.667 M365.026 41.500 C 364.823 41.775,364.684 42.000,364.717 42.000 C 364.751 42.000,364.979 41.775,365.224 41.500 C 365.469 41.225,365.608 41.000,365.533 41.000 C 365.457 41.000,365.230 41.225,365.026 41.500 M101.205 41.833 C 101.205 42.154,101.240 42.285,101.282 42.125 C 101.323 41.965,101.323 41.702,101.282 41.542 C 101.240 41.381,101.205 41.512,101.205 41.833 M170.598 42.152 C 170.665 42.282,170.775 42.619,170.843 42.902 C 170.956 43.375,170.967 43.382,170.983 42.990 C 170.992 42.756,170.882 42.418,170.738 42.240 C 170.593 42.062,170.530 42.023,170.598 42.152 M328.935 42.583 C 329.072 43.196,329.168 43.329,329.164 42.903 C 329.163 42.727,329.085 42.471,328.992 42.333 C 328.869 42.151,328.853 42.218,328.935 42.583 M308.500 43.480 C 308.500 43.582,308.570 43.667,308.654 43.667 C 308.739 43.667,308.843 43.798,308.885 43.958 C 308.949 44.204,308.964 44.208,308.981 43.979 C 308.991 43.830,308.887 43.614,308.750 43.500 C 308.577 43.357,308.500 43.350,308.500 43.480 M186.786 43.769 C 186.730 43.826,186.436 43.931,186.133 44.002 C 185.681 44.110,185.657 44.134,186.000 44.142 C 186.456 44.153,187.580 43.702,187.153 43.680 C 187.008 43.673,186.843 43.713,186.786 43.769 M189.238 43.813 C 189.287 43.894,189.498 44.003,189.706 44.055 C 190.070 44.147,190.072 44.142,189.760 43.908 C 189.402 43.641,189.097 43.585,189.238 43.813 M315.453 43.769 C 315.396 43.826,315.103 43.937,314.800 44.016 C 314.264 44.157,314.267 44.159,314.902 44.086 C 315.487 44.020,316.181 43.667,315.728 43.667 C 315.633 43.667,315.509 43.713,315.453 43.769 M318.074 43.922 C 318.251 44.057,318.514 44.166,318.657 44.166 C 318.800 44.165,318.702 44.053,318.439 43.916 C 317.835 43.600,317.653 43.604,318.074 43.922 M329.279 43.833 C 329.354 43.971,329.460 44.533,329.516 45.083 L 329.616 46.083 329.641 45.157 C 329.658 44.531,329.582 44.126,329.404 43.907 C 329.260 43.729,329.203 43.696,329.279 43.833 M373.529 44.189 C 373.316 44.452,373.213 44.667,373.301 44.667 C 373.465 44.667,374.072 43.843,373.972 43.758 C 373.941 43.732,373.742 43.926,373.529 44.189 M312.926 44.422 C 312.667 44.618,312.655 44.667,312.864 44.667 C 313.008 44.667,313.219 44.554,313.333 44.417 C 313.597 44.099,313.350 44.102,312.926 44.422 M319.299 44.666 C 319.456 44.940,319.645 45.165,319.720 45.166 C 319.795 45.166,319.696 44.942,319.500 44.667 C 319.042 44.024,318.934 44.024,319.299 44.666 M360.333 45.209 C 360.333 45.783,360.259 46.512,360.167 46.831 C 360.014 47.366,360.091 48.131,360.279 47.943 C 360.402 47.820,360.552 44.167,360.434 44.167 C 360.379 44.167,360.333 44.636,360.333 45.209 M119.545 44.667 C 119.779 44.850,120.024 45.000,120.090 45.000 C 120.157 45.000,120.021 44.850,119.788 44.667 C 119.555 44.483,119.310 44.333,119.243 44.333 C 119.176 44.333,119.312 44.483,119.545 44.667 M171.104 44.667 C 171.410 45.669,171.368 63.562,171.059 63.788 C 170.900 63.905,170.850 64.000,170.948 64.000 C 171.491 64.000,171.514 63.581,171.465 54.225 C 171.427 46.863,171.371 44.847,171.197 44.583 C 170.991 44.271,170.985 44.277,171.104 44.667 M142.211 44.620 C 142.464 44.658,142.839 44.657,143.044 44.617 C 143.249 44.578,143.042 44.546,142.583 44.548 C 142.125 44.549,141.957 44.581,142.211 44.620 M158.460 44.618 C 158.668 44.658,158.968 44.656,159.127 44.615 C 159.286 44.573,159.117 44.540,158.750 44.542 C 158.383 44.544,158.253 44.578,158.460 44.618 M309.150 44.750 C 309.594 45.583,310.019 45.874,310.249 45.502 C 310.305 45.410,310.245 45.378,310.112 45.429 C 309.970 45.483,309.691 45.297,309.423 44.968 C 309.176 44.665,309.053 44.567,309.150 44.750 M102.833 45.500 C 103.124 45.867,103.399 46.167,103.445 46.167 C 103.491 46.167,103.290 45.867,103.000 45.500 C 102.710 45.133,102.434 44.833,102.389 44.833 C 102.343 44.833,102.543 45.133,102.833 45.500 M372.801 45.125 C 372.508 45.467,372.287 45.833,372.375 45.833 C 372.409 45.833,372.604 45.608,372.807 45.333 C 373.209 44.790,373.205 44.655,372.801 45.125 M144.348 45.199 C 144.494 45.319,144.656 45.529,144.710 45.667 C 144.789 45.869,144.810 45.863,144.820 45.631 C 144.827 45.474,144.665 45.263,144.458 45.163 C 144.140 45.009,144.123 45.015,144.348 45.199 M180.809 45.376 C 180.893 45.460,181.139 45.500,181.356 45.466 C 181.689 45.414,181.666 45.390,181.203 45.314 C 180.872 45.259,180.716 45.283,180.809 45.376 M191.109 45.667 C 191.168 45.987,191.218 46.346,191.220 46.464 C 191.221 46.582,191.286 46.614,191.363 46.537 C 191.441 46.459,191.391 46.101,191.253 45.740 L 191.001 45.083 191.109 45.667 M200.966 54.360 C 201.013 62.957,200.997 63.590,200.726 63.788 C 200.567 63.905,200.511 64.000,200.601 64.000 C 201.146 64.000,201.167 63.649,201.150 54.758 C 201.141 49.895,201.085 45.743,201.025 45.531 C 200.965 45.318,200.939 49.292,200.966 54.360 M371.360 46.833 C 371.156 47.108,371.051 47.333,371.126 47.333 C 371.200 47.333,371.394 47.108,371.557 46.833 C 371.719 46.558,371.825 46.333,371.791 46.333 C 371.757 46.333,371.563 46.558,371.360 46.833 M318.167 46.683 C 317.204 46.758,316.117 46.895,315.750 46.989 L 315.083 47.158 315.833 47.087 C 316.246 47.047,317.316 46.965,318.211 46.904 C 319.106 46.843,319.879 46.727,319.929 46.647 C 319.979 46.566,319.996 46.511,319.968 46.523 C 319.940 46.536,319.129 46.608,318.167 46.683 M187.767 46.851 C 185.513 47.180,187.414 47.165,190.083 46.833 L 191.083 46.709 189.917 46.708 C 189.275 46.708,188.308 46.772,187.767 46.851 M161.358 47.083 C 161.353 47.267,161.449 47.904,161.571 48.500 C 161.694 49.096,161.799 49.396,161.806 49.167 C 161.813 48.938,161.717 48.300,161.593 47.750 C 161.469 47.200,161.363 46.900,161.358 47.083 M183.240 47.411 C 183.062 47.546,182.995 47.658,183.092 47.661 C 183.188 47.664,183.338 47.598,183.425 47.514 C 183.512 47.430,183.771 47.328,184.000 47.287 L 184.417 47.212 183.990 47.189 C 183.756 47.177,183.418 47.277,183.240 47.411 M261.404 51.000 C 261.404 52.971,261.428 53.777,261.458 52.792 C 261.487 51.806,261.487 50.194,261.458 49.208 C 261.428 48.223,261.404 49.029,261.404 51.000 M370.349 48.147 C 369.870 48.751,369.855 48.810,370.126 49.022 C 370.380 49.221,370.392 49.218,370.219 48.996 C 370.059 48.790,370.115 48.636,370.511 48.182 C 370.780 47.874,371.000 47.594,371.000 47.561 C 371.000 47.392,370.814 47.560,370.349 48.147 M139.185 48.362 C 139.063 48.791,139.004 49.241,139.052 49.362 C 139.101 49.484,139.146 49.410,139.154 49.197 C 139.161 48.985,139.246 48.662,139.344 48.480 C 139.441 48.298,139.495 48.022,139.464 47.866 C 139.432 47.711,139.307 47.934,139.185 48.362 M181.407 47.926 C 181.089 48.181,181.089 48.183,181.417 48.032 C 181.600 47.947,181.862 47.837,182.000 47.786 C 182.216 47.706,182.215 47.691,181.990 47.680 C 181.847 47.673,181.585 47.783,181.407 47.926 M310.074 47.926 C 309.755 48.181,309.755 48.183,310.083 48.032 C 310.267 47.947,310.529 47.837,310.667 47.786 C 310.883 47.706,310.881 47.691,310.657 47.680 C 310.514 47.673,310.251 47.783,310.074 47.926 M155.266 48.783 C 155.208 49.132,155.130 49.867,155.092 50.417 C 155.054 50.967,155.054 51.229,155.094 51.000 C 155.133 50.771,155.253 50.077,155.359 49.457 C 155.466 48.838,155.513 48.291,155.463 48.241 C 155.413 48.191,155.324 48.435,155.266 48.783 M145.373 55.925 C 145.333 63.637,145.357 64.000,145.899 64.000 C 145.989 64.000,145.937 63.906,145.782 63.792 C 145.527 63.602,145.497 62.887,145.457 55.917 L 145.413 48.250 145.373 55.925 M306.573 49.875 L 306.083 50.417 306.666 49.917 C 306.986 49.642,307.280 49.398,307.319 49.375 C 307.357 49.352,307.315 49.333,307.226 49.333 C 307.136 49.333,306.842 49.577,306.573 49.875 M113.333 51.895 C 113.333 51.940,113.690 52.216,114.125 52.509 C 114.560 52.801,114.790 52.901,114.636 52.729 C 114.342 52.401,113.333 51.756,113.333 51.895 M124.947 52.667 C 125.002 53.079,125.073 53.448,125.107 53.486 C 125.232 53.631,125.137 52.568,124.996 52.250 C 124.897 52.027,124.881 52.166,124.947 52.667 M189.629 52.456 C 190.021 52.491,190.621 52.490,190.963 52.454 C 191.304 52.419,190.983 52.390,190.250 52.390 C 189.517 52.391,189.237 52.420,189.629 52.456 M304.662 52.676 C 304.561 52.864,304.503 53.093,304.533 53.183 C 304.563 53.274,304.674 53.120,304.780 52.841 C 304.999 52.260,304.933 52.169,304.662 52.676 M318.208 52.455 C 318.552 52.491,319.115 52.491,319.458 52.455 C 319.802 52.419,319.521 52.389,318.833 52.389 C 318.146 52.389,317.865 52.419,318.208 52.455 M187.417 52.771 L 186.917 53.014 187.417 52.912 C 187.692 52.856,187.988 52.740,188.075 52.655 C 188.304 52.430,188.008 52.483,187.417 52.771 M175.828 53.343 C 175.728 53.531,175.670 53.759,175.700 53.850 C 175.730 53.940,175.841 53.786,175.946 53.507 C 176.165 52.927,176.100 52.836,175.828 53.343 M115.083 54.331 C 115.083 54.957,114.989 55.247,114.667 55.612 L 114.250 56.083 114.682 55.704 C 115.240 55.214,115.520 54.338,115.269 53.868 C 115.111 53.573,115.083 53.641,115.083 54.331 M125.023 53.917 C 125.008 54.100,124.954 54.438,124.903 54.667 C 124.823 55.026,124.836 55.043,124.999 54.787 C 125.103 54.625,125.157 54.287,125.119 54.037 C 125.074 53.741,125.040 53.699,125.023 53.917 M101.417 53.954 C 101.600 53.999,101.862 54.122,102.000 54.226 C 102.217 54.392,102.220 54.379,102.021 54.125 C 101.895 53.965,101.633 53.842,101.438 53.853 C 101.101 53.871,101.100 53.876,101.417 53.954 M185.543 54.452 C 185.430 54.694,185.367 54.923,185.405 54.960 C 185.505 55.061,185.864 54.341,185.802 54.163 C 185.774 54.079,185.657 54.209,185.543 54.452 M100.701 58.115 C 100.682 60.333,100.723 62.182,100.792 62.225 C 100.860 62.267,100.897 61.090,100.874 59.609 C 100.794 54.577,100.735 54.073,100.701 58.115 M191.186 54.850 C 191.084 55.143,191.005 55.466,191.012 55.567 C 191.018 55.667,191.131 55.457,191.262 55.098 C 191.394 54.739,191.472 54.417,191.437 54.381 C 191.401 54.345,191.288 54.556,191.186 54.850 M247.836 54.458 C 247.841 54.701,248.130 55.040,248.279 54.979 C 248.363 54.945,248.296 54.785,248.132 54.625 C 247.968 54.465,247.834 54.390,247.836 54.458 M304.268 54.597 C 304.126 54.967,304.146 57.043,304.294 57.276 C 304.362 57.382,304.417 56.763,304.417 55.901 C 304.417 54.204,304.417 54.208,304.268 54.597 M261.069 54.831 C 260.968 54.932,258.512 55.014,254.744 55.042 L 248.583 55.088 254.771 55.127 C 260.101 55.161,260.988 55.132,261.167 54.917 C 261.398 54.638,261.325 54.575,261.069 54.831 M361.083 56.268 L 360.417 56.865 361.125 56.335 C 361.735 55.879,361.955 55.659,361.792 55.669 C 361.769 55.671,361.450 55.940,361.083 56.268 M108.417 56.255 C 109.252 56.556,109.366 56.554,108.833 56.250 C 108.604 56.119,108.267 56.012,108.083 56.013 C 107.900 56.014,108.050 56.123,108.417 56.255 M113.574 56.245 C 113.396 56.379,113.325 56.489,113.417 56.489 C 113.508 56.489,113.729 56.379,113.907 56.245 C 114.085 56.110,114.155 56.000,114.064 56.000 C 113.972 56.000,113.751 56.110,113.574 56.245 M185.344 56.083 C 185.344 56.175,185.454 56.396,185.589 56.574 C 185.723 56.751,185.833 56.822,185.833 56.730 C 185.833 56.639,185.723 56.418,185.589 56.240 C 185.454 56.062,185.344 55.992,185.344 56.083 M314.169 56.480 C 314.184 57.066,315.389 57.692,316.371 57.623 L 317.250 57.562 316.304 57.531 C 315.479 57.504,315.280 57.428,314.762 56.939 C 314.435 56.630,314.168 56.424,314.169 56.480 M364.500 57.120 C 364.500 57.217,364.654 57.473,364.843 57.690 L 365.186 58.083 364.894 57.583 C 364.508 56.925,364.500 56.915,364.500 57.120 M187.208 57.619 C 187.460 57.658,187.873 57.658,188.125 57.619 C 188.377 57.581,188.171 57.550,187.667 57.550 C 187.162 57.550,186.956 57.581,187.208 57.619 M175.678 58.083 C 175.678 58.267,175.787 58.562,175.922 58.740 C 176.232 59.150,176.232 59.022,175.923 58.311 C 175.755 57.923,175.679 57.853,175.678 58.083 M365.667 59.076 C 365.667 59.143,365.817 59.388,366.000 59.621 C 366.183 59.854,366.333 59.990,366.333 59.924 C 366.333 59.857,366.183 59.612,366.000 59.379 C 365.817 59.146,365.667 59.010,365.667 59.076 M305.516 61.073 C 305.709 61.400,305.898 61.667,305.937 61.667 C 306.056 61.667,305.515 60.696,305.334 60.584 C 305.242 60.527,305.324 60.747,305.516 61.073 M377.500 60.576 C 377.500 60.643,377.650 60.888,377.833 61.121 C 378.017 61.354,378.167 61.490,378.167 61.424 C 378.167 61.357,378.017 61.112,377.833 60.879 C 377.650 60.646,377.500 60.510,377.500 60.576 M121.809 60.951 C 121.777 61.027,121.534 61.257,121.269 61.461 C 121.005 61.666,120.855 61.831,120.936 61.827 C 121.179 61.817,122.078 61.023,121.969 60.914 C 121.914 60.858,121.841 60.875,121.809 60.951 M321.000 60.952 C 321.137 61.003,321.345 61.120,321.462 61.213 C 321.621 61.338,321.648 61.312,321.569 61.107 C 321.512 60.956,321.304 60.839,321.107 60.846 C 320.863 60.855,320.829 60.889,321.000 60.952 M177.163 61.495 C 177.357 61.767,177.601 62.043,177.705 62.107 C 177.809 62.171,177.684 61.948,177.427 61.612 C 176.870 60.881,176.660 60.788,177.163 61.495 M178.583 62.898 C 178.950 63.227,179.319 63.496,179.403 63.498 C 179.487 63.499,179.524 63.477,179.486 63.449 C 179.448 63.421,179.079 63.151,178.667 62.850 L 177.917 62.302 178.583 62.898 M367.833 62.576 C 367.833 62.643,367.983 62.888,368.167 63.121 C 368.350 63.354,368.500 63.490,368.500 63.424 C 368.500 63.357,368.350 63.112,368.167 62.879 C 367.983 62.646,367.833 62.510,367.833 62.576 M118.752 62.997 C 118.696 63.088,118.410 63.231,118.117 63.316 C 117.776 63.414,117.704 63.475,117.917 63.484 C 118.100 63.492,118.475 63.349,118.750 63.167 C 119.025 62.985,119.161 62.835,119.052 62.834 C 118.942 62.834,118.807 62.907,118.752 62.997 M189.523 63.172 C 189.007 63.603,189.240 63.598,189.788 63.167 C 190.021 62.983,190.145 62.836,190.064 62.839 C 189.983 62.842,189.740 62.992,189.523 63.172 M318.190 63.172 C 317.973 63.352,317.874 63.500,317.970 63.500 C 318.138 63.500,318.667 63.048,318.667 62.905 C 318.667 62.791,318.607 62.824,318.190 63.172 M193.833 63.486 C 193.833 63.655,194.482 64.076,194.581 63.972 C 194.610 63.941,194.454 63.782,194.234 63.617 C 194.013 63.453,193.833 63.394,193.833 63.486 M106.613 64.180 C 106.712 64.279,107.121 64.392,107.521 64.433 L 108.250 64.505 107.417 64.260 C 106.393 63.959,106.392 63.959,106.613 64.180 M114.961 64.095 C 114.909 64.147,114.502 64.256,114.058 64.337 L 113.250 64.485 114.214 64.437 C 115.059 64.394,116.050 64.000,115.311 64.000 C 115.171 64.000,115.013 64.043,114.961 64.095 M186.500 64.260 C 185.974 64.459,185.959 64.482,186.343 64.491 C 186.578 64.496,186.915 64.390,187.093 64.255 C 187.482 63.961,187.287 63.963,186.500 64.260 M309.926 64.245 C 310.104 64.379,310.400 64.489,310.583 64.488 C 310.814 64.487,310.744 64.412,310.356 64.243 C 309.644 63.935,309.517 63.935,309.926 64.245 M315.572 64.157 C 315.487 64.240,315.192 64.340,314.917 64.379 L 314.417 64.450 314.917 64.472 C 315.422 64.495,315.983 64.260,315.817 64.095 C 315.768 64.046,315.658 64.074,315.572 64.157 " stroke="none" fill="#f7ba0a" fill-rule="evenodd"></path><path id="path3" d="M14.279 20.625 C 13.531 21.896,17.668 23.582,21.417 23.533 C 23.333 23.508,24.306 23.577,25.583 23.828 C 27.964 24.297,30.229 24.667,30.720 24.667 C 31.332 24.667,31.762 25.322,32.005 26.623 C 32.120 27.243,32.316 27.898,32.441 28.079 C 32.565 28.260,32.667 28.645,32.667 28.936 C 32.667 29.261,32.767 29.503,32.927 29.564 C 33.113 29.636,33.172 29.842,33.135 30.290 C 33.074 31.033,32.528 31.205,31.639 30.761 C 31.351 30.618,31.032 30.500,30.930 30.500 C 30.828 30.500,30.465 30.350,30.123 30.167 C 29.781 29.983,29.360 29.833,29.188 29.833 C 29.015 29.833,28.781 29.721,28.667 29.583 C 28.553 29.446,28.286 29.333,28.075 29.333 C 27.863 29.333,27.577 29.220,27.438 29.081 C 27.300 28.942,26.941 28.780,26.642 28.720 C 26.343 28.660,25.907 28.512,25.674 28.390 C 25.441 28.268,25.100 28.166,24.917 28.162 C 24.733 28.159,24.438 28.046,24.260 27.911 C 24.082 27.777,23.611 27.667,23.213 27.667 C 22.815 27.667,22.220 27.554,21.891 27.417 C 21.134 27.100,20.487 27.098,20.074 27.411 C 19.896 27.546,19.606 27.658,19.431 27.661 C 19.116 27.667,18.988 27.759,18.167 28.571 C 17.367 29.363,17.267 29.563,17.204 30.487 C 17.072 32.415,18.793 34.405,22.475 36.579 C 23.437 37.147,24.930 38.092,25.000 38.177 C 25.144 38.351,27.183 39.516,28.919 40.416 C 29.836 40.892,30.736 41.365,30.919 41.467 C 31.101 41.570,31.662 41.847,32.167 42.084 C 32.671 42.320,33.196 42.587,33.333 42.675 C 33.471 42.764,33.921 42.989,34.333 43.174 C 35.647 43.763,37.721 44.912,38.623 45.550 C 39.104 45.889,39.543 46.167,39.599 46.167 C 39.656 46.167,40.035 46.392,40.443 46.667 C 40.850 46.942,41.243 47.167,41.317 47.167 C 41.390 47.167,41.742 47.377,42.100 47.634 C 42.457 47.891,43.109 48.274,43.547 48.485 C 43.986 48.696,44.436 48.957,44.547 49.065 C 45.018 49.521,49.392 51.878,50.331 52.181 C 50.561 52.256,51.275 52.508,51.917 52.742 C 53.714 53.397,55.587 53.643,59.615 53.751 C 64.376 53.880,65.036 54.053,67.784 55.898 C 68.315 56.255,68.825 56.630,68.917 56.732 C 69.008 56.833,69.533 57.280,70.083 57.723 C 70.633 58.167,71.786 59.180,72.644 59.973 C 75.088 62.234,76.357 62.969,76.741 62.348 C 76.793 62.264,77.116 62.147,77.459 62.087 C 79.148 61.793,78.814 60.890,76.160 58.583 C 71.075 54.164,67.731 52.591,62.333 52.079 C 53.521 51.243,52.801 51.038,47.349 47.797 C 45.204 46.522,43.318 45.568,41.000 44.584 C 39.769 44.062,34.964 41.603,34.333 41.172 C 34.104 41.016,33.778 40.837,33.608 40.776 C 33.438 40.714,32.545 40.203,31.624 39.641 C 30.703 39.078,28.846 38.111,27.497 37.493 C 23.617 35.714,20.823 33.622,19.901 31.803 C 18.260 28.564,20.254 27.369,24.583 28.998 C 26.582 29.750,28.150 30.292,29.167 30.583 C 29.579 30.701,30.479 30.998,31.167 31.243 C 34.746 32.520,39.027 33.695,44.694 34.953 C 48.543 35.808,53.000 33.672,53.000 30.973 C 53.000 30.340,51.459 27.146,50.681 26.167 C 50.427 25.846,50.088 25.331,49.928 25.023 C 49.655 24.495,49.600 24.468,48.984 24.567 C 48.506 24.643,48.159 24.584,47.698 24.349 C 47.243 24.117,46.418 23.975,44.742 23.838 C 43.463 23.734,42.004 23.580,41.500 23.496 C 40.996 23.412,39.908 23.228,39.083 23.088 C 35.220 22.429,32.837 22.144,29.917 21.991 C 28.175 21.900,26.000 21.715,25.083 21.581 C 24.167 21.446,22.704 21.297,21.833 21.249 C 17.885 21.033,17.038 20.962,15.770 20.739 C 14.173 20.458,14.369 20.472,14.279 20.625 " stroke="none" fill="#c86804" fill-rule="evenodd"></path><path id="path4" d="M207.006 27.822 C 206.635 28.516,206.781 63.627,207.156 63.827 C 207.353 63.933,209.072 64.000,211.583 64.000 C 214.094 64.000,215.814 63.933,216.011 63.827 C 216.377 63.632,216.531 28.876,216.171 27.928 L 216.008 27.500 211.593 27.500 C 207.399 27.500,207.170 27.516,207.006 27.822 M222.329 27.928 C 221.969 28.876,222.123 63.632,222.489 63.827 C 222.970 64.085,231.207 64.060,231.467 63.800 C 231.679 63.588,231.775 28.311,231.566 27.764 C 231.477 27.532,230.915 27.500,226.978 27.500 L 222.492 27.500 222.329 27.928 M335.611 27.611 C 335.338 27.885,335.488 63.793,335.764 63.899 C 336.229 64.077,344.332 64.012,344.678 63.827 C 344.999 63.655,345.214 28.585,344.899 27.764 C 344.793 27.489,335.880 27.343,335.611 27.611 M351.006 27.822 C 350.741 28.317,350.768 63.535,351.033 63.800 C 351.318 64.085,360.015 64.085,360.300 63.800 C 360.443 63.657,360.500 62.609,360.500 60.139 L 360.500 56.678 361.608 55.839 C 362.797 54.939,363.324 54.804,363.585 55.332 C 363.864 55.893,365.374 58.412,365.485 58.500 C 365.543 58.546,365.683 58.771,365.797 59.000 C 365.911 59.229,366.152 59.642,366.333 59.917 C 366.514 60.192,366.739 60.567,366.833 60.750 C 366.927 60.933,367.302 61.533,367.667 62.083 C 368.031 62.633,368.400 63.242,368.485 63.436 C 368.728 63.983,368.891 64.000,374.077 64.000 C 380.132 64.000,379.885 64.133,378.266 61.741 C 377.355 60.395,377.185 60.128,377.051 59.833 C 376.988 59.696,376.689 59.228,376.385 58.793 C 376.082 58.359,375.833 57.928,375.833 57.835 C 375.833 57.742,375.756 57.667,375.663 57.667 C 375.569 57.667,375.415 57.498,375.322 57.292 C 375.128 56.863,374.943 56.554,374.250 55.500 C 373.979 55.087,373.680 54.624,373.587 54.469 C 373.493 54.315,373.198 53.827,372.931 53.386 C 372.664 52.944,372.400 52.546,372.344 52.500 C 372.180 52.365,371.696 51.611,370.698 49.934 C 370.395 49.424,370.074 48.962,369.985 48.908 C 369.850 48.824,371.174 46.941,371.738 46.417 C 371.885 46.279,372.459 45.573,374.039 43.583 C 374.112 43.492,374.339 43.222,374.544 42.985 C 374.749 42.747,375.123 42.297,375.375 41.985 C 376.492 40.601,377.220 39.720,377.566 39.333 C 379.388 37.294,379.469 37.333,373.526 37.333 L 368.541 37.333 367.479 38.641 C 366.895 39.360,366.267 40.156,366.083 40.409 C 365.900 40.663,365.671 40.956,365.575 41.060 C 365.265 41.396,362.758 44.526,362.504 44.894 C 362.117 45.455,360.691 47.395,360.498 47.623 C 360.403 47.736,360.250 47.999,360.159 48.206 C 360.036 48.489,360.017 48.354,360.086 47.667 C 360.136 47.163,360.246 46.038,360.330 45.167 C 360.500 43.421,360.555 28.474,360.395 27.875 L 360.294 27.500 355.736 27.500 C 351.401 27.500,351.170 27.516,351.006 27.822 M215.915 28.375 C 215.968 28.673,215.990 36.717,215.964 46.250 L 215.917 63.583 211.542 63.628 L 207.167 63.672 207.167 46.016 C 207.167 36.306,207.212 28.242,207.268 28.097 C 207.356 27.866,207.895 27.833,211.594 27.833 L 215.818 27.833 215.915 28.375 M231.292 45.792 L 231.335 63.667 227.001 63.667 L 222.667 63.667 222.667 45.861 C 222.667 36.068,222.718 28.004,222.781 27.942 C 222.843 27.879,224.774 27.848,227.072 27.872 L 231.250 27.917 231.292 45.792 M344.467 28.033 C 344.620 28.186,344.667 32.393,344.667 45.953 L 344.667 63.672 340.208 63.628 L 335.750 63.583 335.708 46.032 C 335.679 34.123,335.721 28.377,335.838 28.157 C 336.051 27.760,344.078 27.645,344.467 28.033 M359.967 28.033 C 360.302 28.369,360.245 42.021,359.892 45.633 C 359.531 49.333,359.681 49.679,360.843 47.825 C 361.250 47.175,361.659 46.555,361.752 46.447 C 361.845 46.338,362.238 45.837,362.626 45.333 C 363.013 44.829,363.390 44.342,363.464 44.250 C 363.537 44.158,364.154 43.371,364.835 42.500 C 365.516 41.629,366.114 40.879,366.164 40.833 C 366.403 40.614,367.667 39.026,367.667 38.944 C 367.667 38.894,367.926 38.569,368.243 38.223 L 368.819 37.594 373.112 37.575 C 375.473 37.565,377.610 37.600,377.861 37.653 L 378.318 37.750 377.479 38.833 C 377.017 39.429,376.475 40.104,376.275 40.333 C 376.074 40.563,375.465 41.313,374.922 42.000 C 374.379 42.688,373.888 43.288,373.831 43.333 C 373.773 43.379,373.156 44.129,372.459 45.000 C 371.761 45.871,370.851 46.996,370.435 47.500 C 369.525 48.604,369.509 48.784,370.226 49.888 C 370.533 50.362,371.366 51.650,372.076 52.750 C 372.786 53.850,373.510 54.953,373.684 55.202 C 373.858 55.450,374.000 55.691,374.000 55.738 C 374.000 55.785,374.290 56.256,374.645 56.786 C 375.431 57.962,377.185 60.646,377.416 61.027 C 377.508 61.180,377.832 61.722,378.135 62.232 C 378.439 62.742,378.758 63.203,378.844 63.256 C 379.396 63.598,378.585 63.667,374.004 63.667 L 369.009 63.667 368.749 63.208 C 368.607 62.956,368.361 62.550,368.203 62.306 C 368.046 62.062,367.545 61.237,367.091 60.473 C 366.637 59.709,366.219 59.046,366.163 59.000 C 366.106 58.954,366.007 58.804,365.943 58.667 C 365.879 58.529,365.659 58.138,365.455 57.798 C 363.122 53.915,363.365 54.082,361.779 55.272 C 360.053 56.568,360.167 56.222,360.167 60.185 L 360.167 63.667 355.667 63.667 L 351.167 63.667 351.167 45.950 C 351.167 32.393,351.214 28.186,351.367 28.033 C 351.651 27.749,359.682 27.749,359.967 28.033 M111.250 29.353 C 110.883 29.442,110.171 29.578,109.667 29.656 C 106.355 30.166,101.833 33.511,101.833 35.449 C 101.833 35.620,101.702 35.945,101.542 36.171 C 101.101 36.794,101.112 41.760,101.557 42.838 C 102.824 45.913,104.149 47.259,107.884 49.263 C 108.635 49.666,109.362 50.039,109.500 50.092 C 110.053 50.304,110.833 50.666,112.533 51.499 C 118.802 54.569,113.590 58.240,106.417 55.807 C 106.142 55.714,105.617 55.565,105.250 55.476 C 104.883 55.387,104.512 55.244,104.425 55.157 C 104.338 55.071,104.159 55.000,104.027 55.000 C 103.895 55.000,103.441 54.840,103.018 54.644 C 100.702 53.571,100.917 53.222,100.917 58.059 L 100.917 62.201 101.500 62.497 C 103.039 63.279,105.208 64.000,106.020 64.000 C 106.275 64.000,106.916 64.112,107.444 64.250 C 108.507 64.527,112.540 64.583,113.833 64.339 C 114.246 64.261,115.068 64.111,115.661 64.006 C 116.254 63.901,116.816 63.754,116.911 63.680 C 117.006 63.606,117.308 63.496,117.583 63.434 C 118.246 63.285,119.667 62.622,119.667 62.461 C 119.667 62.391,119.739 62.333,119.827 62.333 C 120.834 62.333,124.167 58.564,124.167 57.426 C 124.167 57.306,124.279 57.114,124.417 57.000 C 124.563 56.879,124.669 56.506,124.673 56.105 C 124.676 55.726,124.776 55.004,124.896 54.500 C 125.073 53.752,125.074 53.399,124.901 52.583 C 124.784 52.033,124.683 51.270,124.677 50.887 C 124.671 50.503,124.554 50.078,124.417 49.940 C 124.279 49.803,124.167 49.643,124.167 49.585 C 124.167 48.861,122.738 46.919,121.530 46.000 C 121.228 45.771,120.824 45.452,120.632 45.292 C 120.440 45.131,120.223 45.000,120.150 45.000 C 120.076 45.000,119.691 44.780,119.294 44.512 C 118.896 44.244,118.370 43.974,118.126 43.912 C 117.881 43.851,117.593 43.695,117.486 43.567 C 117.380 43.438,117.161 43.333,117.000 43.333 C 116.839 43.333,116.614 43.221,116.500 43.083 C 116.386 42.946,116.170 42.833,116.021 42.832 C 115.872 42.832,115.525 42.682,115.250 42.500 C 114.975 42.318,114.651 42.168,114.530 42.168 C 114.409 42.167,114.197 42.054,114.060 41.917 C 113.922 41.779,113.669 41.667,113.498 41.667 C 113.327 41.667,113.137 41.587,113.077 41.490 C 113.017 41.392,112.806 41.239,112.609 41.149 C 110.488 40.183,110.017 38.312,111.659 37.375 C 112.478 36.907,115.321 36.834,116.500 37.250 C 116.890 37.387,117.366 37.500,117.559 37.500 C 117.863 37.500,118.994 37.883,120.083 38.356 C 121.698 39.056,122.465 38.996,122.500 38.167 C 122.506 38.029,122.621 37.771,122.755 37.593 C 122.890 37.415,123.000 37.140,123.000 36.982 C 123.000 36.823,123.111 36.481,123.248 36.222 C 123.687 35.386,124.167 34.192,124.167 33.936 C 124.167 33.799,124.240 33.641,124.329 33.586 C 125.085 33.119,124.826 31.431,123.969 31.244 C 123.665 31.178,123.269 31.021,123.088 30.895 C 122.907 30.770,122.603 30.667,122.411 30.667 C 122.220 30.667,121.918 30.557,121.740 30.422 C 121.562 30.287,121.212 30.175,120.962 30.172 C 120.711 30.169,120.224 30.063,119.878 29.937 C 118.284 29.355,112.781 28.983,111.250 29.353 M116.750 29.760 C 118.894 29.913,123.444 31.165,124.231 31.817 C 124.572 32.100,124.563 32.262,124.167 33.083 C 123.990 33.450,123.842 33.838,123.839 33.945 C 123.836 34.052,123.727 34.352,123.597 34.611 C 123.466 34.871,123.233 35.421,123.077 35.833 C 122.042 38.579,121.848 38.784,120.791 38.250 C 116.755 36.211,111.318 36.168,110.416 38.169 C 109.770 39.600,110.872 40.757,114.609 42.571 C 116.785 43.627,118.835 44.659,119.583 45.074 C 121.151 45.943,122.854 47.470,123.259 48.371 C 123.394 48.671,123.575 49.029,123.661 49.167 C 124.793 50.978,124.882 55.172,123.835 57.387 C 123.559 57.971,123.333 58.509,123.333 58.582 C 123.333 58.765,122.213 60.130,121.517 60.794 C 120.601 61.670,118.017 63.140,117.367 63.157 C 117.156 63.162,116.762 63.281,116.492 63.421 C 116.016 63.667,114.076 63.939,111.511 64.119 C 110.057 64.221,105.631 63.731,104.967 63.395 C 104.719 63.269,104.365 63.167,104.181 63.167 C 103.839 63.167,103.149 62.905,101.872 62.292 L 101.160 61.950 101.205 58.269 C 101.256 54.112,101.214 54.222,102.529 54.794 C 104.686 55.733,105.728 56.056,108.583 56.674 C 114.962 58.055,118.426 54.036,113.141 51.386 C 112.559 51.095,111.333 50.510,110.417 50.087 C 109.500 49.664,108.638 49.250,108.500 49.167 C 108.362 49.084,107.912 48.848,107.500 48.643 C 107.087 48.438,106.395 48.021,105.960 47.718 C 105.526 47.415,105.130 47.167,105.081 47.167 C 104.972 47.167,103.167 45.371,103.167 45.262 C 103.167 45.219,102.947 44.858,102.679 44.460 C 102.410 44.063,102.141 43.515,102.081 43.244 C 102.021 42.972,101.865 42.467,101.736 42.122 C 101.402 41.233,101.412 37.533,101.750 36.724 C 101.888 36.395,102.001 36.004,102.002 35.855 C 102.007 35.054,105.055 31.500,105.736 31.500 C 105.821 31.500,106.009 31.393,106.154 31.263 C 106.423 31.020,107.145 30.734,108.931 30.162 C 109.990 29.823,113.206 29.496,114.500 29.595 C 114.912 29.627,115.925 29.701,116.750 29.760 M275.684 29.896 C 275.551 30.056,275.507 31.222,275.538 33.771 L 275.583 37.417 279.583 37.500 L 283.583 37.583 283.626 50.630 L 283.669 63.676 284.095 63.838 C 284.554 64.012,292.631 64.067,293.070 63.899 C 293.307 63.808,293.333 62.492,293.333 50.732 C 293.333 43.546,293.352 37.651,293.375 37.632 C 293.398 37.614,295.254 37.557,297.500 37.507 L 301.583 37.417 301.628 33.771 C 301.660 31.222,301.616 30.056,301.483 29.896 C 301.199 29.554,275.968 29.554,275.684 29.896 M301.250 33.667 L 301.250 37.250 297.258 37.295 C 294.319 37.328,293.231 37.394,293.135 37.545 C 293.064 37.658,293.004 43.582,293.003 50.711 L 293.000 63.672 288.625 63.628 L 284.250 63.583 284.167 50.500 L 284.083 37.417 280.120 37.372 L 276.156 37.327 275.995 36.903 C 275.776 36.327,275.786 30.733,276.006 30.321 C 276.176 30.005,276.455 29.999,288.715 30.041 L 301.250 30.083 301.250 33.667 M143.333 37.099 C 142.737 37.240,142.038 37.462,141.778 37.594 C 141.519 37.726,141.234 37.833,141.146 37.833 C 140.856 37.833,139.931 38.561,138.940 39.568 L 137.964 40.561 137.652 40.156 C 137.481 39.933,137.339 39.549,137.337 39.304 C 137.335 39.058,137.239 38.758,137.124 38.637 C 137.009 38.516,136.838 38.192,136.745 37.917 L 136.576 37.417 133.184 37.371 C 130.823 37.340,129.723 37.384,129.563 37.517 C 129.140 37.868,129.231 63.600,129.656 63.827 C 130.148 64.091,138.358 64.058,138.716 63.792 C 138.970 63.603,139.001 62.884,139.040 56.083 C 139.092 47.090,139.198 46.433,140.824 45.066 C 141.631 44.387,143.683 44.350,144.338 45.003 C 145.371 46.033,145.481 47.102,145.491 56.202 C 145.500 63.395,145.511 63.661,145.822 63.827 C 146.200 64.029,154.473 64.065,154.786 63.866 C 154.939 63.769,155.005 61.967,155.053 56.577 C 155.139 46.742,155.515 45.169,157.903 44.632 C 161.363 43.855,161.833 45.261,161.833 56.372 C 161.833 62.989,161.862 63.809,162.097 63.899 C 162.648 64.110,170.756 64.010,171.059 63.788 C 171.406 63.534,171.376 46.119,171.024 43.930 C 170.582 41.175,168.278 37.833,166.820 37.833 C 166.666 37.833,166.447 37.721,166.333 37.583 C 166.219 37.446,165.919 37.333,165.667 37.333 C 165.415 37.333,164.890 37.221,164.500 37.083 C 161.949 36.183,157.351 37.318,155.250 39.366 C 154.226 40.365,153.821 40.348,152.791 39.264 C 150.984 37.363,146.533 36.345,143.333 37.099 M186.167 37.087 C 185.662 37.215,184.891 37.322,184.453 37.326 C 184.015 37.330,183.387 37.446,183.058 37.583 C 182.729 37.721,182.258 37.833,182.012 37.833 C 181.765 37.833,181.418 37.943,181.240 38.078 C 181.062 38.213,180.819 38.325,180.699 38.328 C 180.580 38.331,180.167 38.472,179.783 38.642 C 179.398 38.812,178.952 38.997,178.792 39.054 C 178.474 39.165,178.360 40.333,178.667 40.333 C 178.758 40.333,178.833 40.422,178.833 40.531 C 178.833 40.708,179.018 41.154,179.750 42.750 C 180.074 43.455,180.597 44.692,180.729 45.064 C 180.864 45.447,182.258 45.355,182.873 44.924 C 183.075 44.783,183.434 44.667,183.670 44.667 C 183.907 44.667,184.183 44.584,184.284 44.483 C 184.551 44.216,186.550 43.807,188.020 43.719 C 189.883 43.607,190.716 44.091,191.224 45.583 C 191.652 46.837,191.760 46.805,186.023 47.157 C 184.707 47.238,183.548 47.385,183.448 47.485 C 183.348 47.585,183.052 47.667,182.789 47.667 C 182.116 47.667,179.969 48.541,178.917 49.244 C 176.308 50.986,174.786 55.569,175.917 58.276 C 176.054 58.605,176.167 59.013,176.167 59.182 C 176.167 59.782,177.430 61.854,178.164 62.458 C 178.953 63.107,180.218 63.852,180.691 63.946 C 180.990 64.006,181.426 64.155,181.659 64.277 C 182.251 64.586,185.596 64.575,186.536 64.262 C 186.929 64.130,187.550 63.970,187.917 63.906 C 188.283 63.842,188.906 63.574,189.300 63.311 C 189.694 63.048,190.082 62.833,190.162 62.833 C 190.242 62.833,190.809 62.346,191.423 61.750 C 192.699 60.511,192.624 60.549,192.837 61.042 C 192.926 61.248,193.069 61.529,193.154 61.667 C 193.240 61.804,193.472 62.274,193.670 62.710 C 194.242 63.967,194.340 64.000,197.548 64.000 C 199.164 64.000,200.492 63.927,200.678 63.827 C 201.362 63.461,201.063 43.663,200.362 42.962 C 200.255 42.855,200.167 42.599,200.167 42.393 C 200.167 42.188,200.091 41.973,199.997 41.915 C 199.904 41.858,199.722 41.572,199.593 41.280 C 198.825 39.553,196.109 37.736,193.417 37.149 C 191.975 36.835,187.316 36.795,186.167 37.087 M314.750 37.093 C 314.200 37.217,313.429 37.322,313.036 37.326 C 312.644 37.330,312.053 37.446,311.724 37.583 C 311.395 37.721,310.924 37.833,310.678 37.833 C 310.432 37.833,310.085 37.943,309.907 38.078 C 309.729 38.213,309.485 38.325,309.366 38.328 C 309.246 38.331,308.834 38.472,308.449 38.642 C 308.065 38.812,307.609 39.001,307.437 39.062 C 307.077 39.189,307.153 40.202,307.583 40.985 C 307.928 41.614,308.500 42.956,308.500 43.137 C 308.500 43.223,308.612 43.386,308.750 43.500 C 308.887 43.614,309.000 43.870,309.000 44.068 C 309.000 45.289,310.123 45.661,311.526 44.905 C 311.769 44.774,312.093 44.667,312.245 44.667 C 312.397 44.667,312.686 44.575,312.886 44.462 C 313.397 44.174,315.194 43.820,316.635 43.722 C 318.645 43.586,320.000 44.524,320.000 46.052 C 320.000 46.833,320.184 46.781,316.661 46.999 C 312.277 47.270,311.068 47.519,308.667 48.643 C 305.337 50.203,304.000 53.053,304.489 57.547 C 304.588 58.461,304.780 59.355,304.918 59.552 C 305.055 59.747,305.167 60.003,305.167 60.119 C 305.167 61.142,308.372 64.000,309.520 64.000 C 309.670 64.000,310.083 64.122,310.438 64.270 C 311.169 64.576,315.131 64.535,315.533 64.217 C 315.652 64.123,316.081 63.995,316.485 63.933 C 316.889 63.871,317.549 63.599,317.952 63.327 C 318.354 63.056,318.742 62.833,318.814 62.833 C 318.885 62.833,319.401 62.383,319.960 61.833 C 321.250 60.563,321.290 60.570,322.053 62.167 C 322.403 62.900,322.803 63.612,322.940 63.750 C 323.302 64.111,329.193 64.120,329.492 63.760 C 329.643 63.578,329.677 61.223,329.634 54.052 C 329.571 43.729,329.604 44.109,328.567 41.881 C 328.178 41.045,327.935 40.723,326.800 39.536 C 326.231 38.942,324.513 37.837,324.145 37.828 C 324.019 37.825,323.771 37.713,323.593 37.578 C 323.415 37.443,323.031 37.333,322.739 37.333 C 322.447 37.333,321.890 37.221,321.500 37.083 C 320.587 36.761,316.193 36.767,314.750 37.093 M147.917 37.424 C 148.993 37.529,150.778 38.098,151.137 38.450 C 151.258 38.569,151.448 38.667,151.559 38.667 C 151.670 38.667,152.219 39.117,152.779 39.667 C 153.977 40.842,154.166 40.873,155.010 40.030 C 155.360 39.679,155.970 39.173,156.365 38.905 C 156.760 38.637,157.121 38.375,157.167 38.323 C 157.390 38.070,159.398 37.500,160.591 37.351 C 164.268 36.891,167.412 37.924,169.259 40.200 C 169.702 40.745,170.466 42.708,170.675 43.833 C 170.751 44.246,170.818 48.877,170.823 54.125 L 170.833 63.667 166.514 63.667 L 162.194 63.667 162.120 55.458 C 162.050 47.748,162.026 47.196,161.711 46.364 C 160.398 42.884,156.389 43.402,155.211 47.204 C 154.982 47.943,154.924 49.322,154.844 55.833 L 154.750 63.583 150.375 63.628 L 146.000 63.672 146.000 56.698 C 146.000 47.712,145.827 46.256,144.594 44.860 C 143.281 43.374,140.565 43.999,139.640 46.000 C 138.695 48.044,138.769 47.303,138.672 55.750 L 138.583 63.583 134.125 63.628 L 129.667 63.672 129.669 50.878 C 129.671 43.101,129.734 37.985,129.830 37.833 C 129.992 37.576,135.329 37.435,136.054 37.668 C 136.355 37.766,137.164 39.483,137.166 40.030 C 137.167 40.369,137.603 40.833,137.921 40.833 C 138.153 40.833,138.526 40.498,139.374 39.528 C 140.345 38.418,141.809 37.749,144.000 37.415 C 145.363 37.207,145.708 37.208,147.917 37.424 M191.868 37.344 C 196.363 37.809,198.996 39.774,200.231 43.583 C 200.468 44.313,200.502 45.619,200.501 54.042 L 200.500 63.667 197.520 63.667 L 194.539 63.667 193.721 62.043 C 192.729 60.071,192.700 60.064,191.277 61.414 C 190.650 62.009,189.937 62.603,189.693 62.734 C 186.067 64.680,181.642 64.605,178.865 62.552 C 178.203 62.063,177.000 60.677,177.000 60.403 C 177.000 60.339,176.859 59.978,176.686 59.602 C 175.753 57.571,175.820 53.983,176.826 52.016 C 178.393 48.952,182.508 47.365,188.946 47.342 C 192.031 47.331,192.352 47.038,191.436 45.070 C 190.697 43.482,188.368 42.825,186.131 43.572 C 185.738 43.703,185.124 43.863,184.766 43.929 C 184.407 43.994,183.920 44.148,183.682 44.272 C 183.444 44.396,183.133 44.498,182.990 44.499 C 182.847 44.500,182.585 44.610,182.407 44.745 C 181.884 45.140,181.043 45.072,180.916 44.625 C 180.858 44.419,180.706 44.025,180.578 43.750 C 180.107 42.737,179.294 40.899,179.048 40.290 C 178.767 39.592,178.942 39.167,179.511 39.167 C 179.677 39.167,179.856 39.098,179.908 39.014 C 180.008 38.852,181.383 38.386,183.167 37.909 C 183.762 37.750,185.375 37.527,186.750 37.415 C 190.109 37.141,189.926 37.143,191.868 37.344 M320.535 37.341 C 325.365 37.831,328.196 40.221,329.015 44.500 C 329.284 45.903,329.319 47.087,329.326 54.875 L 329.333 63.667 326.270 63.667 L 323.207 63.667 322.421 62.083 C 321.477 60.182,321.224 60.087,320.119 61.221 C 315.499 65.963,307.041 64.843,305.202 59.246 C 303.655 54.538,305.884 49.352,309.839 48.460 C 310.065 48.409,310.475 48.292,310.750 48.199 C 312.381 47.651,313.756 47.463,316.750 47.380 C 320.451 47.277,320.411 47.293,320.271 45.949 C 320.040 43.742,317.540 42.656,314.797 43.572 C 314.405 43.703,313.783 43.864,313.417 43.930 C 313.050 43.996,312.225 44.264,311.583 44.525 C 309.750 45.270,309.891 45.349,308.884 43.000 C 308.403 41.879,308.193 41.411,307.831 40.650 C 307.388 39.719,307.440 39.270,308.002 39.192 C 308.230 39.161,308.500 39.066,308.602 38.982 C 309.545 38.209,313.765 37.435,318.368 37.191 C 318.617 37.177,319.592 37.245,320.535 37.341 M248.333 47.288 C 247.874 47.463,247.838 47.733,247.836 51.042 C 247.834 54.113,247.856 54.356,248.167 54.667 C 248.574 55.074,260.735 55.199,261.133 54.800 C 261.472 54.461,261.412 47.399,261.070 47.268 C 260.737 47.140,248.672 47.159,248.333 47.288 M261.062 47.875 C 261.193 48.366,261.197 53.895,261.066 54.236 C 260.943 54.557,249.078 54.643,248.489 54.327 C 248.046 54.091,247.992 48.490,248.426 47.870 L 248.686 47.500 254.823 47.500 L 260.961 47.500 261.062 47.875 M188.556 52.120 C 187.926 52.158,187.450 52.276,187.327 52.424 C 187.216 52.558,187.004 52.669,186.855 52.673 C 185.621 52.700,184.581 55.364,185.298 56.661 C 185.959 57.859,188.554 58.439,189.484 57.598 C 189.645 57.452,189.860 57.333,189.963 57.333 C 190.856 57.333,191.860 55.209,191.798 53.453 L 191.750 52.083 190.667 52.070 C 190.071 52.063,189.121 52.086,188.556 52.120 M317.250 52.164 C 314.721 52.449,313.197 54.276,313.803 56.297 C 314.680 59.225,319.609 58.137,320.312 54.861 C 320.910 52.072,320.587 51.787,317.250 52.164 M191.500 53.396 C 191.500 56.974,187.171 59.341,185.608 56.617 C 184.314 54.364,186.432 52.438,190.292 52.358 L 191.500 52.333 191.500 53.396 M320.000 53.840 C 320.000 55.390,319.875 55.741,318.994 56.661 C 318.112 57.583,315.857 57.938,314.942 57.300 C 313.484 56.282,314.031 53.319,315.753 52.906 C 316.027 52.841,316.325 52.729,316.417 52.657 C 316.630 52.492,317.443 52.394,318.875 52.360 L 320.000 52.333 320.000 53.840 " stroke="none" fill="#989899" fill-rule="evenodd"></path></g></svg>