<svg id="svg" version="1.1" xmlns="http://www.w3.org/2000/svg" xmlns:xlink="http://www.w3.org/1999/xlink" width="400" height="115.85365853658536" viewBox="0, 0, 400,115.85365853658536"><g id="svgg"><path id="path0" d="M204.114 39.275 C 204.051 39.338,204.000 48.030,204.000 58.592 L 204.000 77.794 204.375 77.895 C 204.937 78.045,213.051 78.016,213.292 77.862 C 213.458 77.757,213.493 73.771,213.459 58.490 L 213.417 39.250 208.822 39.206 C 206.295 39.181,204.176 39.213,204.114 39.275 M220.780 39.275 C 220.505 39.551,220.653 77.793,220.930 77.899 C 221.273 78.030,229.300 78.027,229.792 77.895 L 230.168 77.794 230.126 58.522 L 230.083 39.250 225.489 39.206 C 222.962 39.181,220.843 39.213,220.780 39.275 M316.280 39.275 C 316.218 39.338,316.167 48.035,316.167 58.604 L 316.167 77.818 316.708 77.916 C 317.006 77.970,319.125 77.992,321.417 77.965 L 325.583 77.917 325.583 58.583 L 325.583 39.250 320.989 39.206 C 318.462 39.181,316.343 39.213,316.280 39.275 M333.041 58.539 L 333.083 77.917 337.250 77.965 C 339.542 77.992,341.660 77.970,341.958 77.916 L 342.500 77.818 342.500 74.007 L 342.500 70.196 343.042 69.757 C 343.340 69.515,343.871 69.077,344.223 68.784 C 345.335 67.855,346.181 67.758,346.427 68.533 C 346.491 68.733,346.796 69.258,347.105 69.697 C 347.414 70.137,347.667 70.557,347.667 70.631 C 347.667 70.706,348.079 71.390,348.583 72.152 C 349.087 72.914,349.500 73.587,349.500 73.647 C 349.500 73.708,349.798 74.206,350.162 74.754 C 350.526 75.302,350.826 75.844,350.829 75.958 C 350.831 76.073,350.912 76.167,351.009 76.167 C 351.105 76.167,351.262 76.392,351.358 76.667 C 351.454 76.942,351.588 77.167,351.656 77.167 C 351.724 77.167,351.865 77.354,351.970 77.583 L 352.160 78.000 357.233 78.000 C 363.504 78.000,363.523 77.992,361.708 76.034 C 361.594 75.911,361.500 75.744,361.500 75.665 C 361.500 75.585,361.061 74.859,360.524 74.052 C 358.673 71.267,357.833 69.972,357.833 69.901 C 357.833 69.862,357.571 69.456,357.250 69.000 C 356.929 68.544,356.667 68.106,356.667 68.028 C 356.667 67.949,356.517 67.749,356.333 67.583 C 356.150 67.417,356.000 67.218,356.000 67.139 C 356.000 67.061,355.738 66.623,355.417 66.167 C 355.096 65.710,354.833 65.307,354.833 65.270 C 354.833 65.234,354.418 64.577,353.910 63.810 C 352.880 62.255,352.713 61.809,352.962 61.279 C 353.117 60.951,355.258 58.233,355.787 57.694 C 355.907 57.571,356.210 57.196,356.460 56.861 C 356.710 56.525,356.954 56.212,357.001 56.167 C 357.049 56.121,357.419 55.671,357.824 55.167 C 358.230 54.663,358.641 54.175,358.739 54.083 C 358.837 53.992,359.139 53.617,359.412 53.250 C 359.684 52.883,360.046 52.433,360.217 52.250 C 360.756 51.672,362.000 49.973,362.000 49.817 C 362.000 49.731,359.852 49.667,356.992 49.667 L 351.983 49.667 351.429 50.208 C 351.125 50.506,349.733 52.212,348.337 54.000 C 346.941 55.788,345.713 57.325,345.608 57.417 C 345.503 57.508,345.192 57.921,344.917 58.333 C 344.642 58.746,344.342 59.168,344.250 59.271 C 344.158 59.374,343.746 59.991,343.333 60.642 C 342.010 62.729,341.859 62.083,342.305 56.250 C 342.450 54.357,342.504 51.066,342.469 46.333 L 342.417 39.250 337.708 39.206 L 332.999 39.161 333.041 58.539 M99.781 41.186 C 99.615 41.282,98.994 41.430,98.400 41.514 C 97.807 41.598,97.155 41.772,96.952 41.901 C 96.749 42.029,96.340 42.185,96.044 42.246 C 95.747 42.308,95.466 42.420,95.420 42.495 C 95.374 42.569,94.942 42.836,94.460 43.088 C 88.563 46.167,88.127 56.210,93.727 59.940 C 94.106 60.192,94.492 60.479,94.583 60.577 C 94.675 60.674,94.938 60.846,95.167 60.959 C 95.396 61.072,95.715 61.240,95.875 61.332 C 96.544 61.717,96.823 61.861,98.333 62.600 C 99.204 63.026,100.761 63.790,101.792 64.297 C 104.790 65.770,105.571 66.827,105.020 68.664 C 104.635 69.950,102.574 70.795,100.266 70.615 C 98.622 70.486,95.716 70.037,95.371 69.859 C 95.213 69.777,94.787 69.657,94.425 69.591 C 94.063 69.526,93.615 69.366,93.430 69.236 C 93.244 69.106,92.945 69.000,92.766 69.000 C 92.451 69.000,91.427 68.583,90.450 68.056 C 89.514 67.552,89.500 67.611,89.500 71.976 L 89.500 75.962 89.958 76.267 C 90.498 76.626,91.778 77.114,92.833 77.362 C 93.246 77.459,93.674 77.612,93.785 77.701 C 93.981 77.858,95.572 78.049,98.833 78.306 C 99.859 78.387,100.975 78.358,102.000 78.224 C 102.871 78.110,103.958 78.012,104.417 78.007 C 104.875 78.002,105.459 77.889,105.715 77.755 C 105.971 77.622,106.458 77.460,106.797 77.397 C 107.476 77.269,108.479 76.821,109.750 76.076 C 110.733 75.500,113.333 72.898,113.333 72.490 C 113.333 72.335,113.446 72.114,113.583 72.000 C 113.721 71.886,113.833 71.707,113.833 71.602 C 113.833 71.497,113.978 71.142,114.155 70.812 C 115.849 67.650,114.406 61.469,111.435 59.164 C 110.967 58.801,110.508 58.445,110.417 58.374 C 110.106 58.133,107.921 56.915,107.083 56.515 C 106.625 56.296,106.138 56.053,106.000 55.974 C 105.862 55.896,105.638 55.788,105.500 55.736 C 105.362 55.683,104.650 55.352,103.917 55.000 C 103.183 54.648,102.471 54.316,102.333 54.261 C 102.196 54.207,101.886 54.033,101.645 53.873 C 101.405 53.714,100.992 53.444,100.729 53.273 C 98.885 52.078,98.903 49.940,100.764 49.011 C 101.749 48.519,105.142 48.513,106.667 49.000 C 107.241 49.183,107.832 49.334,107.980 49.334 C 108.129 49.335,108.465 49.447,108.727 49.584 C 108.990 49.721,109.329 49.833,109.480 49.833 C 109.631 49.833,110.016 49.973,110.336 50.144 C 111.867 50.965,111.953 50.907,112.903 48.409 C 113.146 47.771,113.454 47.038,113.589 46.778 C 113.723 46.519,113.833 46.216,113.833 46.105 C 113.833 45.994,113.983 45.611,114.165 45.253 C 114.918 43.777,114.657 43.140,113.160 42.790 C 112.794 42.704,112.389 42.574,110.583 41.962 C 110.308 41.869,109.708 41.723,109.250 41.637 C 108.792 41.552,107.954 41.373,107.389 41.241 C 106.151 40.951,100.259 40.908,99.781 41.186 M251.875 41.610 C 251.696 41.683,251.534 49.056,251.708 49.201 C 251.731 49.220,253.700 49.277,256.083 49.326 L 260.417 49.417 260.459 63.574 C 260.493 74.646,260.547 77.760,260.709 77.863 C 260.950 78.016,269.511 78.049,269.903 77.899 C 270.141 77.808,270.167 76.397,270.167 63.649 C 270.167 55.867,270.185 49.484,270.208 49.465 C 270.231 49.446,272.237 49.390,274.667 49.340 L 279.083 49.250 279.083 45.417 L 279.083 41.583 265.583 41.554 C 258.158 41.538,251.990 41.563,251.875 41.610 M135.500 49.507 C 133.470 49.735,131.356 50.854,130.306 52.257 C 129.522 53.305,128.500 53.437,128.500 52.489 C 128.500 52.323,128.433 52.145,128.350 52.094 C 128.268 52.043,128.112 51.634,128.004 51.185 C 127.644 49.681,127.562 49.653,123.735 49.705 L 120.417 49.750 120.417 63.833 L 120.417 77.917 125.083 77.917 L 129.750 77.917 129.833 69.917 C 129.895 63.952,129.970 61.824,130.125 61.553 C 130.240 61.352,130.333 60.956,130.333 60.671 C 130.333 57.967,133.644 55.790,135.861 57.035 C 137.616 58.022,137.708 58.588,137.821 69.083 L 137.917 77.917 142.250 77.964 C 144.633 77.989,146.743 77.971,146.937 77.924 C 147.291 77.838,147.291 77.826,147.377 69.544 C 147.459 61.630,147.479 61.206,147.815 60.296 C 148.008 59.771,148.168 59.246,148.169 59.129 C 148.186 57.786,151.690 56.154,153.053 56.854 C 155.126 57.919,155.333 59.108,155.333 69.925 C 155.333 76.950,155.362 77.809,155.597 77.899 C 155.941 78.031,164.226 78.031,164.570 77.899 C 164.878 77.781,164.958 61.748,164.670 57.819 C 164.291 52.638,161.795 49.874,157.121 49.458 C 154.395 49.215,150.000 49.856,150.000 50.497 C 150.000 50.570,149.825 50.675,149.611 50.728 C 149.396 50.782,148.703 51.315,148.069 51.913 C 146.651 53.250,146.617 53.250,145.244 51.917 C 144.630 51.321,144.030 50.833,143.909 50.833 C 143.789 50.833,143.575 50.718,143.434 50.576 C 142.511 49.653,138.736 49.145,135.500 49.507 M181.500 49.489 C 179.720 49.614,177.692 50.014,176.703 50.434 C 176.402 50.562,176.027 50.667,175.869 50.668 C 175.712 50.668,175.384 50.773,175.141 50.899 C 174.898 51.026,174.434 51.218,174.110 51.325 C 173.445 51.544,173.294 51.891,173.601 52.500 C 173.716 52.729,173.966 53.273,174.155 53.708 C 174.345 54.144,174.650 54.827,174.833 55.227 C 175.017 55.626,175.167 56.067,175.167 56.206 C 175.167 56.345,175.274 56.549,175.406 56.658 C 175.538 56.767,175.694 57.076,175.753 57.345 C 175.873 57.892,176.148 57.955,176.808 57.586 C 177.332 57.292,178.487 56.875,179.417 56.643 C 179.783 56.552,180.224 56.401,180.396 56.307 C 181.297 55.818,185.412 55.888,185.926 56.402 C 186.071 56.548,186.253 56.667,186.329 56.667 C 186.933 56.667,187.689 59.594,187.168 59.916 C 187.078 59.972,185.334 60.125,183.293 60.256 C 181.253 60.387,179.246 60.580,178.833 60.684 C 178.421 60.788,177.746 60.939,177.333 61.020 C 176.592 61.165,176.381 61.245,174.750 62.008 C 171.411 63.570,169.384 68.268,170.583 71.667 C 170.721 72.056,170.833 72.536,170.833 72.732 C 170.833 72.928,170.983 73.368,171.167 73.710 C 171.350 74.052,171.500 74.407,171.500 74.499 C 171.500 74.997,173.633 76.965,174.730 77.478 C 177.135 78.606,181.743 78.575,184.041 77.417 C 185.681 76.590,185.840 76.479,186.896 75.406 C 188.389 73.892,188.398 73.895,189.652 76.373 L 190.434 77.917 193.592 77.917 L 196.750 77.917 196.798 67.583 C 196.842 58.337,196.818 57.154,196.570 56.333 C 194.863 50.688,190.781 48.834,181.500 49.489 M293.569 49.487 C 292.553 49.556,291.635 49.666,291.531 49.731 C 291.426 49.796,290.833 49.953,290.212 50.081 C 288.955 50.340,287.632 50.749,287.000 51.074 C 286.771 51.192,286.377 51.337,286.125 51.397 C 285.595 51.523,285.517 52.007,285.902 52.778 C 286.032 53.038,286.267 53.550,286.425 53.917 C 287.031 55.324,287.385 56.105,287.687 56.700 C 287.859 57.039,288.000 57.432,288.000 57.575 C 288.000 57.901,288.403 57.906,288.974 57.586 C 289.493 57.295,290.641 56.879,291.583 56.640 C 291.950 56.548,292.400 56.409,292.583 56.332 C 293.684 55.872,296.996 55.824,297.905 56.256 C 298.854 56.706,299.500 57.775,299.500 58.895 C 299.500 60.070,299.772 59.979,295.460 60.256 C 293.420 60.387,291.412 60.580,291.000 60.684 C 290.587 60.788,289.912 60.939,289.500 61.020 C 288.760 61.164,288.578 61.235,286.894 62.038 C 285.956 62.485,284.465 63.594,284.231 64.018 C 284.150 64.166,283.874 64.600,283.619 64.983 C 282.835 66.158,282.345 68.935,282.624 70.625 C 283.204 74.141,283.703 75.132,285.669 76.668 C 287.935 78.439,293.372 78.923,295.941 77.583 C 296.203 77.447,296.499 77.335,296.599 77.334 C 296.700 77.334,296.917 77.183,297.083 77.000 C 297.249 76.817,297.480 76.667,297.597 76.667 C 297.713 76.667,298.334 76.142,298.977 75.500 C 299.620 74.858,300.250 74.333,300.377 74.333 C 300.651 74.333,301.333 75.021,301.333 75.297 C 301.333 75.402,301.627 76.035,301.986 76.703 L 302.639 77.917 305.861 77.917 L 309.083 77.917 309.082 67.417 C 309.081 57.748,309.058 56.874,308.791 56.383 C 308.631 56.090,308.500 55.691,308.500 55.496 C 308.500 54.304,305.324 50.667,304.283 50.667 C 304.164 50.667,303.995 50.597,303.908 50.512 C 302.968 49.595,298.479 49.149,293.569 49.487 M234.946 60.609 C 234.807 60.749,234.800 67.107,234.938 67.625 L 235.039 68.000 241.845 68.000 L 248.652 68.000 248.750 67.458 C 248.804 67.160,248.826 65.492,248.799 63.750 L 248.750 60.583 241.905 60.540 C 238.140 60.516,235.008 60.547,234.946 60.609 M187.349 65.530 C 187.661 66.113,187.400 68.767,186.959 69.494 C 186.538 70.190,185.974 70.826,185.776 70.830 C 185.699 70.832,185.452 70.978,185.228 71.154 C 184.355 71.841,181.700 71.795,180.928 71.079 C 180.315 70.511,179.927 69.281,180.155 68.628 C 180.253 68.347,180.333 67.956,180.333 67.759 C 180.333 67.076,181.552 66.048,182.791 65.685 C 185.024 65.032,187.046 64.963,187.349 65.530 M299.524 65.570 C 299.795 66.164,299.552 69.049,299.193 69.493 C 299.041 69.682,298.767 70.025,298.583 70.255 C 296.995 72.250,293.127 72.074,292.456 69.976 C 291.701 67.614,293.122 65.994,296.583 65.275 C 297.821 65.017,299.342 65.170,299.524 65.570 " stroke="none" fill="#070707" fill-rule="evenodd"></path><path id="path1" d="M0.000 57.917 L 0.000 115.833 200.000 115.833 L 400.000 115.833 400.000 57.917 L 400.000 0.000 200.000 0.000 L 0.000 0.000 0.000 57.917 M213.843 39.010 C 214.145 39.488,214.040 77.949,213.736 78.066 C 213.204 78.270,203.912 78.178,203.700 77.967 C 203.402 77.669,203.410 39.281,203.708 39.036 C 204.212 38.623,213.583 38.598,213.843 39.010 M230.424 39.006 C 230.753 39.279,230.795 77.639,230.467 77.967 C 230.236 78.198,220.732 78.256,220.374 78.029 C 220.208 77.923,220.174 73.906,220.208 58.495 L 220.250 39.093 220.662 38.888 C 221.232 38.604,230.068 38.711,230.424 39.006 M325.696 38.814 C 326.349 38.923,326.333 38.433,326.333 58.589 C 326.333 77.433,326.327 77.825,326.011 77.994 C 325.528 78.253,316.127 78.227,315.867 77.967 C 315.569 77.669,315.577 39.516,315.875 39.121 C 316.026 38.920,316.403 38.830,317.250 38.792 C 318.277 38.746,325.401 38.765,325.696 38.814 M342.643 38.902 C 342.889 39.054,342.900 58.049,342.654 59.167 C 342.467 60.016,342.294 61.594,342.443 61.084 C 342.497 60.901,342.700 60.589,342.895 60.391 C 343.322 59.958,343.367 59.897,344.393 58.371 C 344.838 57.709,345.269 57.167,345.351 57.167 C 345.433 57.167,345.500 57.058,345.500 56.925 C 345.500 56.792,345.600 56.623,345.723 56.550 C 345.846 56.477,346.015 56.293,346.098 56.143 C 346.236 55.895,346.865 55.116,347.750 54.098 C 347.933 53.887,348.196 53.543,348.333 53.333 C 348.471 53.124,348.733 52.775,348.917 52.558 C 349.100 52.341,349.400 51.968,349.583 51.729 C 349.767 51.491,350.048 51.175,350.208 51.027 C 350.369 50.880,350.500 50.708,350.500 50.646 C 350.500 50.583,350.739 50.262,351.031 49.933 L 351.561 49.333 356.914 49.333 C 363.247 49.333,363.414 49.395,361.687 51.083 C 361.406 51.358,361.174 51.640,361.171 51.708 C 361.169 51.777,361.035 51.968,360.875 52.132 C 360.715 52.297,360.433 52.640,360.250 52.895 C 360.067 53.150,359.767 53.528,359.583 53.734 C 359.162 54.208,358.400 55.139,357.389 56.417 C 356.954 56.967,356.553 57.454,356.499 57.500 C 356.287 57.680,353.569 61.052,353.337 61.422 C 353.113 61.782,353.124 61.860,353.462 62.318 C 353.666 62.594,353.833 62.889,353.833 62.973 C 353.833 63.057,353.954 63.226,354.101 63.348 C 354.248 63.470,354.438 63.723,354.525 63.910 C 354.786 64.478,355.098 64.982,355.390 65.304 C 355.542 65.472,355.667 65.657,355.667 65.715 C 355.667 65.773,356.060 66.410,356.542 67.131 C 357.776 68.979,357.812 69.036,358.043 69.498 C 358.157 69.726,358.351 70.026,358.474 70.164 C 358.887 70.628,359.991 72.414,359.995 72.625 C 359.998 72.740,360.071 72.833,360.158 72.833 C 360.315 72.833,360.596 73.277,361.080 74.292 C 361.222 74.590,361.412 74.833,361.502 74.833 C 361.593 74.833,361.667 74.905,361.667 74.993 C 361.667 75.136,362.290 76.165,362.631 76.583 C 363.908 78.152,363.878 78.161,357.436 78.164 L 351.955 78.167 351.602 77.785 C 351.409 77.576,351.155 77.219,351.040 76.994 C 350.924 76.768,350.681 76.358,350.498 76.083 C 350.316 75.808,350.072 75.396,349.956 75.167 C 349.841 74.938,349.524 74.412,349.251 74.000 C 348.580 72.982,348.380 72.655,348.128 72.167 C 348.009 71.938,347.690 71.412,347.418 71.000 C 346.765 70.010,346.570 69.689,346.226 69.042 C 345.831 68.298,344.718 68.518,344.117 69.458 C 344.043 69.573,343.916 69.667,343.834 69.667 C 343.751 69.667,343.494 69.843,343.262 70.058 L 342.840 70.449 342.795 74.266 L 342.750 78.083 337.731 78.127 C 333.640 78.163,332.676 78.129,332.522 77.943 C 332.382 77.774,332.343 72.655,332.374 58.404 L 332.417 39.093 332.814 38.895 C 333.249 38.678,342.291 38.684,342.643 38.902 M106.685 40.745 C 107.474 40.793,108.440 40.945,108.831 41.083 C 109.222 41.220,109.739 41.334,109.979 41.334 C 110.220 41.335,110.611 41.437,110.849 41.561 C 111.087 41.685,111.574 41.841,111.932 41.907 C 112.290 41.974,112.696 42.125,112.833 42.243 C 112.971 42.361,113.357 42.507,113.692 42.567 C 114.026 42.627,114.392 42.786,114.504 42.921 C 114.616 43.056,114.803 43.167,114.919 43.167 C 115.266 43.167,115.359 43.686,115.087 44.101 C 114.948 44.314,114.833 44.585,114.832 44.702 C 114.832 44.820,114.720 45.129,114.585 45.389 C 114.450 45.649,114.260 46.155,114.163 46.514 C 114.066 46.873,113.923 47.167,113.845 47.167 C 113.768 47.167,113.652 47.444,113.588 47.783 C 113.525 48.122,113.366 48.551,113.236 48.737 C 113.106 48.922,112.999 49.226,112.997 49.412 C 112.987 50.450,111.648 51.643,111.238 50.980 C 111.188 50.899,111.019 50.833,110.863 50.833 C 110.706 50.833,110.299 50.683,109.956 50.500 C 109.614 50.317,109.203 50.164,109.042 50.161 C 108.882 50.158,108.450 50.010,108.083 49.833 C 107.717 49.656,107.117 49.506,106.750 49.500 C 106.383 49.493,105.896 49.381,105.667 49.250 C 105.059 48.903,101.621 48.903,101.333 49.250 C 101.219 49.387,100.986 49.500,100.815 49.500 C 100.518 49.500,99.667 50.616,99.667 51.005 C 99.667 51.532,100.722 52.991,101.107 52.997 C 101.212 52.999,101.341 53.112,101.394 53.250 C 101.446 53.387,101.632 53.500,101.806 53.500 C 101.979 53.500,102.312 53.650,102.545 53.833 C 102.779 54.017,103.079 54.167,103.214 54.167 C 103.349 54.167,103.549 54.274,103.658 54.406 C 103.767 54.538,104.071 54.692,104.333 54.750 C 104.596 54.808,104.900 54.962,105.009 55.094 C 105.118 55.226,105.318 55.333,105.453 55.333 C 105.588 55.333,105.898 55.445,106.141 55.582 C 106.384 55.719,106.771 55.906,107.000 55.998 C 107.229 56.091,107.529 56.233,107.667 56.315 C 107.804 56.397,108.104 56.551,108.333 56.657 C 109.100 57.011,109.745 57.388,109.969 57.612 C 110.091 57.734,110.298 57.833,110.429 57.833 C 110.560 57.833,110.667 57.906,110.667 57.996 C 110.667 58.085,110.873 58.265,111.125 58.396 C 111.826 58.761,113.341 60.311,113.599 60.927 C 113.725 61.230,113.899 61.521,113.985 61.574 C 114.071 61.627,114.190 61.895,114.250 62.169 C 114.311 62.443,114.425 62.667,114.506 62.667 C 114.586 62.667,114.696 62.948,114.751 63.292 C 114.805 63.635,114.959 64.334,115.092 64.844 C 115.403 66.041,115.400 67.893,115.085 68.932 C 114.949 69.382,114.836 69.892,114.835 70.065 C 114.833 70.353,114.630 70.859,113.857 72.497 C 113.706 72.816,113.321 73.353,113.000 73.691 C 112.679 74.030,112.229 74.545,112.000 74.836 C 111.516 75.451,110.570 76.109,108.962 76.950 C 108.711 77.081,108.467 77.251,108.419 77.329 C 108.371 77.407,108.013 77.524,107.624 77.588 C 107.235 77.652,106.842 77.764,106.750 77.837 C 105.849 78.553,98.817 79.135,96.667 78.672 C 96.162 78.564,95.171 78.379,94.464 78.263 C 93.757 78.146,93.082 77.973,92.964 77.877 C 92.846 77.782,92.432 77.652,92.043 77.588 C 91.653 77.524,91.294 77.405,91.244 77.323 C 91.194 77.242,90.852 77.095,90.484 76.996 C 90.116 76.897,89.632 76.656,89.408 76.461 L 89.000 76.107 89.000 71.920 C 89.000 69.194,89.062 67.672,89.177 67.557 C 89.410 67.324,90.765 67.574,91.104 67.913 C 91.243 68.053,91.530 68.167,91.741 68.167 C 91.953 68.167,92.211 68.270,92.316 68.396 C 92.421 68.522,92.824 68.676,93.211 68.738 C 93.599 68.800,94.068 68.950,94.254 69.071 C 94.440 69.192,95.002 69.347,95.504 69.415 C 96.006 69.483,96.621 69.644,96.871 69.772 C 97.204 69.942,98.088 70.008,100.185 70.018 L 103.045 70.031 103.731 69.550 C 105.408 68.373,105.064 66.429,102.991 65.376 C 102.767 65.262,102.471 65.093,102.333 65.001 C 102.196 64.909,101.896 64.758,101.667 64.667 C 101.438 64.576,101.138 64.434,101.000 64.353 C 100.520 64.071,99.212 63.500,99.044 63.500 C 98.951 63.500,98.781 63.387,98.667 63.250 C 98.553 63.112,98.328 63.000,98.169 63.000 C 98.009 63.000,97.688 62.850,97.455 62.667 C 97.221 62.483,96.921 62.333,96.786 62.333 C 96.651 62.333,96.451 62.226,96.342 62.094 C 96.233 61.962,95.930 61.808,95.669 61.751 C 95.408 61.693,95.153 61.538,95.102 61.406 C 95.052 61.275,94.937 61.167,94.847 61.167 C 94.085 61.167,90.667 57.832,90.667 57.089 C 90.667 56.971,90.554 56.781,90.417 56.667 C 90.279 56.553,90.167 56.314,90.167 56.137 C 90.167 55.960,90.015 55.481,89.829 55.074 C 89.326 53.970,89.326 49.365,89.828 48.261 C 90.014 47.853,90.167 47.373,90.167 47.196 C 90.167 47.019,90.279 46.781,90.417 46.667 C 90.554 46.553,90.667 46.367,90.667 46.255 C 90.667 46.143,90.817 45.916,91.000 45.750 C 91.183 45.584,91.333 45.373,91.333 45.282 C 91.333 44.914,94.162 42.500,94.593 42.500 C 94.703 42.500,94.882 42.392,94.991 42.261 C 95.100 42.129,95.428 41.970,95.720 41.906 C 96.011 41.843,96.398 41.688,96.579 41.562 C 96.760 41.436,97.081 41.333,97.292 41.333 C 97.504 41.333,97.956 41.213,98.297 41.066 C 98.680 40.901,99.713 40.753,101.000 40.677 C 103.028 40.557,103.700 40.566,106.685 40.745 M279.316 41.229 C 279.450 41.390,279.493 42.642,279.461 45.437 L 279.417 49.417 275.083 49.507 C 272.700 49.557,270.731 49.613,270.708 49.632 C 270.685 49.651,270.667 56.034,270.667 63.816 C 270.667 76.564,270.641 77.974,270.403 78.066 C 269.731 78.323,260.372 78.173,260.268 77.903 C 260.212 77.758,260.167 71.309,260.167 63.572 L 260.167 49.505 255.708 49.461 L 251.250 49.417 251.205 45.473 C 251.167 42.052,251.196 41.495,251.426 41.265 C 251.799 40.891,279.007 40.856,279.316 41.229 M51.134 46.688 C 51.771 46.976,53.380 48.282,55.010 49.833 C 55.515 50.314,57.421 52.436,57.860 53.007 C 58.104 53.324,58.535 53.875,58.818 54.231 C 59.102 54.588,59.334 54.925,59.334 54.981 C 59.335 55.037,59.544 55.308,59.801 55.583 C 60.422 56.250,61.667 57.949,61.667 58.130 C 61.667 58.849,65.424 63.180,68.907 66.476 C 72.297 69.683,73.500 70.959,73.500 71.345 C 73.500 72.831,71.317 76.395,69.629 77.666 C 65.809 80.541,65.262 80.608,62.984 78.477 C 61.406 77.002,59.214 75.269,58.379 74.836 C 57.663 74.464,57.383 74.428,52.000 74.016 C 50.266 73.883,49.707 73.769,48.667 73.333 C 47.979 73.046,47.229 72.750,47.000 72.677 C 46.771 72.604,46.283 72.372,45.917 72.161 C 45.550 71.949,44.950 71.603,44.583 71.391 C 44.217 71.179,43.748 70.931,43.542 70.840 C 43.335 70.749,43.167 70.615,43.167 70.541 C 43.167 70.467,42.960 70.316,42.708 70.205 C 42.456 70.094,41.973 69.834,41.634 69.626 C 39.935 68.587,37.863 67.424,35.833 66.371 C 34.596 65.729,33.246 65.009,32.833 64.771 C 32.421 64.533,31.933 64.258,31.750 64.159 C 25.331 60.703,23.676 57.845,27.064 56.071 C 28.321 55.413,30.560 55.898,34.417 57.664 C 35.959 58.370,36.207 58.203,35.663 56.824 C 35.482 56.364,35.333 55.771,35.333 55.506 C 35.333 54.754,34.979 54.540,33.544 54.424 C 32.832 54.366,31.950 54.238,31.583 54.139 C 31.217 54.041,29.792 53.909,28.417 53.847 C 25.693 53.724,25.377 53.630,24.051 52.546 C 22.326 51.137,22.251 49.781,23.842 48.774 C 24.334 48.463,24.150 48.472,29.561 48.494 C 31.841 48.503,33.828 48.474,33.978 48.429 C 34.128 48.385,35.600 48.267,37.250 48.167 C 40.028 48.000,42.933 47.592,44.333 47.172 C 44.654 47.075,45.367 46.915,45.917 46.815 C 46.467 46.715,47.217 46.575,47.583 46.504 C 48.927 46.244,50.312 46.316,51.134 46.688 M138.917 48.834 C 141.390 49.230,142.896 49.666,143.662 50.208 C 143.889 50.369,144.145 50.500,144.232 50.500 C 144.320 50.500,144.794 50.913,145.286 51.417 C 146.278 52.433,146.979 52.629,147.372 52.000 C 147.487 51.817,147.675 51.667,147.790 51.667 C 147.906 51.667,148.000 51.554,148.000 51.417 C 148.000 51.279,148.064 51.167,148.141 51.167 C 148.219 51.167,148.438 51.035,148.629 50.875 C 149.769 49.915,151.249 49.368,154.202 48.812 C 155.456 48.577,159.288 49.113,159.846 49.603 C 159.991 49.730,160.242 49.833,160.404 49.833 C 160.565 49.833,160.897 49.986,161.140 50.172 C 162.654 51.328,162.541 51.224,163.247 52.107 C 163.478 52.396,163.667 52.714,163.667 52.816 C 163.667 52.917,163.740 53.000,163.830 53.000 C 163.920 53.000,164.042 53.206,164.100 53.458 C 164.158 53.710,164.311 54.084,164.438 54.289 C 164.566 54.493,164.740 55.093,164.824 55.622 C 164.908 56.151,165.059 56.921,165.158 57.333 C 165.281 57.841,165.325 61.316,165.295 68.083 L 165.250 78.083 160.417 78.130 C 157.758 78.156,155.419 78.137,155.217 78.087 L 154.851 77.998 154.801 68.791 C 154.754 60.339,154.726 59.550,154.458 59.171 C 154.298 58.945,154.167 58.653,154.167 58.524 C 154.167 57.735,152.120 56.826,151.260 57.234 C 150.952 57.380,150.557 57.500,150.383 57.500 C 149.799 57.500,148.338 59.360,148.326 60.118 C 148.322 60.374,148.211 60.883,148.079 61.250 C 147.882 61.795,147.838 63.366,147.836 69.842 C 147.834 75.780,147.783 77.817,147.633 77.967 C 147.348 78.252,137.819 78.252,137.533 77.967 C 137.384 77.817,137.333 75.875,137.333 70.258 C 137.332 63.051,137.149 58.979,136.821 58.861 C 136.736 58.831,136.667 58.718,136.666 58.611 C 136.666 58.269,135.912 57.526,135.447 57.409 C 135.199 57.347,134.956 57.230,134.905 57.148 C 134.625 56.694,132.688 57.369,131.937 58.183 C 131.308 58.865,130.667 60.371,130.666 61.170 C 130.665 61.489,130.580 62.200,130.477 62.750 C 130.368 63.327,130.246 66.778,130.186 70.917 L 130.083 78.083 125.083 78.083 L 120.083 78.083 120.083 63.750 L 120.083 49.417 123.817 49.372 C 127.887 49.323,128.167 49.381,128.167 50.282 C 128.167 50.501,128.317 50.974,128.500 51.333 C 128.683 51.693,128.833 52.177,128.833 52.410 C 128.833 52.987,129.041 52.942,129.695 52.223 C 130.701 51.116,131.411 50.494,131.780 50.398 C 131.979 50.346,132.183 50.198,132.233 50.068 C 132.282 49.939,132.478 49.833,132.667 49.833 C 132.857 49.833,133.178 49.727,133.381 49.596 C 133.713 49.383,134.272 49.242,136.417 48.835 C 137.373 48.653,137.790 48.653,138.917 48.834 M188.236 48.982 C 188.335 49.061,188.867 49.178,189.417 49.243 C 189.967 49.307,190.583 49.467,190.786 49.597 C 190.989 49.727,191.302 49.833,191.482 49.833 C 191.662 49.833,191.912 49.936,192.038 50.061 C 192.163 50.187,192.421 50.339,192.611 50.399 C 192.801 50.459,193.090 50.657,193.254 50.838 C 193.418 51.019,193.618 51.167,193.699 51.167 C 193.840 51.167,194.834 52.158,195.625 53.088 C 195.831 53.330,196.000 53.625,196.000 53.744 C 196.000 53.862,196.104 54.046,196.232 54.152 C 196.359 54.257,196.502 54.548,196.549 54.797 C 196.596 55.046,196.770 55.587,196.936 56.000 C 197.215 56.695,197.238 57.527,197.244 67.417 L 197.250 78.083 193.766 78.128 C 190.609 78.169,190.256 78.146,190.014 77.878 C 189.660 77.487,188.833 75.866,188.833 75.563 C 188.833 75.431,188.721 75.280,188.583 75.227 C 188.446 75.174,188.333 75.027,188.333 74.899 C 188.333 74.541,188.255 74.594,187.132 75.708 C 185.279 77.549,184.254 78.069,181.250 78.692 C 180.184 78.913,176.630 78.816,176.317 78.557 C 176.189 78.450,175.808 78.312,175.472 78.249 C 173.623 77.903,170.500 74.656,170.500 73.077 C 170.500 72.888,170.406 72.640,170.292 72.525 C 169.956 72.190,169.900 67.519,170.223 66.807 C 170.361 66.501,170.523 66.011,170.582 65.720 C 170.640 65.428,170.796 65.100,170.927 64.991 C 171.059 64.882,171.167 64.701,171.167 64.589 C 171.167 64.255,173.153 62.322,173.754 62.071 C 174.060 61.943,174.354 61.768,174.407 61.682 C 174.460 61.596,174.728 61.476,175.002 61.416 C 175.276 61.356,175.500 61.248,175.500 61.176 C 175.500 61.105,175.969 60.921,176.542 60.769 C 177.115 60.616,177.846 60.420,178.167 60.333 C 178.487 60.246,179.065 60.173,179.450 60.171 C 179.835 60.168,180.582 60.054,181.110 59.917 C 181.754 59.749,182.882 59.667,184.535 59.667 L 187.000 59.667 187.000 58.917 C 187.000 58.504,186.931 58.167,186.846 58.167 C 186.762 58.167,186.612 57.923,186.514 57.625 C 186.156 56.543,182.812 55.798,181.490 56.506 C 181.313 56.600,180.757 56.754,180.255 56.847 C 179.753 56.939,179.134 57.124,178.879 57.257 C 178.625 57.389,178.283 57.498,178.119 57.499 C 177.955 57.500,177.655 57.609,177.452 57.742 C 177.249 57.874,176.777 58.032,176.403 58.092 L 175.723 58.200 175.293 57.308 C 174.509 55.683,174.167 54.897,174.167 54.718 C 174.167 54.620,174.054 54.447,173.917 54.333 C 173.779 54.219,173.667 53.953,173.667 53.741 C 173.667 53.530,173.544 53.235,173.395 53.086 C 172.859 52.549,172.885 51.367,173.437 51.169 C 173.701 51.075,174.116 50.886,174.359 50.749 C 174.602 50.612,174.902 50.497,175.026 50.494 C 175.149 50.491,175.550 50.344,175.917 50.167 C 176.283 49.990,176.850 49.842,177.175 49.839 C 177.500 49.836,177.852 49.748,177.955 49.645 C 178.126 49.474,179.900 49.192,183.083 48.830 C 184.466 48.673,187.977 48.776,188.236 48.982 M299.500 48.837 C 301.452 49.141,302.862 49.462,303.043 49.643 C 303.148 49.748,303.388 49.833,303.576 49.833 C 304.469 49.833,307.629 52.469,308.106 53.613 C 308.228 53.905,308.404 54.191,308.497 54.248 C 308.591 54.306,308.667 54.465,308.667 54.602 C 308.667 54.739,308.834 55.204,309.038 55.634 L 309.410 56.417 309.413 67.250 L 309.417 78.083 305.839 78.083 L 302.261 78.083 301.556 76.707 C 300.369 74.392,300.547 74.465,299.263 75.768 C 298.112 76.936,297.958 77.049,296.583 77.718 C 295.740 78.129,294.930 78.378,293.417 78.692 C 292.359 78.911,288.860 78.805,288.417 78.540 C 288.233 78.431,287.765 78.261,287.375 78.164 C 286.985 78.067,286.667 77.923,286.667 77.845 C 286.667 77.767,286.478 77.655,286.248 77.598 C 285.700 77.460,283.737 75.530,283.414 74.811 C 283.275 74.502,283.094 74.137,283.011 74.000 C 282.141 72.552,281.826 67.979,282.500 66.583 C 282.677 66.217,282.825 65.746,282.828 65.536 C 282.831 65.327,282.939 65.116,283.068 65.066 C 283.198 65.016,283.347 64.803,283.400 64.592 C 283.526 64.089,285.227 62.366,285.895 62.064 C 286.182 61.934,286.529 61.759,286.667 61.674 C 287.753 61.006,289.995 60.314,291.583 60.158 C 292.317 60.086,293.254 59.949,293.667 59.854 C 294.079 59.759,295.485 59.678,296.792 59.674 L 299.167 59.667 299.167 58.937 C 299.167 58.515,299.068 58.126,298.933 58.014 C 298.805 57.907,298.657 57.654,298.606 57.451 C 298.431 56.764,297.273 56.332,295.606 56.333 C 294.208 56.333,293.714 56.431,291.667 57.111 C 291.254 57.248,290.729 57.400,290.500 57.447 C 290.271 57.495,289.778 57.677,289.406 57.851 C 288.226 58.401,287.015 57.584,287.003 56.229 C 287.001 56.034,286.887 55.781,286.750 55.667 C 286.612 55.553,286.500 55.352,286.500 55.221 C 286.500 55.090,286.359 54.705,286.187 54.366 C 284.956 51.944,284.901 51.263,285.920 51.072 C 286.233 51.013,286.575 50.860,286.681 50.733 C 286.787 50.605,286.996 50.497,287.145 50.494 C 287.295 50.491,287.717 50.344,288.083 50.167 C 288.450 49.990,289.016 49.842,289.342 49.839 C 289.667 49.836,290.016 49.750,290.118 49.649 C 290.288 49.478,292.473 49.135,295.250 48.843 C 296.878 48.672,298.423 48.670,299.500 48.837 M249.011 60.339 C 249.549 60.627,249.505 67.861,248.963 68.241 C 248.476 68.581,235.204 68.637,234.867 68.300 C 234.650 68.083,234.566 60.490,234.778 60.278 C 234.967 60.088,248.652 60.147,249.011 60.339 M185.083 65.753 C 184.533 65.877,183.798 65.983,183.450 65.989 C 182.883 65.999,181.496 66.578,181.366 66.860 C 181.339 66.920,181.170 67.138,180.991 67.343 C 180.418 68.005,180.523 70.133,181.159 70.743 C 181.821 71.376,184.178 71.444,184.932 70.851 C 185.178 70.658,185.462 70.498,185.564 70.495 C 185.772 70.489,186.142 70.018,186.655 69.104 C 186.933 68.610,187.000 68.198,187.000 66.995 L 187.000 65.500 186.542 65.514 C 186.290 65.522,185.633 65.629,185.083 65.753 M297.250 65.760 C 296.700 65.884,295.987 65.987,295.667 65.990 C 295.029 65.995,293.517 66.647,293.506 66.921 C 293.503 67.016,293.350 67.221,293.167 67.378 C 292.568 67.890,292.683 70.042,293.345 70.704 C 294.017 71.376,296.317 71.466,297.099 70.851 C 297.344 70.658,297.610 70.500,297.689 70.500 C 298.564 70.500,299.544 67.710,299.239 66.086 C 299.113 65.410,298.931 65.380,297.250 65.760 " stroke="none" fill="#fbfbfb" fill-rule="evenodd"></path><path id="path2" d="M47.583 46.504 C 47.217 46.575,46.467 46.715,45.917 46.815 C 45.367 46.915,44.654 47.075,44.333 47.172 C 42.933 47.592,40.028 48.000,37.250 48.167 C 35.600 48.267,34.128 48.385,33.978 48.429 C 33.828 48.474,31.841 48.503,29.561 48.494 C 24.150 48.472,24.334 48.463,23.842 48.774 C 22.256 49.778,22.390 51.227,24.189 52.520 C 24.752 52.924,26.180 53.542,26.292 53.430 C 26.326 53.396,26.019 53.241,25.609 53.084 C 23.589 52.313,23.862 51.605,26.094 51.828 C 27.795 51.998,30.726 52.242,34.250 52.509 C 36.086 52.648,37.625 52.852,40.493 53.337 C 41.084 53.437,42.547 53.624,43.743 53.752 C 44.938 53.881,46.254 54.075,46.667 54.182 C 47.079 54.290,47.500 54.400,47.602 54.425 C 47.804 54.476,49.082 56.655,49.572 57.781 C 50.355 59.585,48.356 61.333,45.511 61.333 C 43.827 61.333,38.591 60.087,36.750 59.247 C 36.475 59.122,36.063 58.988,35.833 58.949 C 35.430 58.881,35.432 58.878,35.879 58.856 C 36.530 58.824,36.819 58.174,36.440 57.596 C 36.290 57.366,36.166 57.045,36.166 56.881 C 36.165 56.717,35.976 56.133,35.745 55.583 C 35.276 54.467,35.279 55.074,35.749 56.667 C 36.269 58.424,36.146 58.644,34.972 58.055 C 34.666 57.902,34.281 57.711,34.115 57.631 C 33.090 57.134,30.066 56.144,29.056 55.974 C 26.477 55.540,24.561 57.792,25.978 59.593 C 26.173 59.842,26.333 59.969,26.333 59.876 C 26.333 59.783,26.221 59.614,26.083 59.500 C 25.918 59.363,25.833 58.990,25.833 58.396 C 25.833 57.711,25.892 57.500,26.083 57.500 C 26.221 57.500,26.333 57.423,26.333 57.329 C 26.333 57.235,26.523 57.086,26.754 56.998 C 26.986 56.910,27.219 56.725,27.272 56.586 C 27.391 56.276,29.667 56.211,29.667 56.518 C 29.667 56.628,29.510 56.664,29.282 56.606 C 27.726 56.216,26.795 57.416,27.481 58.926 C 28.019 60.111,31.403 62.833,32.338 62.833 C 32.586 62.833,35.142 64.123,35.500 64.429 C 36.062 64.909,42.358 68.167,42.724 68.167 C 42.902 68.167,43.551 68.517,47.500 70.746 C 49.818 72.054,51.220 72.376,56.241 72.756 C 58.081 72.895,59.303 73.202,60.512 73.828 C 62.607 74.914,65.777 77.272,66.518 78.296 L 66.952 78.897 66.385 79.282 C 65.436 79.926,65.040 79.812,63.538 78.458 C 61.941 77.020,61.057 76.260,60.527 75.870 C 60.312 75.712,59.926 75.415,59.669 75.208 C 59.412 75.002,59.128 74.833,59.038 74.833 C 58.948 74.833,58.781 74.721,58.667 74.583 C 58.553 74.446,58.337 74.334,58.188 74.335 C 58.039 74.336,58.404 74.644,59.000 75.020 C 59.596 75.396,60.202 75.827,60.348 75.977 C 60.493 76.127,60.933 76.512,61.326 76.833 C 61.719 77.154,62.650 77.966,63.395 78.638 C 64.959 80.047,65.404 80.123,67.167 79.283 C 69.793 78.032,71.866 75.775,73.007 72.925 C 73.782 70.990,73.940 71.237,68.907 66.476 C 65.424 63.180,61.667 58.849,61.667 58.130 C 61.667 57.949,60.422 56.250,59.801 55.583 C 59.544 55.308,59.335 55.037,59.334 54.981 C 59.334 54.925,59.102 54.588,58.818 54.231 C 58.535 53.875,58.104 53.324,57.860 53.007 C 57.421 52.436,55.515 50.314,55.010 49.833 C 51.452 46.446,50.376 45.964,47.583 46.504 M27.715 53.624 C 28.338 53.656,29.313 53.656,29.882 53.623 C 30.451 53.591,29.942 53.564,28.750 53.565 C 27.558 53.565,27.093 53.592,27.715 53.624 M33.960 54.285 C 34.168 54.324,34.468 54.323,34.627 54.281 C 34.786 54.239,34.617 54.207,34.250 54.209 C 33.883 54.211,33.753 54.245,33.960 54.285 M31.720 57.267 C 31.612 57.549,31.535 57.553,30.842 57.311 C 30.192 57.085,30.433 56.873,31.236 56.967 C 31.643 57.014,31.784 57.101,31.720 57.267 M33.333 57.771 C 33.333 57.987,33.225 58.020,32.797 57.934 C 31.933 57.762,31.835 57.500,32.633 57.500 C 33.168 57.500,33.333 57.564,33.333 57.771 M34.593 58.318 C 34.542 58.401,34.350 58.430,34.167 58.382 C 33.708 58.262,33.749 58.167,34.260 58.167 C 34.494 58.167,34.644 58.235,34.593 58.318 M26.946 60.769 C 27.297 61.100,27.733 61.438,27.917 61.520 C 28.100 61.601,28.700 62.006,29.250 62.420 C 29.800 62.833,30.434 63.249,30.660 63.345 C 30.885 63.440,31.509 63.785,32.045 64.110 C 32.581 64.436,33.047 64.675,33.081 64.641 C 33.179 64.544,31.347 63.333,31.103 63.333 C 30.983 63.333,30.711 63.183,30.500 63.000 C 30.289 62.817,30.018 62.667,29.899 62.667 C 29.781 62.667,29.623 62.572,29.550 62.455 C 29.477 62.339,28.877 61.883,28.217 61.441 C 27.557 61.000,26.929 60.533,26.822 60.403 C 26.714 60.273,26.555 60.167,26.468 60.167 C 26.381 60.167,26.596 60.438,26.946 60.769 M33.397 64.801 C 33.518 64.998,33.626 65.058,36.250 66.390 C 37.258 66.902,38.158 67.379,38.250 67.452 C 38.342 67.524,39.003 67.883,39.720 68.250 C 40.436 68.617,41.141 69.048,41.287 69.208 C 41.433 69.369,41.635 69.500,41.738 69.500 C 41.840 69.500,42.335 69.771,42.837 70.102 C 44.372 71.114,46.835 72.494,47.305 72.607 C 47.550 72.665,47.834 72.778,47.936 72.859 C 48.604 73.381,50.851 73.793,53.637 73.903 C 55.226 73.966,56.712 74.089,56.940 74.176 C 57.647 74.444,57.966 74.359,57.417 74.048 C 57.009 73.817,56.294 73.748,53.550 73.674 C 51.184 73.610,50.121 73.521,49.975 73.375 C 49.860 73.260,49.613 73.166,49.425 73.166 C 49.237 73.165,48.884 73.061,48.641 72.934 C 48.398 72.807,47.910 72.612,47.558 72.500 C 47.205 72.388,46.767 72.203,46.583 72.090 C 46.400 71.976,45.650 71.561,44.917 71.168 C 44.183 70.775,43.537 70.382,43.481 70.295 C 43.369 70.122,42.861 69.809,42.083 69.435 C 41.808 69.303,41.265 68.963,40.876 68.680 C 40.488 68.398,40.093 68.167,40.000 68.167 C 39.906 68.167,39.470 67.914,39.031 67.605 C 38.591 67.296,38.048 66.986,37.824 66.916 C 37.600 66.846,37.269 66.686,37.088 66.561 C 36.907 66.436,36.656 66.333,36.531 66.333 C 36.405 66.333,36.112 66.183,35.879 66.000 C 35.646 65.817,35.315 65.667,35.144 65.667 C 34.973 65.667,34.833 65.606,34.833 65.531 C 34.833 65.456,34.552 65.252,34.208 65.077 C 33.300 64.614,33.276 64.606,33.397 64.801 " stroke="none" fill="#f6ba0c" fill-rule="evenodd"></path><path id="path3" d="M24.266 51.807 C 23.769 52.612,26.025 53.500,28.569 53.500 C 29.798 53.500,30.960 53.595,31.520 53.740 C 32.028 53.873,32.850 54.027,33.347 54.082 C 35.374 54.309,35.228 54.223,35.720 55.482 C 35.965 56.111,36.167 56.750,36.167 56.902 C 36.167 57.054,36.290 57.366,36.440 57.596 C 36.819 58.174,36.530 58.824,35.879 58.856 C 35.432 58.878,35.430 58.881,35.833 58.949 C 36.063 58.988,36.475 59.122,36.750 59.247 C 38.591 60.087,43.827 61.333,45.511 61.333 C 48.356 61.333,50.355 59.585,49.572 57.781 C 49.082 56.655,47.804 54.476,47.602 54.425 C 47.500 54.400,47.079 54.290,46.667 54.182 C 46.254 54.075,44.938 53.881,43.743 53.752 C 42.547 53.624,41.084 53.437,40.493 53.337 C 37.552 52.840,36.055 52.648,33.940 52.496 C 32.670 52.405,31.470 52.294,31.274 52.249 C 31.077 52.205,29.717 52.093,28.250 52.002 C 26.783 51.911,25.312 51.790,24.980 51.733 C 24.621 51.672,24.331 51.702,24.266 51.807 M27.272 56.586 C 27.219 56.725,26.986 56.910,26.754 56.998 C 26.523 57.086,26.333 57.235,26.333 57.329 C 26.333 57.423,26.221 57.500,26.083 57.500 C 25.892 57.500,25.833 57.711,25.833 58.396 C 25.833 58.990,25.918 59.363,26.083 59.500 C 26.221 59.614,26.333 59.780,26.333 59.869 C 26.333 60.080,26.826 60.487,28.250 61.453 C 28.892 61.888,29.477 62.339,29.550 62.455 C 29.623 62.572,29.781 62.667,29.899 62.667 C 30.018 62.667,30.289 62.817,30.500 63.000 C 30.711 63.183,30.986 63.333,31.111 63.333 C 31.235 63.333,31.692 63.582,32.127 63.885 C 32.561 64.189,33.348 64.655,33.875 64.920 C 34.402 65.186,34.833 65.462,34.833 65.535 C 34.833 65.607,34.973 65.667,35.144 65.667 C 35.315 65.667,35.646 65.817,35.879 66.000 C 36.112 66.183,36.405 66.333,36.531 66.333 C 36.656 66.333,36.907 66.436,37.088 66.561 C 37.269 66.686,37.600 66.846,37.824 66.916 C 38.048 66.986,38.591 67.296,39.031 67.605 C 39.470 67.914,39.906 68.167,40.000 68.167 C 40.093 68.167,40.488 68.398,40.876 68.680 C 41.265 68.963,41.808 69.303,42.083 69.435 C 42.861 69.809,43.369 70.122,43.481 70.295 C 43.537 70.382,44.183 70.775,44.917 71.168 C 45.650 71.561,46.400 71.976,46.583 72.090 C 46.767 72.203,47.205 72.388,47.558 72.500 C 47.910 72.612,48.398 72.807,48.641 72.934 C 48.884 73.061,49.237 73.165,49.425 73.166 C 49.613 73.166,49.860 73.260,49.975 73.375 C 50.121 73.521,51.184 73.610,53.550 73.674 C 56.294 73.748,57.009 73.817,57.417 74.048 C 57.692 74.204,58.039 74.332,58.188 74.332 C 58.337 74.333,58.553 74.446,58.667 74.583 C 58.781 74.721,58.948 74.833,59.038 74.833 C 59.128 74.833,59.412 75.002,59.669 75.208 C 59.926 75.415,60.312 75.712,60.527 75.870 C 61.057 76.260,61.941 77.020,63.538 78.458 C 65.040 79.812,65.436 79.926,66.385 79.282 L 66.952 78.897 66.518 78.296 C 65.777 77.272,62.607 74.914,60.512 73.828 C 59.303 73.202,58.081 72.895,56.241 72.756 C 51.220 72.376,49.818 72.054,47.500 70.746 C 43.551 68.517,42.902 68.167,42.724 68.167 C 42.358 68.167,36.062 64.909,35.500 64.429 C 35.142 64.123,32.586 62.833,32.338 62.833 C 31.403 62.833,28.019 60.111,27.481 58.926 C 26.795 57.416,27.726 56.216,29.282 56.606 C 29.510 56.664,29.667 56.628,29.667 56.518 C 29.667 56.211,27.391 56.276,27.272 56.586 M30.482 57.011 C 30.381 57.073,30.542 57.207,30.842 57.311 C 31.535 57.553,31.612 57.549,31.720 57.267 C 31.818 57.012,30.815 56.805,30.482 57.011 M32.097 57.664 C 32.422 57.988,33.333 58.067,33.333 57.771 C 33.333 57.564,33.168 57.500,32.633 57.500 C 32.176 57.500,31.990 57.557,32.097 57.664 M33.833 58.231 C 33.833 58.379,34.508 58.456,34.593 58.318 C 34.644 58.235,34.494 58.167,34.260 58.167 C 34.025 58.167,33.833 58.195,33.833 58.231 " stroke="none" fill="#c66804" fill-rule="evenodd"></path><path id="path4" d="M204.333 38.799 C 204.104 38.835,203.823 38.942,203.708 39.036 C 203.410 39.281,203.402 77.669,203.700 77.967 C 203.912 78.178,213.204 78.270,213.736 78.066 C 214.040 77.949,214.145 39.488,213.843 39.010 C 213.697 38.780,205.585 38.599,204.333 38.799 M220.662 38.888 L 220.250 39.093 220.208 58.495 C 220.174 73.906,220.208 77.923,220.374 78.029 C 220.732 78.256,230.236 78.198,230.467 77.967 C 230.795 77.639,230.753 39.279,230.424 39.006 C 230.068 38.711,221.232 38.604,220.662 38.888 M317.250 38.792 C 316.403 38.830,316.026 38.920,315.875 39.121 C 315.577 39.516,315.569 77.669,315.867 77.967 C 316.127 78.227,325.528 78.253,326.011 77.994 C 326.465 77.751,326.524 39.548,326.071 39.095 C 325.755 38.779,321.115 38.620,317.250 38.792 M332.814 38.895 L 332.417 39.093 332.374 58.404 C 332.343 72.655,332.382 77.774,332.522 77.943 C 332.676 78.129,333.640 78.163,337.731 78.127 L 342.750 78.083 342.795 74.266 L 342.840 70.449 343.262 70.058 C 343.494 69.843,343.751 69.667,343.834 69.667 C 343.916 69.667,344.043 69.573,344.117 69.458 C 344.718 68.518,345.831 68.298,346.226 69.042 C 346.570 69.689,346.765 70.010,347.418 71.000 C 347.690 71.412,348.009 71.938,348.128 72.167 C 348.380 72.655,348.580 72.982,349.251 74.000 C 349.524 74.412,349.841 74.938,349.956 75.167 C 350.072 75.396,350.316 75.808,350.498 76.083 C 350.681 76.358,350.924 76.768,351.040 76.994 C 351.155 77.219,351.409 77.576,351.602 77.785 L 351.955 78.167 357.436 78.164 C 363.878 78.161,363.908 78.152,362.631 76.583 C 362.290 76.165,361.667 75.136,361.667 74.993 C 361.667 74.905,361.593 74.833,361.502 74.833 C 361.412 74.833,361.222 74.590,361.080 74.292 C 360.596 73.277,360.315 72.833,360.158 72.833 C 360.071 72.833,359.998 72.740,359.995 72.625 C 359.991 72.414,358.887 70.628,358.474 70.164 C 358.351 70.026,358.157 69.726,358.043 69.498 C 357.812 69.036,357.776 68.979,356.542 67.131 C 356.060 66.410,355.667 65.773,355.667 65.715 C 355.667 65.657,355.542 65.472,355.390 65.304 C 355.098 64.982,354.786 64.478,354.525 63.910 C 354.438 63.723,354.248 63.470,354.101 63.348 C 353.954 63.226,353.833 63.057,353.833 62.973 C 353.833 62.889,353.666 62.594,353.462 62.318 C 353.124 61.860,353.113 61.782,353.337 61.422 C 353.569 61.052,356.287 57.680,356.499 57.500 C 356.553 57.454,356.954 56.967,357.389 56.417 C 358.400 55.139,359.162 54.208,359.583 53.734 C 359.767 53.528,360.067 53.150,360.250 52.895 C 360.433 52.640,360.715 52.297,360.875 52.132 C 361.035 51.968,361.169 51.777,361.171 51.708 C 361.174 51.640,361.406 51.358,361.687 51.083 C 363.414 49.395,363.247 49.333,356.914 49.333 L 351.561 49.333 351.031 49.933 C 350.739 50.262,350.500 50.583,350.500 50.646 C 350.500 50.708,350.369 50.880,350.208 51.027 C 350.048 51.175,349.767 51.491,349.583 51.729 C 349.400 51.968,349.100 52.341,348.917 52.558 C 348.733 52.775,348.471 53.124,348.333 53.333 C 348.196 53.543,347.933 53.887,347.750 54.098 C 346.865 55.116,346.236 55.895,346.098 56.143 C 346.015 56.293,345.846 56.477,345.723 56.550 C 345.600 56.623,345.500 56.792,345.500 56.925 C 345.500 57.058,345.433 57.167,345.351 57.167 C 345.269 57.167,344.838 57.709,344.393 58.371 C 343.367 59.897,343.322 59.958,342.895 60.391 C 342.700 60.589,342.497 60.901,342.443 61.084 C 342.294 61.594,342.467 60.016,342.654 59.167 C 342.900 58.049,342.889 39.054,342.643 38.902 C 342.291 38.684,333.249 38.678,332.814 38.895 M213.459 58.490 C 213.493 73.771,213.458 77.757,213.292 77.862 C 213.051 78.016,204.937 78.045,204.375 77.895 L 204.000 77.794 204.000 58.592 C 204.000 48.030,204.051 39.338,204.114 39.275 C 204.176 39.213,206.295 39.181,208.822 39.206 L 213.417 39.250 213.459 58.490 M230.126 58.522 L 230.168 77.794 229.792 77.895 C 229.300 78.027,221.273 78.030,220.930 77.899 C 220.653 77.793,220.505 39.551,220.780 39.275 C 220.843 39.213,222.962 39.181,225.489 39.206 L 230.083 39.250 230.126 58.522 M325.583 58.583 L 325.583 77.917 321.417 77.965 C 319.125 77.992,317.006 77.970,316.708 77.916 L 316.167 77.818 316.167 58.604 C 316.167 48.035,316.218 39.338,316.280 39.275 C 316.343 39.213,318.462 39.181,320.989 39.206 L 325.583 39.250 325.583 58.583 M342.469 46.333 C 342.504 51.066,342.450 54.357,342.305 56.250 C 341.859 62.083,342.010 62.729,343.333 60.642 C 343.746 59.991,344.158 59.374,344.250 59.271 C 344.342 59.168,344.642 58.746,344.917 58.333 C 345.192 57.921,345.503 57.508,345.608 57.417 C 345.713 57.325,346.941 55.788,348.337 54.000 C 349.733 52.212,351.125 50.506,351.429 50.208 L 351.983 49.667 356.992 49.667 C 359.852 49.667,362.000 49.731,362.000 49.817 C 362.000 49.973,360.756 51.672,360.217 52.250 C 360.046 52.433,359.684 52.883,359.412 53.250 C 359.139 53.617,358.837 53.992,358.739 54.083 C 358.641 54.175,358.230 54.663,357.824 55.167 C 357.419 55.671,357.049 56.121,357.001 56.167 C 356.954 56.212,356.710 56.525,356.460 56.861 C 356.210 57.196,355.907 57.571,355.787 57.694 C 355.258 58.233,353.117 60.951,352.962 61.279 C 352.713 61.809,352.880 62.255,353.910 63.810 C 354.418 64.577,354.833 65.234,354.833 65.270 C 354.833 65.307,355.096 65.710,355.417 66.167 C 355.738 66.623,356.000 67.061,356.000 67.139 C 356.000 67.218,356.150 67.417,356.333 67.583 C 356.517 67.749,356.667 67.949,356.667 68.028 C 356.667 68.106,356.929 68.544,357.250 69.000 C 357.571 69.456,357.833 69.862,357.833 69.901 C 357.833 69.972,358.673 71.267,360.524 74.052 C 361.061 74.859,361.500 75.585,361.500 75.665 C 361.500 75.744,361.594 75.911,361.708 76.034 C 363.523 77.992,363.504 78.000,357.233 78.000 L 352.160 78.000 351.970 77.583 C 351.865 77.354,351.724 77.167,351.656 77.167 C 351.588 77.167,351.454 76.942,351.358 76.667 C 351.262 76.392,351.105 76.167,351.009 76.167 C 350.912 76.167,350.831 76.073,350.829 75.958 C 350.826 75.844,350.526 75.302,350.162 74.754 C 349.798 74.206,349.500 73.708,349.500 73.647 C 349.500 73.587,349.087 72.914,348.583 72.152 C 348.079 71.390,347.667 70.706,347.667 70.631 C 347.667 70.557,347.414 70.137,347.105 69.697 C 346.796 69.258,346.491 68.733,346.427 68.533 C 346.181 67.758,345.335 67.855,344.223 68.784 C 343.871 69.077,343.340 69.515,343.042 69.757 L 342.500 70.196 342.500 74.007 L 342.500 77.818 341.958 77.916 C 341.660 77.970,339.542 77.992,337.250 77.965 L 333.083 77.917 333.041 58.539 L 332.999 39.161 337.708 39.206 L 342.417 39.250 342.469 46.333 M101.000 40.677 C 99.713 40.753,98.680 40.901,98.297 41.066 C 97.956 41.213,97.504 41.333,97.292 41.333 C 97.081 41.333,96.760 41.436,96.579 41.562 C 96.398 41.688,96.011 41.843,95.720 41.906 C 95.428 41.970,95.100 42.129,94.991 42.261 C 94.882 42.392,94.703 42.500,94.593 42.500 C 94.162 42.500,91.333 44.914,91.333 45.282 C 91.333 45.373,91.183 45.584,91.000 45.750 C 90.817 45.916,90.667 46.143,90.667 46.255 C 90.667 46.367,90.554 46.553,90.417 46.667 C 90.279 46.781,90.167 47.019,90.167 47.196 C 90.167 47.373,90.014 47.853,89.828 48.261 C 89.326 49.365,89.326 53.970,89.829 55.074 C 90.015 55.481,90.167 55.960,90.167 56.137 C 90.167 56.314,90.279 56.553,90.417 56.667 C 90.554 56.781,90.667 56.971,90.667 57.089 C 90.667 57.832,94.085 61.167,94.847 61.167 C 94.937 61.167,95.052 61.275,95.102 61.406 C 95.153 61.538,95.408 61.693,95.669 61.751 C 95.930 61.808,96.233 61.962,96.342 62.094 C 96.451 62.226,96.651 62.333,96.786 62.333 C 96.921 62.333,97.221 62.483,97.455 62.667 C 97.688 62.850,98.009 63.000,98.169 63.000 C 98.328 63.000,98.553 63.112,98.667 63.250 C 98.781 63.387,98.951 63.500,99.044 63.500 C 99.212 63.500,100.520 64.071,101.000 64.353 C 101.138 64.434,101.438 64.576,101.667 64.667 C 101.896 64.758,102.196 64.909,102.333 65.001 C 102.471 65.093,102.767 65.262,102.991 65.376 C 105.064 66.429,105.408 68.373,103.731 69.550 L 103.045 70.031 100.185 70.018 C 98.088 70.008,97.204 69.942,96.871 69.772 C 96.621 69.644,96.006 69.483,95.504 69.415 C 95.002 69.347,94.440 69.192,94.254 69.071 C 94.068 68.950,93.599 68.800,93.211 68.738 C 92.824 68.676,92.421 68.522,92.316 68.396 C 92.211 68.270,91.953 68.167,91.741 68.167 C 91.530 68.167,91.243 68.053,91.104 67.913 C 90.765 67.574,89.410 67.324,89.177 67.557 C 89.062 67.672,89.000 69.194,89.000 71.920 L 89.000 76.107 89.408 76.461 C 89.632 76.656,90.116 76.897,90.484 76.996 C 90.852 77.095,91.194 77.242,91.244 77.323 C 91.294 77.405,91.653 77.524,92.043 77.588 C 92.432 77.652,92.846 77.782,92.964 77.877 C 93.082 77.973,93.757 78.146,94.464 78.263 C 95.171 78.379,96.162 78.564,96.667 78.672 C 98.817 79.135,105.849 78.553,106.750 77.837 C 106.842 77.764,107.235 77.652,107.624 77.588 C 108.013 77.524,108.371 77.407,108.419 77.329 C 108.467 77.251,108.711 77.081,108.962 76.950 C 110.570 76.109,111.516 75.451,112.000 74.836 C 112.229 74.545,112.679 74.030,113.000 73.691 C 113.321 73.353,113.706 72.816,113.857 72.497 C 114.630 70.859,114.833 70.353,114.835 70.065 C 114.836 69.892,114.949 69.382,115.085 68.932 C 115.400 67.893,115.403 66.041,115.092 64.844 C 114.959 64.334,114.805 63.635,114.751 63.292 C 114.696 62.948,114.586 62.667,114.506 62.667 C 114.425 62.667,114.311 62.443,114.250 62.169 C 114.190 61.895,114.071 61.627,113.985 61.574 C 113.899 61.521,113.725 61.230,113.599 60.927 C 113.341 60.311,111.826 58.761,111.125 58.396 C 110.873 58.265,110.667 58.085,110.667 57.996 C 110.667 57.906,110.560 57.833,110.429 57.833 C 110.298 57.833,110.091 57.734,109.969 57.612 C 109.745 57.388,109.100 57.011,108.333 56.657 C 108.104 56.551,107.804 56.397,107.667 56.315 C 107.529 56.233,107.229 56.091,107.000 55.998 C 106.771 55.906,106.384 55.719,106.141 55.582 C 105.898 55.445,105.588 55.333,105.453 55.333 C 105.318 55.333,105.118 55.226,105.009 55.094 C 104.900 54.962,104.596 54.808,104.333 54.750 C 104.071 54.692,103.767 54.538,103.658 54.406 C 103.549 54.274,103.349 54.167,103.214 54.167 C 103.079 54.167,102.779 54.017,102.545 53.833 C 102.312 53.650,101.979 53.500,101.806 53.500 C 101.632 53.500,101.446 53.387,101.394 53.250 C 101.341 53.112,101.212 52.999,101.107 52.997 C 100.722 52.991,99.667 51.532,99.667 51.005 C 99.667 50.616,100.518 49.500,100.815 49.500 C 100.986 49.500,101.219 49.387,101.333 49.250 C 101.621 48.903,105.059 48.903,105.667 49.250 C 105.896 49.381,106.383 49.493,106.750 49.500 C 107.117 49.506,107.717 49.656,108.083 49.833 C 108.450 50.010,108.882 50.158,109.042 50.161 C 109.203 50.164,109.614 50.317,109.956 50.500 C 110.299 50.683,110.706 50.833,110.863 50.833 C 111.019 50.833,111.188 50.899,111.238 50.980 C 111.648 51.643,112.987 50.450,112.997 49.412 C 112.999 49.226,113.106 48.922,113.236 48.737 C 113.366 48.551,113.525 48.122,113.588 47.783 C 113.652 47.444,113.768 47.167,113.845 47.167 C 113.923 47.167,114.066 46.873,114.163 46.514 C 114.260 46.155,114.450 45.649,114.585 45.389 C 114.720 45.129,114.832 44.820,114.832 44.702 C 114.833 44.585,114.948 44.314,115.087 44.101 C 115.359 43.686,115.266 43.167,114.919 43.167 C 114.803 43.167,114.616 43.056,114.504 42.921 C 114.392 42.786,114.026 42.627,113.692 42.567 C 113.357 42.507,112.971 42.361,112.833 42.243 C 112.696 42.125,112.290 41.974,111.932 41.907 C 111.574 41.841,111.087 41.685,110.849 41.561 C 110.611 41.437,110.220 41.335,109.979 41.334 C 109.739 41.334,109.222 41.220,108.831 41.083 C 108.181 40.853,107.199 40.753,104.167 40.607 C 103.571 40.578,102.146 40.609,101.000 40.677 M107.389 41.241 C 107.954 41.373,108.792 41.552,109.250 41.637 C 109.708 41.723,110.308 41.869,110.583 41.962 C 112.389 42.574,112.794 42.704,113.160 42.790 C 114.657 43.140,114.918 43.777,114.165 45.253 C 113.983 45.611,113.833 45.994,113.833 46.105 C 113.833 46.216,113.723 46.519,113.589 46.778 C 113.454 47.038,113.146 47.771,112.903 48.409 C 111.953 50.907,111.867 50.965,110.336 50.144 C 110.016 49.973,109.631 49.833,109.480 49.833 C 109.329 49.833,108.990 49.721,108.727 49.584 C 108.465 49.447,108.129 49.335,107.980 49.334 C 107.832 49.334,107.241 49.183,106.667 49.000 C 105.142 48.513,101.749 48.519,100.764 49.011 C 98.903 49.940,98.885 52.078,100.729 53.273 C 100.992 53.444,101.405 53.714,101.645 53.873 C 101.886 54.033,102.196 54.207,102.333 54.261 C 102.471 54.316,103.183 54.648,103.917 55.000 C 104.650 55.352,105.362 55.683,105.500 55.736 C 105.638 55.788,105.862 55.896,106.000 55.974 C 106.138 56.053,106.625 56.296,107.083 56.515 C 107.921 56.915,110.106 58.133,110.417 58.374 C 110.508 58.445,110.967 58.801,111.435 59.164 C 114.406 61.469,115.849 67.650,114.155 70.812 C 113.978 71.142,113.833 71.497,113.833 71.602 C 113.833 71.707,113.721 71.886,113.583 72.000 C 113.446 72.114,113.333 72.335,113.333 72.490 C 113.333 73.594,108.758 77.029,106.797 77.397 C 106.458 77.460,105.971 77.622,105.715 77.755 C 105.459 77.889,104.875 78.002,104.417 78.007 C 103.958 78.012,102.871 78.110,102.000 78.224 C 100.975 78.358,99.859 78.387,98.833 78.306 C 95.572 78.049,93.981 77.858,93.785 77.701 C 93.674 77.612,93.246 77.459,92.833 77.362 C 91.778 77.114,90.498 76.626,89.958 76.267 L 89.500 75.962 89.500 71.976 C 89.500 67.611,89.514 67.552,90.450 68.056 C 91.427 68.583,92.451 69.000,92.766 69.000 C 92.945 69.000,93.244 69.106,93.430 69.236 C 93.615 69.366,94.063 69.526,94.425 69.591 C 94.787 69.657,95.213 69.777,95.371 69.859 C 95.716 70.037,98.622 70.486,100.266 70.615 C 102.574 70.795,104.635 69.950,105.020 68.664 C 105.571 66.827,104.790 65.770,101.792 64.297 C 100.761 63.790,99.204 63.026,98.333 62.600 C 96.823 61.861,96.544 61.717,95.875 61.332 C 95.715 61.240,95.396 61.072,95.167 60.959 C 94.938 60.846,94.675 60.674,94.583 60.577 C 94.492 60.479,94.106 60.192,93.727 59.940 C 88.127 56.210,88.563 46.167,94.460 43.088 C 94.942 42.836,95.374 42.569,95.420 42.495 C 95.466 42.420,95.747 42.308,96.044 42.246 C 96.340 42.185,96.749 42.029,96.952 41.901 C 97.155 41.772,97.807 41.598,98.400 41.514 C 98.994 41.430,99.615 41.282,99.781 41.186 C 100.259 40.908,106.151 40.951,107.389 41.241 M251.426 41.265 C 251.196 41.495,251.167 42.052,251.205 45.473 L 251.250 49.417 255.708 49.461 L 260.167 49.505 260.167 63.572 C 260.167 71.309,260.212 77.758,260.268 77.903 C 260.372 78.173,269.731 78.323,270.403 78.066 C 270.641 77.974,270.667 76.564,270.667 63.816 C 270.667 56.034,270.685 49.651,270.708 49.632 C 270.731 49.613,272.700 49.557,275.083 49.507 L 279.417 49.417 279.461 45.437 C 279.493 42.642,279.450 41.390,279.316 41.229 C 279.007 40.856,251.799 40.891,251.426 41.265 M279.083 45.417 L 279.083 49.250 274.667 49.340 C 272.237 49.390,270.231 49.446,270.208 49.465 C 270.185 49.484,270.167 55.867,270.167 63.649 C 270.167 76.397,270.141 77.808,269.903 77.899 C 269.511 78.049,260.950 78.016,260.709 77.863 C 260.547 77.760,260.493 74.646,260.459 63.574 L 260.417 49.417 256.083 49.326 C 253.700 49.277,251.731 49.220,251.708 49.201 C 251.534 49.056,251.696 41.683,251.875 41.610 C 251.990 41.563,258.158 41.538,265.583 41.554 L 279.083 41.583 279.083 45.417 M136.417 48.835 C 134.272 49.242,133.713 49.383,133.381 49.596 C 133.178 49.727,132.857 49.833,132.667 49.833 C 132.478 49.833,132.282 49.939,132.233 50.068 C 132.183 50.198,131.979 50.346,131.780 50.398 C 131.411 50.494,130.701 51.116,129.695 52.223 C 129.041 52.942,128.833 52.987,128.833 52.410 C 128.833 52.177,128.683 51.693,128.500 51.333 C 128.317 50.974,128.167 50.501,128.167 50.282 C 128.167 49.381,127.887 49.323,123.817 49.372 L 120.083 49.417 120.083 63.750 L 120.083 78.083 125.083 78.083 L 130.083 78.083 130.186 70.917 C 130.246 66.778,130.368 63.327,130.477 62.750 C 130.580 62.200,130.665 61.489,130.666 61.170 C 130.667 60.371,131.308 58.865,131.937 58.183 C 132.688 57.369,134.625 56.694,134.905 57.148 C 134.956 57.230,135.199 57.347,135.447 57.409 C 135.912 57.526,136.666 58.269,136.666 58.611 C 136.667 58.718,136.736 58.831,136.821 58.861 C 137.149 58.979,137.332 63.051,137.333 70.258 C 137.333 75.875,137.384 77.817,137.533 77.967 C 137.819 78.252,147.348 78.252,147.633 77.967 C 147.783 77.817,147.834 75.780,147.836 69.842 C 147.838 63.366,147.882 61.795,148.079 61.250 C 148.211 60.883,148.322 60.374,148.326 60.118 C 148.338 59.360,149.799 57.500,150.383 57.500 C 150.557 57.500,150.952 57.380,151.260 57.234 C 152.120 56.826,154.167 57.735,154.167 58.524 C 154.167 58.653,154.298 58.945,154.458 59.171 C 154.726 59.550,154.754 60.339,154.801 68.791 L 154.851 77.998 155.217 78.087 C 155.419 78.137,157.758 78.156,160.417 78.130 L 165.250 78.083 165.295 68.083 C 165.325 61.316,165.281 57.841,165.158 57.333 C 165.059 56.921,164.908 56.151,164.824 55.622 C 164.740 55.093,164.566 54.493,164.438 54.289 C 164.311 54.084,164.158 53.710,164.100 53.458 C 164.042 53.206,163.920 53.000,163.830 53.000 C 163.740 53.000,163.667 52.917,163.667 52.816 C 163.667 52.714,163.478 52.396,163.247 52.107 C 162.541 51.224,162.654 51.328,161.140 50.172 C 160.897 49.986,160.565 49.833,160.404 49.833 C 160.242 49.833,159.991 49.730,159.846 49.603 C 159.288 49.113,155.456 48.577,154.202 48.812 C 151.249 49.368,149.769 49.915,148.629 50.875 C 148.438 51.035,148.219 51.167,148.141 51.167 C 148.064 51.167,148.000 51.279,148.000 51.417 C 148.000 51.554,147.906 51.667,147.790 51.667 C 147.675 51.667,147.487 51.817,147.372 52.000 C 146.979 52.629,146.278 52.433,145.286 51.417 C 144.794 50.913,144.320 50.500,144.232 50.500 C 144.145 50.500,143.889 50.369,143.662 50.208 C 142.319 49.258,138.250 48.487,136.417 48.835 M183.083 48.830 C 179.900 49.192,178.126 49.474,177.955 49.645 C 177.852 49.748,177.500 49.836,177.175 49.839 C 176.850 49.842,176.283 49.990,175.917 50.167 C 175.550 50.344,175.149 50.491,175.026 50.494 C 174.902 50.497,174.602 50.612,174.359 50.749 C 174.116 50.886,173.701 51.075,173.437 51.169 C 172.885 51.367,172.859 52.549,173.395 53.086 C 173.544 53.235,173.667 53.530,173.667 53.741 C 173.667 53.953,173.779 54.219,173.917 54.333 C 174.054 54.447,174.167 54.620,174.167 54.718 C 174.167 54.897,174.509 55.683,175.293 57.308 L 175.723 58.200 176.403 58.092 C 176.777 58.032,177.249 57.874,177.452 57.742 C 177.655 57.609,177.955 57.500,178.119 57.499 C 178.283 57.498,178.625 57.389,178.879 57.257 C 179.134 57.124,179.753 56.939,180.255 56.847 C 180.757 56.754,181.313 56.600,181.490 56.506 C 182.812 55.798,186.156 56.543,186.514 57.625 C 186.612 57.923,186.762 58.167,186.846 58.167 C 186.931 58.167,187.000 58.504,187.000 58.917 L 187.000 59.667 184.535 59.667 C 182.882 59.667,181.754 59.749,181.110 59.917 C 180.582 60.054,179.835 60.168,179.450 60.171 C 179.065 60.173,178.487 60.246,178.167 60.333 C 177.846 60.420,177.115 60.616,176.542 60.769 C 175.969 60.921,175.500 61.105,175.500 61.176 C 175.500 61.248,175.276 61.356,175.002 61.416 C 174.728 61.476,174.460 61.596,174.407 61.682 C 174.354 61.768,174.060 61.943,173.754 62.071 C 173.153 62.322,171.167 64.255,171.167 64.589 C 171.167 64.701,171.059 64.882,170.927 64.991 C 170.796 65.100,170.640 65.428,170.582 65.720 C 170.523 66.011,170.361 66.501,170.223 66.807 C 169.900 67.519,169.956 72.190,170.292 72.525 C 170.406 72.640,170.500 72.888,170.500 73.077 C 170.500 73.721,171.740 75.778,172.562 76.498 C 173.481 77.302,174.866 78.136,175.472 78.249 C 175.808 78.312,176.189 78.450,176.317 78.557 C 176.630 78.816,180.184 78.913,181.250 78.692 C 184.254 78.069,185.279 77.549,187.132 75.708 C 188.255 74.594,188.333 74.541,188.333 74.899 C 188.333 75.027,188.446 75.174,188.583 75.227 C 188.721 75.280,188.833 75.431,188.833 75.563 C 188.833 75.866,189.660 77.487,190.014 77.878 C 190.256 78.146,190.609 78.169,193.766 78.128 L 197.250 78.083 197.244 67.417 C 197.238 57.527,197.215 56.695,196.936 56.000 C 196.770 55.587,196.596 55.046,196.549 54.797 C 196.502 54.548,196.359 54.257,196.232 54.152 C 196.104 54.046,196.000 53.862,196.000 53.744 C 196.000 53.625,195.831 53.330,195.625 53.088 C 194.834 52.158,193.840 51.167,193.699 51.167 C 193.618 51.167,193.418 51.019,193.254 50.838 C 193.090 50.657,192.801 50.459,192.611 50.399 C 192.421 50.339,192.163 50.187,192.038 50.061 C 191.912 49.936,191.662 49.833,191.482 49.833 C 191.302 49.833,190.989 49.727,190.786 49.597 C 190.583 49.467,189.967 49.307,189.417 49.243 C 188.867 49.178,188.335 49.061,188.236 48.982 C 187.977 48.776,184.466 48.673,183.083 48.830 M295.250 48.843 C 292.473 49.135,290.288 49.478,290.118 49.649 C 290.016 49.750,289.667 49.836,289.342 49.839 C 289.016 49.842,288.450 49.990,288.083 50.167 C 287.717 50.344,287.295 50.491,287.145 50.494 C 286.996 50.497,286.787 50.605,286.681 50.733 C 286.575 50.860,286.233 51.013,285.920 51.072 C 284.901 51.263,284.956 51.944,286.187 54.366 C 286.359 54.705,286.500 55.090,286.500 55.221 C 286.500 55.352,286.612 55.553,286.750 55.667 C 286.887 55.781,287.001 56.034,287.003 56.229 C 287.015 57.584,288.226 58.401,289.406 57.851 C 289.778 57.677,290.271 57.495,290.500 57.447 C 290.729 57.400,291.254 57.248,291.667 57.111 C 293.714 56.431,294.208 56.333,295.606 56.333 C 297.273 56.332,298.431 56.764,298.606 57.451 C 298.657 57.654,298.805 57.907,298.933 58.014 C 299.068 58.126,299.167 58.515,299.167 58.937 L 299.167 59.667 296.792 59.674 C 295.485 59.678,294.079 59.759,293.667 59.854 C 293.254 59.949,292.317 60.086,291.583 60.158 C 289.995 60.314,287.753 61.006,286.667 61.674 C 286.529 61.759,286.182 61.934,285.895 62.064 C 285.227 62.366,283.526 64.089,283.400 64.592 C 283.347 64.803,283.198 65.016,283.068 65.066 C 282.939 65.116,282.831 65.327,282.828 65.536 C 282.825 65.746,282.677 66.217,282.500 66.583 C 281.826 67.979,282.141 72.552,283.011 74.000 C 283.094 74.137,283.275 74.502,283.414 74.811 C 283.737 75.530,285.700 77.460,286.248 77.598 C 286.478 77.655,286.667 77.767,286.667 77.845 C 286.667 77.923,286.985 78.067,287.375 78.164 C 287.765 78.261,288.233 78.431,288.417 78.540 C 289.588 79.241,294.465 78.750,296.583 77.718 C 297.958 77.049,298.112 76.936,299.263 75.768 C 300.547 74.465,300.369 74.392,301.556 76.707 L 302.261 78.083 305.839 78.083 L 309.417 78.083 309.413 67.250 L 309.410 56.417 309.038 55.634 C 308.834 55.204,308.667 54.739,308.667 54.602 C 308.667 54.465,308.591 54.306,308.497 54.248 C 308.404 54.191,308.228 53.905,308.106 53.613 C 307.629 52.469,304.469 49.833,303.576 49.833 C 303.388 49.833,303.148 49.748,303.043 49.643 C 302.862 49.462,301.452 49.141,299.500 48.837 C 298.423 48.670,296.878 48.672,295.250 48.843 M139.917 49.495 C 141.338 49.640,143.011 50.154,143.434 50.576 C 143.575 50.718,143.789 50.833,143.909 50.833 C 144.030 50.833,144.630 51.321,145.244 51.917 C 146.617 53.250,146.651 53.250,148.069 51.913 C 148.703 51.315,149.396 50.782,149.611 50.728 C 149.825 50.675,150.000 50.570,150.000 50.497 C 150.000 50.223,152.137 49.628,153.705 49.466 C 160.542 48.758,164.211 51.553,164.670 57.819 C 164.958 61.748,164.878 77.781,164.570 77.899 C 164.226 78.031,155.941 78.031,155.597 77.899 C 155.362 77.809,155.333 76.950,155.333 69.925 C 155.333 59.108,155.126 57.919,153.053 56.854 C 151.690 56.154,148.186 57.786,148.169 59.129 C 148.168 59.246,148.008 59.771,147.815 60.296 C 147.479 61.206,147.459 61.630,147.377 69.544 C 147.291 77.826,147.291 77.838,146.937 77.924 C 146.743 77.971,144.633 77.989,142.250 77.964 L 137.917 77.917 137.821 69.083 C 137.708 58.588,137.616 58.022,135.861 57.035 C 133.644 55.790,130.333 57.967,130.333 60.671 C 130.333 60.956,130.240 61.352,130.125 61.553 C 129.970 61.824,129.895 63.952,129.833 69.917 L 129.750 77.917 125.083 77.917 L 120.417 77.917 120.417 63.833 L 120.417 49.750 123.735 49.705 C 127.562 49.653,127.644 49.681,128.004 51.185 C 128.112 51.634,128.268 52.043,128.350 52.094 C 128.433 52.145,128.500 52.323,128.500 52.489 C 128.500 53.437,129.522 53.305,130.306 52.257 C 132.017 49.970,135.300 49.026,139.917 49.495 M190.250 49.892 C 193.728 51.094,195.546 52.946,196.570 56.333 C 196.818 57.154,196.842 58.337,196.798 67.583 L 196.750 77.917 193.592 77.917 L 190.434 77.917 189.652 76.373 C 188.398 73.895,188.389 73.892,186.896 75.406 C 185.840 76.479,185.681 76.590,184.041 77.417 C 181.743 78.575,177.135 78.606,174.730 77.478 C 173.633 76.965,171.500 74.997,171.500 74.499 C 171.500 74.407,171.350 74.052,171.167 73.710 C 170.983 73.368,170.833 72.928,170.833 72.732 C 170.833 72.536,170.721 72.056,170.583 71.667 C 169.384 68.268,171.411 63.570,174.750 62.008 C 176.381 61.245,176.592 61.165,177.333 61.020 C 177.746 60.939,178.421 60.788,178.833 60.684 C 179.246 60.580,181.253 60.387,183.293 60.256 C 185.334 60.125,187.078 59.972,187.168 59.916 C 187.689 59.594,186.933 56.667,186.329 56.667 C 186.253 56.667,186.071 56.548,185.926 56.402 C 185.412 55.888,181.297 55.818,180.396 56.307 C 180.224 56.401,179.783 56.552,179.417 56.643 C 178.487 56.875,177.332 57.292,176.808 57.586 C 176.148 57.955,175.873 57.892,175.753 57.345 C 175.694 57.076,175.538 56.767,175.406 56.658 C 175.274 56.549,175.167 56.345,175.167 56.206 C 175.167 56.067,175.017 55.626,174.833 55.227 C 174.650 54.827,174.345 54.144,174.155 53.708 C 173.966 53.273,173.716 52.729,173.601 52.500 C 173.294 51.891,173.445 51.544,174.110 51.325 C 174.434 51.218,174.898 51.026,175.141 50.899 C 175.384 50.773,175.712 50.668,175.869 50.668 C 176.027 50.667,176.402 50.562,176.703 50.434 C 179.344 49.313,187.615 48.981,190.250 49.892 M302.596 49.925 C 303.231 50.163,303.821 50.427,303.908 50.512 C 303.995 50.597,304.164 50.667,304.283 50.667 C 305.324 50.667,308.500 54.304,308.500 55.496 C 308.500 55.691,308.631 56.090,308.791 56.383 C 309.058 56.874,309.081 57.748,309.082 67.417 L 309.083 77.917 305.861 77.917 L 302.639 77.917 301.986 76.703 C 301.627 76.035,301.333 75.402,301.333 75.297 C 301.333 75.021,300.651 74.333,300.377 74.333 C 300.250 74.333,299.620 74.858,298.977 75.500 C 298.334 76.142,297.713 76.667,297.597 76.667 C 297.480 76.667,297.249 76.817,297.083 77.000 C 296.917 77.183,296.700 77.334,296.599 77.334 C 296.499 77.335,296.203 77.447,295.941 77.583 C 293.372 78.923,287.935 78.439,285.669 76.668 C 283.703 75.132,283.204 74.141,282.624 70.625 C 282.345 68.935,282.835 66.158,283.619 64.983 C 283.874 64.600,284.150 64.166,284.231 64.018 C 284.465 63.594,285.956 62.485,286.894 62.038 C 288.578 61.235,288.760 61.164,289.500 61.020 C 289.912 60.939,290.587 60.788,291.000 60.684 C 291.412 60.580,293.420 60.387,295.460 60.256 C 299.772 59.979,299.500 60.070,299.500 58.895 C 299.500 57.775,298.854 56.706,297.905 56.256 C 296.996 55.824,293.684 55.872,292.583 56.332 C 292.400 56.409,291.950 56.548,291.583 56.640 C 290.641 56.879,289.493 57.295,288.974 57.586 C 288.403 57.906,288.000 57.901,288.000 57.575 C 288.000 57.432,287.859 57.039,287.687 56.700 C 287.385 56.105,287.031 55.324,286.425 53.917 C 286.267 53.550,286.032 53.038,285.902 52.778 C 285.517 52.007,285.595 51.523,286.125 51.397 C 286.377 51.337,286.771 51.192,287.000 51.074 C 287.632 50.749,288.955 50.340,290.212 50.081 C 290.833 49.953,291.426 49.796,291.531 49.731 C 292.436 49.171,300.984 49.321,302.596 49.925 M24.325 52.721 C 24.919 53.486,25.799 53.728,28.417 53.847 C 29.792 53.909,31.217 54.041,31.583 54.139 C 31.950 54.238,32.832 54.366,33.544 54.424 C 34.390 54.493,34.930 54.621,35.104 54.794 C 35.347 55.037,35.364 55.033,35.308 54.744 C 35.258 54.481,35.000 54.396,33.749 54.234 C 32.924 54.127,31.912 53.957,31.500 53.857 C 31.087 53.757,29.869 53.673,28.792 53.671 C 26.753 53.666,25.187 53.314,24.420 52.687 C 24.107 52.432,24.102 52.433,24.325 52.721 M35.360 55.583 C 35.354 55.858,35.457 56.308,35.589 56.583 C 35.783 56.987,35.809 57.003,35.719 56.667 C 35.659 56.438,35.556 55.987,35.490 55.667 C 35.375 55.098,35.371 55.096,35.360 55.583 M27.559 55.794 C 27.454 55.862,27.867 55.922,28.476 55.929 C 29.187 55.937,29.434 55.898,29.167 55.820 C 28.604 55.658,27.793 55.644,27.559 55.794 M25.845 56.939 C 25.655 57.181,25.502 57.462,25.505 57.564 C 25.508 57.666,25.593 57.600,25.695 57.417 C 25.797 57.233,25.994 56.952,26.132 56.792 C 26.271 56.631,26.341 56.500,26.288 56.500 C 26.235 56.500,26.035 56.698,25.845 56.939 M32.311 56.923 C 32.619 57.057,32.919 57.164,32.977 57.161 C 33.194 57.149,32.240 56.679,32.000 56.679 C 31.863 56.679,32.002 56.789,32.311 56.923 M35.836 57.970 C 35.834 58.119,35.714 58.153,35.458 58.076 C 35.171 57.989,35.127 58.009,35.272 58.162 C 35.557 58.462,36.202 58.318,35.998 58.000 C 35.881 57.817,35.838 57.808,35.836 57.970 M25.350 58.322 C 25.288 59.816,27.599 61.924,31.750 64.159 C 31.933 64.258,32.421 64.534,32.833 64.771 C 34.528 65.749,38.333 67.671,38.330 67.548 C 38.328 67.476,37.522 67.021,36.538 66.537 C 35.555 66.053,34.450 65.474,34.083 65.250 C 33.717 65.026,33.192 64.729,32.917 64.591 C 31.843 64.050,30.162 63.052,29.253 62.417 C 28.729 62.050,28.133 61.658,27.928 61.546 C 26.947 61.008,25.742 59.510,25.515 58.546 C 25.408 58.092,25.362 58.029,25.350 58.322 M234.778 60.278 C 234.566 60.490,234.650 68.083,234.867 68.300 C 235.204 68.637,248.476 68.581,248.963 68.241 C 249.505 67.861,249.549 60.627,249.011 60.339 C 248.652 60.147,234.967 60.088,234.778 60.278 M248.799 63.750 C 248.826 65.492,248.804 67.160,248.750 67.458 L 248.652 68.000 241.845 68.000 L 235.039 68.000 234.938 67.625 C 234.800 67.107,234.807 60.749,234.946 60.609 C 235.008 60.547,238.140 60.516,241.905 60.540 L 248.750 60.583 248.799 63.750 M184.333 65.284 C 182.170 65.658,180.333 66.794,180.333 67.759 C 180.333 67.956,180.253 68.347,180.155 68.628 C 179.927 69.281,180.315 70.511,180.928 71.079 C 181.700 71.795,184.355 71.841,185.228 71.154 C 185.452 70.978,185.699 70.832,185.776 70.830 C 185.974 70.826,186.538 70.190,186.959 69.494 C 187.400 68.767,187.661 66.113,187.349 65.530 C 187.155 65.166,185.700 65.048,184.333 65.284 M296.583 65.275 C 293.122 65.994,291.701 67.614,292.456 69.976 C 293.127 72.074,296.995 72.250,298.583 70.255 C 298.767 70.025,299.041 69.682,299.193 69.493 C 299.552 69.049,299.795 66.164,299.524 65.570 C 299.342 65.170,297.821 65.017,296.583 65.275 M187.000 66.995 C 187.000 68.198,186.933 68.610,186.655 69.104 C 186.142 70.018,185.772 70.489,185.564 70.495 C 185.462 70.498,185.178 70.658,184.932 70.851 C 184.178 71.444,181.821 71.376,181.159 70.743 C 180.523 70.133,180.418 68.005,180.991 67.343 C 181.170 67.138,181.339 66.920,181.366 66.860 C 181.496 66.578,182.883 65.999,183.450 65.989 C 183.798 65.983,184.533 65.877,185.083 65.753 C 185.633 65.629,186.290 65.522,186.542 65.514 L 187.000 65.500 187.000 66.995 M299.239 66.086 C 299.544 67.710,298.564 70.500,297.689 70.500 C 297.610 70.500,297.344 70.658,297.099 70.851 C 296.317 71.466,294.017 71.376,293.345 70.704 C 292.683 70.042,292.568 67.890,293.167 67.378 C 293.350 67.221,293.503 67.016,293.506 66.921 C 293.517 66.647,295.029 65.995,295.667 65.990 C 295.987 65.987,296.700 65.884,297.250 65.760 C 298.931 65.380,299.113 65.410,299.239 66.086 M38.755 67.888 C 38.935 68.010,39.519 68.366,40.051 68.680 C 40.584 68.993,41.296 69.419,41.635 69.626 C 41.973 69.834,42.456 70.094,42.708 70.205 C 42.960 70.316,43.167 70.467,43.167 70.541 C 43.167 70.615,43.335 70.749,43.542 70.840 C 43.748 70.931,44.217 71.179,44.583 71.391 C 46.385 72.434,46.831 72.667,47.030 72.667 C 47.148 72.667,46.946 72.508,46.581 72.313 C 45.490 71.733,43.786 70.726,42.825 70.093 C 42.330 69.767,41.852 69.500,41.765 69.500 C 41.677 69.500,41.450 69.359,41.261 69.186 C 41.072 69.014,40.409 68.601,39.787 68.270 C 38.653 67.664,38.142 67.475,38.755 67.888 M47.566 72.860 C 48.691 73.514,50.019 73.859,52.000 74.013 C 57.469 74.440,57.663 74.465,58.379 74.836 C 59.230 75.277,61.375 76.977,63.067 78.552 C 63.746 79.184,64.978 80.114,64.500 79.634 C 64.058 79.191,62.071 77.435,61.330 76.833 C 60.935 76.512,60.493 76.128,60.348 75.978 C 58.989 74.582,57.247 74.049,53.559 73.901 C 50.803 73.790,48.442 73.342,47.932 72.832 C 47.841 72.741,47.650 72.669,47.508 72.672 C 47.308 72.676,47.321 72.718,47.566 72.860 M66.612 79.521 C 66.444 79.618,65.956 79.757,65.528 79.829 C 64.870 79.941,64.834 79.964,65.297 79.980 C 65.822 79.999,67.000 79.615,67.000 79.425 C 67.000 79.305,66.972 79.312,66.612 79.521 " stroke="none" fill="#8f8f8e" fill-rule="evenodd"></path></g></svg>