<?xml version="1.0" encoding="iso-8859-1"?>
<!-- Generator: Adobe Illustrator 19.0.0, SVG Export Plug-In . SVG Version: 6.00 Build 0)  -->
<svg version="1.1" id="Layer_1" xmlns="http://www.w3.org/2000/svg" xmlns:xlink="http://www.w3.org/1999/xlink" x="0px" y="0px"
	 viewBox="0 0 512 512" style="enable-background:new 0 0 512 512;" xml:space="preserve">
<path style="fill:#E8E8E8;" d="M462.118,331.221H49.883V113.258h323.13c49.211,0,89.104,39.893,89.104,89.104v128.859H462.118z"/>
<g>
	<rect x="88.978" y="10.199" style="fill:#F07057;" width="61.603" height="41.461"/>
	<rect x="233.491" y="331.219" style="fill:#F07057;" width="45.009" height="170.582"/>
</g>
<path d="M78.775,103.059H49.883c-5.632,0-10.199,4.567-10.199,10.199v217.963c0,5.632,4.567,10.199,10.199,10.199h173.411v160.38
	c0,5.632,4.567,10.199,10.199,10.199h45.014c5.632,0,10.199-4.567,10.199-10.199V341.42h173.411c5.632,0,10.199-4.567,10.199-10.199
	v-128.86c0-54.756-44.548-99.303-99.304-99.303H99.173V61.858h51.399c5.632,0,10.199-4.567,10.199-10.199v-41.46
	C160.772,4.567,156.204,0,150.572,0H88.974c-5.632,0-10.199,4.567-10.199,10.199V103.059z M140.373,41.46h-41.2V20.398h41.2V41.46z
	 M268.308,491.602h-24.616V341.42h24.616V491.602z M146.557,321.022V166.564c0-5.632-4.567-10.199-10.199-10.199
	s-10.199,4.567-10.199,10.199v154.458H60.082V123.457h18.693v22.97c0,5.632,4.567,10.199,10.199,10.199s10.199-4.567,10.199-10.199
	v-22.97h273.839c43.509,0,78.905,35.396,78.905,78.904v118.661H146.557z"/>
<path d="M290.678,286.669h-12.171c-5.632,0-10.199,4.567-10.199,10.199c0,5.632,4.567,10.199,10.199,10.199h12.171
	c5.632,0,10.199-4.567,10.199-10.199C300.877,291.236,296.31,286.669,290.678,286.669z"/>
<path d="M330.455,286.669c-5.632,0-10.199,4.567-10.199,10.199c0,5.632,4.567,10.199,10.199,10.199h97.31
	c5.632,0,10.199-4.567,10.199-10.199c0-5.632-4.567-10.199-10.199-10.199H330.455z"/>
<g>
</g>
<g>
</g>
<g>
</g>
<g>
</g>
<g>
</g>
<g>
</g>
<g>
</g>
<g>
</g>
<g>
</g>
<g>
</g>
<g>
</g>
<g>
</g>
<g>
</g>
<g>
</g>
<g>
</g>
</svg>
