<?xml version="1.0" encoding="UTF-8" standalone="no"?>
<!-- Created with Inkscape (http://www.inkscape.org/) -->

<svg
      xmlns="http://www.w3.org/2000/svg"
      width="100mm"
      height="100mm"
      version="1.1"
      viewBox="0 0 354.331 354.331"
    >
      <g transform="translate(0 -698.032)">
        <ellipse
          cx="174.058"
          cy="872.282"
          fill="#000"
          rx="161.257"
          ry="159.449"
        ></ellipse>
        <path
          fill="#fff"
          d="M252.93 867.216c-6.714-.226-7.16-.656-8.759-8.443-1.467-7.146-3.076-12.11-5.79-17.863-9.872-20.92-30.082-36.465-52.218-40.167-2.691-.45-4.876-1.218-5.788-2.035l-1.465-1.312-.157-35.214-.157-35.215 1.843-1.605c1.758-1.532 2.083-1.587 7.159-1.204 16.255 1.225 34.028 6.326 50.778 14.572 21.782 10.725 38.938 25.2 53.834 45.423 14.663 19.908 23.923 43.79 27.133 69.982 1.178 9.605 1.185 9.428-.476 11.319l-1.4 1.595-29.582.174c-16.27.096-31.999.093-34.954-.007z"
        ></path>
        <path
          fill="#fff"
          d="M95.118 867.216c6.715-.226 7.161-.656 8.76-8.443 1.466-7.146 3.075-12.11 5.79-17.863 9.872-20.92 30.081-36.465 52.218-40.167 2.691-.45 4.876-1.218 5.788-2.035l1.465-1.312.157-35.214.156-35.215-1.842-1.605c-1.759-1.532-2.083-1.587-7.159-1.204-16.255 1.225-34.029 6.326-50.778 14.572-21.783 10.725-38.939 25.2-53.834 45.423-14.663 19.908-23.923 43.79-27.134 69.982-1.177 9.605-1.184 9.428.476 11.319l1.402 1.595 29.58.174c16.27.096 32 .093 34.955-.007z"
        ></path>
        <path
          fill="#fff"
          d="M252.93 877.347c-6.714.226-7.16.656-8.759 8.443-1.467 7.147-3.076 12.11-5.79 17.863-9.872 20.92-30.082 36.465-52.218 40.167-2.691.45-4.876 1.218-5.788 2.035l-1.465 1.312-.157 35.214-.157 35.215 1.843 1.605c1.758 1.532 2.083 1.587 7.159 1.204 16.255-1.225 34.028-6.325 50.778-14.572 21.782-10.725 38.938-25.2 53.834-45.423 14.663-19.908 23.923-43.79 27.133-69.982 1.178-9.605 1.185-9.428-.476-11.319l-1.4-1.595-29.582-.174c-16.27-.096-31.999-.093-34.954.007z"
        ></path>
        <path
          fill="#fff"
          d="M95.118 877.347c6.715.226 7.161.656 8.76 8.443 1.466 7.147 3.075 12.11 5.79 17.863 9.872 20.92 30.081 36.465 52.218 40.167 2.691.45 4.876 1.218 5.788 2.035l1.465 1.312.157 35.214.157 35.215-1.843 1.605c-1.759 1.532-2.083 1.587-7.159 1.204-16.255-1.225-34.029-6.325-50.778-14.572-21.783-10.725-38.939-25.2-53.834-45.423-14.663-19.908-23.923-43.79-27.134-69.982-1.177-9.605-1.184-9.428.476-11.319l1.402-1.595 29.58-.174c16.27-.096 32-.093 34.955.007z"
        ></path>
      </g>
    </svg>
